<svg xmlns="http://www.w3.org/2000/svg" xmlns:xlink="http://www.w3.org/1999/xlink" viewBox="0 0 491.31 268">
  <defs>
    <style>
      .cls-1 {
        fill: #87c2e8;
        stroke: #87c2e8;
      }

      .cls-2 {
        font-size: 25px;
      }

      .cls-2, .cls-4, .cls-5 {
        font-family: Roboto-Bold, Roboto;
        font-weight: 700;
      }

      .cls-3, .cls-7, .cls-8 {
        fill: #fff;
      }

      .cls-10, .cls-3, .cls-9 {
        stroke: #fff;
      }

      .cls-4, .cls-5 {
        font-size: 35px;
      }

      .cls-5, .cls-6 {
        fill: #5c5c5c;
      }

      .cls-6 {
        font-size: 10px;
        font-family: Roboto-Light, Roboto;
        font-weight: 300;
      }

      .cls-7 {
        font-size: 17px;
        font-family: Roboto-Regular, Roboto;
      }

      .cls-10, .cls-12, .cls-9 {
        fill: none;
      }

      .cls-10 {
        stroke-width: 3px;
      }

      .cls-11 {
        stroke: none;
      }

      .cls-13 {
        filter: url(#Rectangle_1469);
      }
    </style>
    <filter id="Rectangle_1469" x="2.31" y="0" width="489" height="268" filterUnits="userSpaceOnUse">
      <feOffset dx="4" dy="4" input="SourceAlpha"/>
      <feGaussianBlur stdDeviation="2" result="blur"/>
      <feFlood flood-opacity="0.161"/>
      <feComposite operator="in" in2="blur"/>
      <feComposite in="SourceGraphic"/>
    </filter>
  </defs>
  <g id="Group_34" data-name="Group 34" transform="translate(-533.69 -19)">
    <g class="cls-13" transform="matrix(1, 0, 0, 1, 533.69, 19)">
      <g id="Rectangle_1469-2" data-name="Rectangle 1469" class="cls-1" transform="translate(4.31 2)">
        <rect class="cls-11" width="477" height="256" rx="18"/>
        <rect class="cls-12" x="0.5" y="0.5" width="476" height="255" rx="17.5"/>
      </g>
    </g>
    <text id="SANDWICH" class="cls-2" transform="translate(626 60)"><tspan x="0" y="23">SANDWICH</tspan></text>
    <g id="Group_17" data-name="Group 17" transform="translate(414 -106)">
      <g id="Rectangle_1460" data-name="Rectangle 1460" class="cls-3" transform="translate(167 271)">
        <rect class="cls-11" width="63" height="60"/>
        <rect class="cls-12" x="0.5" y="0.5" width="62" height="59"/>
      </g>
      <g id="Rectangle_1461" data-name="Rectangle 1461" class="cls-3" transform="translate(249 271)">
        <rect class="cls-11" width="63" height="60"/>
        <rect class="cls-12" x="0.5" y="0.5" width="62" height="59"/>
      </g>
      <g id="Rectangle_1462" data-name="Rectangle 1462" class="cls-3" transform="translate(331 271)">
        <rect class="cls-11" width="63" height="60"/>
        <rect class="cls-12" x="0.5" y="0.5" width="62" height="59"/>
      </g>
      <g id="Rectangle_1463" data-name="Rectangle 1463" class="cls-3" transform="translate(413 271)">
        <rect class="cls-11" width="63" height="60"/>
        <rect class="cls-12" x="0.5" y="0.5" width="62" height="59"/>
      </g>
      <g id="Rectangle_1464" data-name="Rectangle 1464" class="cls-3" transform="translate(495 271)">
        <rect class="cls-11" width="63" height="60"/>
        <rect class="cls-12" x="0.5" y="0.5" width="62" height="59"/>
      </g>
    </g>
    <text id="_240_kr" data-name="240 kr" class="cls-4" transform="translate(889 57)"><tspan x="0" y="32">240 kr</tspan></text>
    <text id="_320_kr" data-name="320 kr" class="cls-5" transform="translate(888 102)"><tspan x="0" y="32">320 kr</tspan></text>
    <text id="_JOEANDTHEJUICE_JOEANDTHEJUICE_JOEJUICE.COM_" data-name="#JOEANDTHEJUICE  |  @JOEANDTHEJUICE  |  JOEJUICE.COM " class="cls-6" transform="translate(639 238)"><tspan x="0" y="9" xml:space="preserve">#JOEANDTHEJUICE  |  @JOEANDTHEJUICE  |  JOEJUICE.COM </tspan></text>
    <g id="joe-product-icon_sandwich" transform="translate(566.473 39.988) rotate(20)">
      <g id="Group_10" data-name="Group 10" transform="translate(0)">
        <path id="Path_19" data-name="Path 19" d="M28.923,35.651a1.036,1.036,0,0,0,.942.565h.377l14.131-5.087a.894.894,0,0,0-.565-1.7L29.677,34.52C29.111,34.709,28.735,35.274,28.923,35.651Z" transform="translate(-9.539 -12.147)"/>
        <path id="Path_20" data-name="Path 20" d="M39.187,35.924h.377l4.522-1.7a.894.894,0,1,0-.565-1.7L39,34.229a.84.84,0,0,0-.565,1.13C38.433,35.736,38.81,35.924,39.187,35.924Z" transform="translate(-1.15 -9.406)"/>
        <path id="Path_21" data-name="Path 21" d="M99.04,95.918,83.59,53.714a.84.84,0,0,0-1.13-.565h0a5.559,5.559,0,0,0-.377-3.768,5.717,5.717,0,0,0-2.449-3.2,5.274,5.274,0,0,1-1.884-2.449,4.267,4.267,0,0,1-.188-3.015,7.273,7.273,0,0,0-.188-3.957,6.065,6.065,0,0,0-7.725-3.391h0l-2.449.942a4.847,4.847,0,0,1-2.826-.188,3.482,3.482,0,0,1-2.072-3.2,1.534,1.534,0,0,0-2.449-1.13,3.466,3.466,0,0,1-3.768.377,3.3,3.3,0,0,1-2.072-3.2,1.417,1.417,0,0,0-.942-1.319,1.831,1.831,0,0,0-1.7.188,3.841,3.841,0,0,1-3.768.377,3.425,3.425,0,0,1-1.884-2.072l-1.13-3.2q0-.283-.565-.565a.573.573,0,0,0-.754,0L23.488,27.337a8.109,8.109,0,0,0-4.145,3.768,6.585,6.585,0,0,0-.188,5.652L23.677,49h0L26.5,56.729h0L28.952,63.7l-1.507.565a.84.84,0,0,0-.565,1.13l18.276,50.116a1.036,1.036,0,0,0,.942.565h.377L91.315,99.686l7.159-2.638C98.852,96.86,99.228,96.295,99.04,95.918ZM75.677,37.323a4.267,4.267,0,0,1,.188,3.015,7.273,7.273,0,0,0,.188,3.957A5.6,5.6,0,0,0,78.5,47.5a5.273,5.273,0,0,1,1.884,2.449,4.267,4.267,0,0,1,.188,3.015,1.133,1.133,0,0,1-.188.754l-4.333,1.507L68.706,35.439l1.507-.565h0A4.417,4.417,0,0,1,75.677,37.323Zm-54.45-5.464a5.542,5.542,0,0,1,3.015-2.826L43.083,22.25l.754,2.261a5.542,5.542,0,0,0,2.826,3.015,5.281,5.281,0,0,0,5.275-.377,5.6,5.6,0,0,0,3.2,4.145,5.281,5.281,0,0,0,5.275-.377,5.208,5.208,0,0,0,3.2,4.145,5.078,5.078,0,0,0,3.2.565L74.17,55.6,58.344,61.439l-8.29-3.768,14.131-5.087a.894.894,0,1,0-.565-1.7L46.286,57.106h0l-.565.377h0L30.836,62.946l-2.261-6.029L51,48.816a.84.84,0,0,0,.565-1.13c-.188-.377-.754-.754-1.13-.565l-22.42,8.1-2.261-6.029,7.536-2.638a.894.894,0,0,0-.565-1.7L25.184,47.5l-2.261-6.029,20.16-7.348a.894.894,0,0,0-.565-1.7l-20.16,7.348L21.039,36A4.6,4.6,0,0,1,21.228,31.859ZM57.4,81.6,49.3,59.555,79.446,73.5ZM46.663,113.816,29.141,65.584l17.9-6.594,8.855,24.116a.405.405,0,0,0,.377.377h0a.658.658,0,0,1,.377.188h.377l24.116-8.855L89.62,97.99ZM91.5,97.613,82.648,73.5V73.12l-.377-.377-21.478-9.8,21.29-7.725,14.7,40.508Z" transform="translate(-18.611 -20.225)"/>
      </g>
    </g>
    <g id="joe-product-icon_sandwich-2" data-name="joe-product-icon_sandwich" transform="translate(603.148 170.876) rotate(21)">
      <g id="Group_10-2" data-name="Group 10" transform="translate(0)">
        <path id="Path_19-2" data-name="Path 19" d="M28.9,32.23a.472.472,0,0,0,.43.258H29.5l6.443-2.32a.408.408,0,0,0-.258-.773l-6.443,2.32C28.982,31.8,28.81,32.058,28.9,32.23Z" transform="translate(-20.058 -21.513)"/>
        <path id="Path_20-2" data-name="Path 20" d="M38.738,34.041h.172l2.062-.773a.408.408,0,1,0-.258-.773l-2.062.773a.383.383,0,0,0-.258.515C38.395,33.955,38.567,34.041,38.738,34.041Z" transform="translate(-21.395 -21.949)"/>
        <path id="Path_21-2" data-name="Path 21" d="M55.285,54.739,48.24,35.5a.383.383,0,0,0-.515-.258h0a2.535,2.535,0,0,0-.172-1.718,2.607,2.607,0,0,0-1.117-1.46,2.4,2.4,0,0,1-.859-1.117,1.946,1.946,0,0,1-.086-1.375,3.316,3.316,0,0,0-.086-1.8,2.765,2.765,0,0,0-3.522-1.546h0l-1.117.43a2.21,2.21,0,0,1-1.289-.086,1.588,1.588,0,0,1-.945-1.46.7.7,0,0,0-1.117-.515,1.58,1.58,0,0,1-1.718.172,1.5,1.5,0,0,1-.945-1.46.646.646,0,0,0-.43-.6.835.835,0,0,0-.773.086,1.751,1.751,0,0,1-1.718.172,1.561,1.561,0,0,1-.859-.945l-.515-1.46q0-.129-.258-.258a.261.261,0,0,0-.344,0l-9.02,3.179a3.7,3.7,0,0,0-1.89,1.718,3,3,0,0,0-.086,2.577l2.062,5.584h0L22.21,36.87h0l1.117,3.179-.687.258a.383.383,0,0,0-.258.515l8.333,22.852a.472.472,0,0,0,.43.258h.172l20.446-7.474,3.265-1.2C55.2,55.169,55.371,54.911,55.285,54.739ZM44.632,28.021a1.946,1.946,0,0,1,.086,1.375,3.316,3.316,0,0,0,.086,1.8,2.554,2.554,0,0,0,1.117,1.46,2.4,2.4,0,0,1,.859,1.117,1.946,1.946,0,0,1,.086,1.375.517.517,0,0,1-.086.344l-1.976.687-3.35-9.02.687-.258h0A2.014,2.014,0,0,1,44.632,28.021ZM19.8,25.53a2.527,2.527,0,0,1,1.375-1.289l8.591-3.093.344,1.031A2.527,2.527,0,0,0,31.4,23.554a2.408,2.408,0,0,0,2.405-.172,2.552,2.552,0,0,0,1.46,1.89,2.408,2.408,0,0,0,2.405-.172,2.375,2.375,0,0,0,1.46,1.89,2.316,2.316,0,0,0,1.46.258l3.35,9.106-7.216,2.663L32.948,37.3l6.443-2.32a.408.408,0,1,0-.258-.773l-7.9,2.835h0l-.258.172h0L24.186,39.7l-1.031-2.749,10.223-3.694a.383.383,0,0,0,.258-.515c-.086-.172-.344-.344-.515-.258L22.9,36.183l-1.031-2.749,3.436-1.2a.408.408,0,1,0-.258-.773l-3.436,1.2-1.031-2.749,9.192-3.35a.408.408,0,0,0-.258-.773l-9.192,3.35-.6-1.718A2.1,2.1,0,0,1,19.8,25.53ZM36.3,48.21,32.6,38.159,46.35,44.516ZM31.4,62.9l-7.99-21.993L31.574,37.9l4.038,11a.185.185,0,0,0,.172.172h0a.3.3,0,0,1,.172.086h.172l11-4.038,3.866,10.567Zm20.446-7.388-4.038-11v-.172l-.172-.172L37.845,39.7l9.708-3.522,6.7,18.47Z" transform="translate(-18.611 -20.225)"/>
      </g>
    </g>
    <g id="joe-product-icon_sandwich-3" data-name="joe-product-icon_sandwich" transform="translate(685.679 171.042) rotate(20)">
      <g id="Group_10-3" data-name="Group 10" transform="translate(0)">
        <path id="Path_19-3" data-name="Path 19" d="M28.9,32.23a.472.472,0,0,0,.43.258H29.5l6.443-2.32a.408.408,0,0,0-.258-.773l-6.443,2.32C28.982,31.8,28.81,32.058,28.9,32.23Z" transform="translate(-20.058 -21.513)"/>
        <path id="Path_20-3" data-name="Path 20" d="M38.738,34.041h.172l2.062-.773a.408.408,0,1,0-.258-.773l-2.062.773a.383.383,0,0,0-.258.515C38.395,33.955,38.567,34.041,38.738,34.041Z" transform="translate(-21.395 -21.949)"/>
        <path id="Path_21-3" data-name="Path 21" d="M55.285,54.739,48.24,35.5a.383.383,0,0,0-.515-.258h0a2.535,2.535,0,0,0-.172-1.718,2.607,2.607,0,0,0-1.117-1.46,2.4,2.4,0,0,1-.859-1.117,1.946,1.946,0,0,1-.086-1.375,3.316,3.316,0,0,0-.086-1.8,2.765,2.765,0,0,0-3.522-1.546h0l-1.117.43a2.21,2.21,0,0,1-1.289-.086,1.588,1.588,0,0,1-.945-1.46.7.7,0,0,0-1.117-.515,1.58,1.58,0,0,1-1.718.172,1.5,1.5,0,0,1-.945-1.46.646.646,0,0,0-.43-.6.835.835,0,0,0-.773.086,1.751,1.751,0,0,1-1.718.172,1.561,1.561,0,0,1-.859-.945l-.515-1.46q0-.129-.258-.258a.261.261,0,0,0-.344,0l-9.02,3.179a3.7,3.7,0,0,0-1.89,1.718,3,3,0,0,0-.086,2.577l2.062,5.584h0L22.21,36.87h0l1.117,3.179-.687.258a.383.383,0,0,0-.258.515l8.333,22.852a.472.472,0,0,0,.43.258h.172l20.446-7.474,3.265-1.2C55.2,55.169,55.371,54.911,55.285,54.739ZM44.632,28.021a1.946,1.946,0,0,1,.086,1.375,3.316,3.316,0,0,0,.086,1.8,2.554,2.554,0,0,0,1.117,1.46,2.4,2.4,0,0,1,.859,1.117,1.946,1.946,0,0,1,.086,1.375.517.517,0,0,1-.086.344l-1.976.687-3.35-9.02.687-.258h0A2.014,2.014,0,0,1,44.632,28.021ZM19.8,25.53a2.527,2.527,0,0,1,1.375-1.289l8.591-3.093.344,1.031A2.527,2.527,0,0,0,31.4,23.554a2.408,2.408,0,0,0,2.405-.172,2.552,2.552,0,0,0,1.46,1.89,2.408,2.408,0,0,0,2.405-.172,2.375,2.375,0,0,0,1.46,1.89,2.316,2.316,0,0,0,1.46.258l3.35,9.106-7.216,2.663L32.948,37.3l6.443-2.32a.408.408,0,1,0-.258-.773l-7.9,2.835h0l-.258.172h0L24.186,39.7l-1.031-2.749,10.223-3.694a.383.383,0,0,0,.258-.515c-.086-.172-.344-.344-.515-.258L22.9,36.183l-1.031-2.749,3.436-1.2a.408.408,0,1,0-.258-.773l-3.436,1.2-1.031-2.749,9.192-3.35a.408.408,0,0,0-.258-.773l-9.192,3.35-.6-1.718A2.1,2.1,0,0,1,19.8,25.53ZM36.3,48.21,32.6,38.159,46.35,44.516ZM31.4,62.9l-7.99-21.993L31.574,37.9l4.038,11a.185.185,0,0,0,.172.172h0a.3.3,0,0,1,.172.086h.172l11-4.038,3.866,10.567Zm20.446-7.388-4.038-11v-.172l-.172-.172L37.845,39.7l9.708-3.522,6.7,18.47Z" transform="translate(-18.611 -20.225)"/>
      </g>
    </g>
    <g id="joe-product-icon_sandwich-4" data-name="joe-product-icon_sandwich" transform="translate(768.679 171.042) rotate(20)">
      <g id="Group_10-4" data-name="Group 10" transform="translate(0)">
        <path id="Path_19-4" data-name="Path 19" d="M28.9,32.23a.472.472,0,0,0,.43.258H29.5l6.443-2.32a.408.408,0,0,0-.258-.773l-6.443,2.32C28.982,31.8,28.81,32.058,28.9,32.23Z" transform="translate(-20.058 -21.513)"/>
        <path id="Path_20-4" data-name="Path 20" d="M38.738,34.041h.172l2.062-.773a.408.408,0,1,0-.258-.773l-2.062.773a.383.383,0,0,0-.258.515C38.395,33.955,38.567,34.041,38.738,34.041Z" transform="translate(-21.395 -21.949)"/>
        <path id="Path_21-4" data-name="Path 21" d="M55.285,54.739,48.24,35.5a.383.383,0,0,0-.515-.258h0a2.535,2.535,0,0,0-.172-1.718,2.607,2.607,0,0,0-1.117-1.46,2.4,2.4,0,0,1-.859-1.117,1.946,1.946,0,0,1-.086-1.375,3.316,3.316,0,0,0-.086-1.8,2.765,2.765,0,0,0-3.522-1.546h0l-1.117.43a2.21,2.21,0,0,1-1.289-.086,1.588,1.588,0,0,1-.945-1.46.7.7,0,0,0-1.117-.515,1.58,1.58,0,0,1-1.718.172,1.5,1.5,0,0,1-.945-1.46.646.646,0,0,0-.43-.6.835.835,0,0,0-.773.086,1.751,1.751,0,0,1-1.718.172,1.561,1.561,0,0,1-.859-.945l-.515-1.46q0-.129-.258-.258a.261.261,0,0,0-.344,0l-9.02,3.179a3.7,3.7,0,0,0-1.89,1.718,3,3,0,0,0-.086,2.577l2.062,5.584h0L22.21,36.87h0l1.117,3.179-.687.258a.383.383,0,0,0-.258.515l8.333,22.852a.472.472,0,0,0,.43.258h.172l20.446-7.474,3.265-1.2C55.2,55.169,55.371,54.911,55.285,54.739ZM44.632,28.021a1.946,1.946,0,0,1,.086,1.375,3.316,3.316,0,0,0,.086,1.8,2.554,2.554,0,0,0,1.117,1.46,2.4,2.4,0,0,1,.859,1.117,1.946,1.946,0,0,1,.086,1.375.517.517,0,0,1-.086.344l-1.976.687-3.35-9.02.687-.258h0A2.014,2.014,0,0,1,44.632,28.021ZM19.8,25.53a2.527,2.527,0,0,1,1.375-1.289l8.591-3.093.344,1.031A2.527,2.527,0,0,0,31.4,23.554a2.408,2.408,0,0,0,2.405-.172,2.552,2.552,0,0,0,1.46,1.89,2.408,2.408,0,0,0,2.405-.172,2.375,2.375,0,0,0,1.46,1.89,2.316,2.316,0,0,0,1.46.258l3.35,9.106-7.216,2.663L32.948,37.3l6.443-2.32a.408.408,0,1,0-.258-.773l-7.9,2.835h0l-.258.172h0L24.186,39.7l-1.031-2.749,10.223-3.694a.383.383,0,0,0,.258-.515c-.086-.172-.344-.344-.515-.258L22.9,36.183l-1.031-2.749,3.436-1.2a.408.408,0,1,0-.258-.773l-3.436,1.2-1.031-2.749,9.192-3.35a.408.408,0,0,0-.258-.773l-9.192,3.35-.6-1.718A2.1,2.1,0,0,1,19.8,25.53ZM36.3,48.21,32.6,38.159,46.35,44.516ZM31.4,62.9l-7.99-21.993L31.574,37.9l4.038,11a.185.185,0,0,0,.172.172h0a.3.3,0,0,1,.172.086h.172l11-4.038,3.866,10.567Zm20.446-7.388-4.038-11v-.172l-.172-.172L37.845,39.7l9.708-3.522,6.7,18.47Z" transform="translate(-18.611 -20.225)"/>
      </g>
    </g>
    <g id="joe-product-icon_sandwich-5" data-name="joe-product-icon_sandwich" transform="translate(849.679 171.042) rotate(20)">
      <g id="Group_10-5" data-name="Group 10" transform="translate(0)">
        <path id="Path_19-5" data-name="Path 19" d="M28.9,32.23a.472.472,0,0,0,.43.258H29.5l6.443-2.32a.408.408,0,0,0-.258-.773l-6.443,2.32C28.982,31.8,28.81,32.058,28.9,32.23Z" transform="translate(-20.058 -21.513)"/>
        <path id="Path_20-5" data-name="Path 20" d="M38.738,34.041h.172l2.062-.773a.408.408,0,1,0-.258-.773l-2.062.773a.383.383,0,0,0-.258.515C38.395,33.955,38.567,34.041,38.738,34.041Z" transform="translate(-21.395 -21.949)"/>
        <path id="Path_21-5" data-name="Path 21" d="M55.285,54.739,48.24,35.5a.383.383,0,0,0-.515-.258h0a2.535,2.535,0,0,0-.172-1.718,2.607,2.607,0,0,0-1.117-1.46,2.4,2.4,0,0,1-.859-1.117,1.946,1.946,0,0,1-.086-1.375,3.316,3.316,0,0,0-.086-1.8,2.765,2.765,0,0,0-3.522-1.546h0l-1.117.43a2.21,2.21,0,0,1-1.289-.086,1.588,1.588,0,0,1-.945-1.46.7.7,0,0,0-1.117-.515,1.58,1.58,0,0,1-1.718.172,1.5,1.5,0,0,1-.945-1.46.646.646,0,0,0-.43-.6.835.835,0,0,0-.773.086,1.751,1.751,0,0,1-1.718.172,1.561,1.561,0,0,1-.859-.945l-.515-1.46q0-.129-.258-.258a.261.261,0,0,0-.344,0l-9.02,3.179a3.7,3.7,0,0,0-1.89,1.718,3,3,0,0,0-.086,2.577l2.062,5.584h0L22.21,36.87h0l1.117,3.179-.687.258a.383.383,0,0,0-.258.515l8.333,22.852a.472.472,0,0,0,.43.258h.172l20.446-7.474,3.265-1.2C55.2,55.169,55.371,54.911,55.285,54.739ZM44.632,28.021a1.946,1.946,0,0,1,.086,1.375,3.316,3.316,0,0,0,.086,1.8,2.554,2.554,0,0,0,1.117,1.46,2.4,2.4,0,0,1,.859,1.117,1.946,1.946,0,0,1,.086,1.375.517.517,0,0,1-.086.344l-1.976.687-3.35-9.02.687-.258h0A2.014,2.014,0,0,1,44.632,28.021ZM19.8,25.53a2.527,2.527,0,0,1,1.375-1.289l8.591-3.093.344,1.031A2.527,2.527,0,0,0,31.4,23.554a2.408,2.408,0,0,0,2.405-.172,2.552,2.552,0,0,0,1.46,1.89,2.408,2.408,0,0,0,2.405-.172,2.375,2.375,0,0,0,1.46,1.89,2.316,2.316,0,0,0,1.46.258l3.35,9.106-7.216,2.663L32.948,37.3l6.443-2.32a.408.408,0,1,0-.258-.773l-7.9,2.835h0l-.258.172h0L24.186,39.7l-1.031-2.749,10.223-3.694a.383.383,0,0,0,.258-.515c-.086-.172-.344-.344-.515-.258L22.9,36.183l-1.031-2.749,3.436-1.2a.408.408,0,1,0-.258-.773l-3.436,1.2-1.031-2.749,9.192-3.35a.408.408,0,0,0-.258-.773l-9.192,3.35-.6-1.718A2.1,2.1,0,0,1,19.8,25.53ZM36.3,48.21,32.6,38.159,46.35,44.516ZM31.4,62.9l-7.99-21.993L31.574,37.9l4.038,11a.185.185,0,0,0,.172.172h0a.3.3,0,0,1,.172.086h.172l11-4.038,3.866,10.567Zm20.446-7.388-4.038-11v-.172l-.172-.172L37.845,39.7l9.708-3.522,6.7,18.47Z" transform="translate(-18.611 -20.225)"/>
      </g>
    </g>
    <g id="joe-product-icon_sandwich-6" data-name="joe-product-icon_sandwich" transform="matrix(0.94, 0.342, -0.342, 0.94, 930.679, 171.042)">
      <g id="Group_10-6" data-name="Group 10" transform="translate(0)">
        <path id="Path_19-6" data-name="Path 19" d="M28.9,32.23a.472.472,0,0,0,.43.258H29.5l6.443-2.32a.408.408,0,0,0-.258-.773l-6.443,2.32C28.982,31.8,28.81,32.058,28.9,32.23Z" transform="translate(-20.058 -21.513)"/>
        <path id="Path_20-6" data-name="Path 20" d="M38.738,34.041h.172l2.062-.773a.408.408,0,1,0-.258-.773l-2.062.773a.383.383,0,0,0-.258.515C38.395,33.955,38.567,34.041,38.738,34.041Z" transform="translate(-21.395 -21.949)"/>
        <path id="Path_21-6" data-name="Path 21" d="M55.285,54.739,48.24,35.5a.383.383,0,0,0-.515-.258h0a2.535,2.535,0,0,0-.172-1.718,2.607,2.607,0,0,0-1.117-1.46,2.4,2.4,0,0,1-.859-1.117,1.946,1.946,0,0,1-.086-1.375,3.316,3.316,0,0,0-.086-1.8,2.765,2.765,0,0,0-3.522-1.546h0l-1.117.43a2.21,2.21,0,0,1-1.289-.086,1.588,1.588,0,0,1-.945-1.46.7.7,0,0,0-1.117-.515,1.58,1.58,0,0,1-1.718.172,1.5,1.5,0,0,1-.945-1.46.646.646,0,0,0-.43-.6.835.835,0,0,0-.773.086,1.751,1.751,0,0,1-1.718.172,1.561,1.561,0,0,1-.859-.945l-.515-1.46q0-.129-.258-.258a.261.261,0,0,0-.344,0l-9.02,3.179a3.7,3.7,0,0,0-1.89,1.718,3,3,0,0,0-.086,2.577l2.062,5.584h0L22.21,36.87h0l1.117,3.179-.687.258a.383.383,0,0,0-.258.515l8.333,22.852a.472.472,0,0,0,.43.258h.172l20.446-7.474,3.265-1.2C55.2,55.169,55.371,54.911,55.285,54.739ZM44.632,28.021a1.946,1.946,0,0,1,.086,1.375,3.316,3.316,0,0,0,.086,1.8,2.554,2.554,0,0,0,1.117,1.46,2.4,2.4,0,0,1,.859,1.117,1.946,1.946,0,0,1,.086,1.375.517.517,0,0,1-.086.344l-1.976.687-3.35-9.02.687-.258h0A2.014,2.014,0,0,1,44.632,28.021ZM19.8,25.53a2.527,2.527,0,0,1,1.375-1.289l8.591-3.093.344,1.031A2.527,2.527,0,0,0,31.4,23.554a2.408,2.408,0,0,0,2.405-.172,2.552,2.552,0,0,0,1.46,1.89,2.408,2.408,0,0,0,2.405-.172,2.375,2.375,0,0,0,1.46,1.89,2.316,2.316,0,0,0,1.46.258l3.35,9.106-7.216,2.663L32.948,37.3l6.443-2.32a.408.408,0,1,0-.258-.773l-7.9,2.835h0l-.258.172h0L24.186,39.7l-1.031-2.749,10.223-3.694a.383.383,0,0,0,.258-.515c-.086-.172-.344-.344-.515-.258L22.9,36.183l-1.031-2.749,3.436-1.2a.408.408,0,1,0-.258-.773l-3.436,1.2-1.031-2.749,9.192-3.35a.408.408,0,0,0-.258-.773l-9.192,3.35-.6-1.718A2.1,2.1,0,0,1,19.8,25.53ZM36.3,48.21,32.6,38.159,46.35,44.516ZM31.4,62.9l-7.99-21.993L31.574,37.9l4.038,11a.185.185,0,0,0,.172.172h0a.3.3,0,0,1,.172.086h.172l11-4.038,3.866,10.567Zm20.446-7.388-4.038-11v-.172l-.172-.172L37.845,39.7l9.708-3.522,6.7,18.47Z" transform="translate(-18.611 -20.225)"/>
      </g>
    </g>
    <text id="_5_X_SANDWICHES_EXTRA_TOPPING" data-name="5 X SANDWICHES + EXTRA TOPPING" class="cls-7" transform="translate(626 99)"><tspan x="0" y="16">5 X SANDWICHES </tspan><tspan x="0" y="36">+ EXTRA TOPPING</tspan></text>
    <g id="a8a7e8aaaec4f29003dae50dd72da3d8" transform="translate(542.668 226.668)">
      <path id="Path_33" data-name="Path 33" class="cls-8" d="M20.613,20.613H10V10H20.613Zm-8.63-1.983h6.644V11.983H11.983V18.63Z"/>
      <path id="Path_34" data-name="Path 34" class="cls-8" d="M132.4,132.4h3.539v3.539H132.4Z" transform="translate(-118.861 -118.861)"/>
      <path id="Path_35" data-name="Path 35" class="cls-8" d="M20.613,632.445H10V621.8H20.613Zm-8.63-1.983h6.644v-6.678H11.983v6.678Z" transform="translate(0 -594.113)"/>
      <path id="Path_36" data-name="Path 36" class="cls-8" d="M132.4,745.3h3.539v3.5H132.4Z" transform="translate(-118.861 -714.042)"/>
      <path id="Path_37" data-name="Path 37" class="cls-8" d="M632.445,20.613H621.8V10h10.645Zm-8.662-1.983h6.678V11.983h-6.678Z" transform="translate(-594.113)"/>
      <path id="Path_38" data-name="Path 38" class="cls-8" d="M745.3,132.4h3.5v3.539h-3.5Z" transform="translate(-714.042 -118.861)"/>
      <path id="Path_39" data-name="Path 39" class="cls-8" d="M10,377.1h3.539v3.57H10Z" transform="translate(0 -356.487)"/>
      <path id="Path_40" data-name="Path 40" class="cls-8" d="M254.7,500.6h3.539v3.5H254.7v-3.5Z" transform="translate(-237.626 -476.416)"/>
      <path id="Path_41" data-name="Path 41" class="cls-8" d="M500.6,10h3.5v3.539h-3.5Z" transform="translate(-476.416)"/>
      <path id="Path_42" data-name="Path 42" class="cls-8" d="M377.1,254.7h3.57v3.539H377.1Z" transform="translate(-356.487 -237.626)"/>
      <path id="Path_43" data-name="Path 43" class="cls-8" d="M500.6,866.5h3.5v3.57h-3.5Z" transform="translate(-476.416 -831.738)"/>
      <path id="Path_44" data-name="Path 44" class="cls-8" d="M745.3,866.5h7.074v3.57H745.3Z" transform="translate(-714.042 -831.738)"/>
      <path id="Path_45" data-name="Path 45" class="cls-8" d="M500.6,621.8h7.074v3.57H500.6Z" transform="translate(-476.416 -594.113)"/>
      <path id="Path_46" data-name="Path 46" class="cls-8" d="M745.3,621.8h3.5v7.074h-3.5Z" transform="translate(-714.042 -594.113)"/>
      <path id="Path_47" data-name="Path 47" class="cls-8" d="M855.1,621.8H859v3.57h-3.9Z" transform="translate(-820.668 -594.113)"/>
      <path id="Path_48" data-name="Path 48" class="cls-8" d="M500.6,377.1h3.5v3.57h-3.5Z" transform="translate(-476.416 -356.487)"/>
      <path id="Path_49" data-name="Path 49" class="cls-8" d="M621.8,500.6h3.57v3.5H621.8v-3.5Z" transform="translate(-594.113 -476.416)"/>
      <path id="Path_50" data-name="Path 50" class="cls-8" d="M745.3,377.1h3.5v3.57h-3.5Z" transform="translate(-714.042 -356.487)"/>
      <path id="Path_51" data-name="Path 51" class="cls-8" d="M866.5,500.6h3.57v3.5H866.5v-3.5Z" transform="translate(-831.738 -476.416)"/>
    </g>
    <g id="Ellipse_9" data-name="Ellipse 9" class="cls-9" transform="translate(972 233)">
      <circle class="cls-11" cx="15" cy="15" r="15"/>
      <circle class="cls-12" cx="15" cy="15" r="14.5"/>
    </g>
    <line id="Line_36" data-name="Line 36" class="cls-9" x2="14" transform="translate(980.5 248.5)"/>
    <line id="Line_37" data-name="Line 37" class="cls-9" y2="14" transform="translate(987.5 241.5)"/>
    <g id="Symbol_9_3" data-name="Symbol 9 – 3" transform="translate(513.5 -277.5)">
      <line id="Line_30" data-name="Line 30" class="cls-10" x2="104" y2="30" transform="translate(374.5 383.5)"/>
      <line id="Line_31" data-name="Line 31" class="cls-10" y1="30" x2="102" transform="translate(374.5 383.5)"/>
    </g>
  </g>
</svg>
