<svg xmlns="http://www.w3.org/2000/svg" xmlns:xlink="http://www.w3.org/1999/xlink" viewBox="0 0 489 268">
  <defs>
    <style>
      .cls-1 {
        fill: #a78cbf;
        stroke: #a78cbf;
      }

      .cls-2 {
        font-size: 25px;
      }

      .cls-2, .cls-4, .cls-5 {
        font-family: Roboto-Bold, Roboto;
        font-weight: 700;
      }

      .cls-3, .cls-8, .cls-9 {
        fill: #fff;
      }

      .cls-10, .cls-3, .cls-7 {
        stroke: #fff;
      }

      .cls-4, .cls-5 {
        font-size: 35px;
      }

      .cls-5, .cls-6 {
        fill: #5c5c5c;
      }

      .cls-6 {
        font-size: 10px;
        font-family: Roboto-Light, Roboto;
        font-weight: 300;
      }

      .cls-10, .cls-12, .cls-7 {
        fill: none;
      }

      .cls-9 {
        font-size: 17px;
        font-family: Roboto-Regular, Roboto;
      }

      .cls-10 {
        stroke-width: 3px;
      }

      .cls-11 {
        stroke: none;
      }

      .cls-13 {
        filter: url(#Rectangle_1467);
      }
    </style>
    <filter id="Rectangle_1467" x="0" y="0" width="489" height="268" filterUnits="userSpaceOnUse">
      <feOffset dx="4" dy="4" input="SourceAlpha"/>
      <feGaussianBlur stdDeviation="2" result="blur"/>
      <feFlood flood-opacity="0.161"/>
      <feComposite operator="in" in2="blur"/>
      <feComposite in="SourceGraphic"/>
    </filter>
  </defs>
  <g id="Group_32" data-name="Group 32" transform="translate(-20 -571)">
    <g class="cls-13" transform="matrix(1, 0, 0, 1, 20, 571)">
      <g id="Rectangle_1467-2" data-name="Rectangle 1467" class="cls-1" transform="translate(2 2)">
        <rect class="cls-11" width="477" height="256" rx="18"/>
        <rect class="cls-12" x="0.5" y="0.5" width="476" height="255" rx="17.5"/>
      </g>
    </g>
    <g id="joe-product-icon_juice" transform="translate(37.854 582.575)">
      <g id="Group_9" data-name="Group 9" transform="translate(0 0)">
        <path id="Path_17" data-name="Path 17" d="M74.813,60.487h0C73.65,50.4,66.086,41.676,56.778,40.125H52.9L50.378,26.937a1.066,1.066,0,0,0-.582-.97L36.609,10.841A.96.96,0,0,0,35.251,12.2L48.632,27.519,50.96,40.125H47.275C38.16,41.676,30.4,50.6,29.239,60.681A2.279,2.279,0,0,0,27.3,62.814v3.879a2.152,2.152,0,0,0,2.133,2.133h.388v.582l1.551,11.054h0v.194l6.206,45.38a2.114,2.114,0,0,0,2.133,1.939h25.6a2.114,2.114,0,0,0,2.133-1.939L72.1,86.862h0l2.133-17.648v-.582h.388A2.152,2.152,0,0,0,76.752,66.5V62.621A2.733,2.733,0,0,0,74.813,60.487ZM47.275,42.064h9.309c8.145,1.551,15.127,9.5,16.29,18.423H36.609l.582-2.327A15.855,15.855,0,0,1,47.469,47.688a.92.92,0,1,0-.582-1.745A18.289,18.289,0,0,0,35.251,57.578a14.528,14.528,0,0,0-.776,3.1H30.791C32.342,51.373,39.324,43.421,47.275,42.064ZM72.1,68.826v.194L70.159,85.892H51.541a.97.97,0,1,0,0,1.939H69.965L65.5,125.842a.19.19,0,0,1-.194.194h-25.6a.19.19,0,0,1-.194-.194l-6.012-44.41h18.23a.97.97,0,1,0,0-1.939H33.118L31.76,69.02c0-.194,0-.194.194-.388ZM74.619,66.5a.19.19,0,0,1-.194.194H29.433a.19.19,0,0,1-.194-.194V62.621a.19.19,0,0,1,.194-.194H74.425a.19.19,0,0,1,.194.194V66.5Z" transform="translate(-27.3 -10.55)"/>
        <path id="Path_18" data-name="Path 18" d="M34.4,54.07a.916.916,0,0,0,.97.97H54.763a.97.97,0,1,0,0-1.939H35.37A.916.916,0,0,0,34.4,54.07Z" transform="translate(-20.631 29.418)"/>
      </g>
    </g>
    <text id="SIGNATURE" class="cls-2" transform="translate(100 621)"><tspan x="0" y="23">SIGNATURE</tspan></text>
    <g id="Group_15" data-name="Group 15" transform="translate(-102 446)">
      <g id="Rectangle_1460" data-name="Rectangle 1460" class="cls-3" transform="translate(167 271)">
        <rect class="cls-11" width="63" height="60"/>
        <rect class="cls-12" x="0.5" y="0.5" width="62" height="59"/>
      </g>
      <g id="Rectangle_1461" data-name="Rectangle 1461" class="cls-3" transform="translate(249 271)">
        <rect class="cls-11" width="63" height="60"/>
        <rect class="cls-12" x="0.5" y="0.5" width="62" height="59"/>
      </g>
      <g id="Rectangle_1462" data-name="Rectangle 1462" class="cls-3" transform="translate(331 271)">
        <rect class="cls-11" width="63" height="60"/>
        <rect class="cls-12" x="0.5" y="0.5" width="62" height="59"/>
      </g>
      <g id="Rectangle_1463" data-name="Rectangle 1463" class="cls-3" transform="translate(413 271)">
        <rect class="cls-11" width="63" height="60"/>
        <rect class="cls-12" x="0.5" y="0.5" width="62" height="59"/>
      </g>
      <g id="Rectangle_1464" data-name="Rectangle 1464" class="cls-3" transform="translate(495 271)">
        <rect class="cls-11" width="63" height="60"/>
        <rect class="cls-12" x="0.5" y="0.5" width="62" height="59"/>
      </g>
    </g>
    <g id="joe-product-icon_juice-2" data-name="joe-product-icon_juice" transform="translate(87 721.295)">
      <g id="Group_9-2" data-name="Group 9" transform="translate(0 0)">
        <path id="Path_17-2" data-name="Path 17" d="M47.716,32.007h0c-.5-4.333-3.75-8.083-7.75-8.75H38.3l-1.083-5.666a.458.458,0,0,0-.25-.417l-5.666-6.5a.412.412,0,0,0-.583.583l5.75,6.583,1,5.416H35.883c-3.917.667-7.25,4.5-7.75,8.833a.979.979,0,0,0-.833.917v1.667a.925.925,0,0,0,.917.917h.167v.25l.667,4.75h0v.083l2.667,19.5a.908.908,0,0,0,.917.833h11a.908.908,0,0,0,.917-.833l2-16.833h0l.917-7.583v-.25h.167a.925.925,0,0,0,.917-.917V32.924A1.175,1.175,0,0,0,47.716,32.007ZM35.883,24.091h4c3.5.667,6.5,4.083,7,7.916H31.3l.25-1a6.812,6.812,0,0,1,4.416-4.5.4.4,0,1,0-.25-.75,7.859,7.859,0,0,0-5,5,6.242,6.242,0,0,0-.333,1.333H28.8C29.467,28.091,32.466,24.674,35.883,24.091Zm10.666,11.5v.083l-.833,7.25h-8a.417.417,0,1,0,0,.833h7.916L43.716,60.09a.082.082,0,0,1-.083.083h-11a.082.082,0,0,1-.083-.083L29.967,41.007H37.8a.417.417,0,0,0,0-.833h-8l-.583-4.5c0-.083,0-.083.083-.167Zm1.083-1a.082.082,0,0,1-.083.083H28.217a.082.082,0,0,1-.083-.083V32.924a.082.082,0,0,1,.083-.083H47.549a.082.082,0,0,1,.083.083v1.667Z" transform="translate(-27.3 -10.55)"/>
        <path id="Path_18-2" data-name="Path 18" d="M34.4,53.517a.394.394,0,0,0,.417.417H43.15a.417.417,0,1,0,0-.833H34.817A.394.394,0,0,0,34.4,53.517Z" transform="translate(-28.484 -17.643)"/>
      </g>
    </g>
    <g id="joe-product-icon_juice-3" data-name="joe-product-icon_juice" transform="translate(169 721.295)">
      <g id="Group_9-3" data-name="Group 9" transform="translate(0 0)">
        <path id="Path_17-3" data-name="Path 17" d="M47.716,32.007h0c-.5-4.333-3.75-8.083-7.75-8.75H38.3l-1.083-5.666a.458.458,0,0,0-.25-.417l-5.666-6.5a.412.412,0,0,0-.583.583l5.75,6.583,1,5.416H35.883c-3.917.667-7.25,4.5-7.75,8.833a.979.979,0,0,0-.833.917v1.667a.925.925,0,0,0,.917.917h.167v.25l.667,4.75h0v.083l2.667,19.5a.908.908,0,0,0,.917.833h11a.908.908,0,0,0,.917-.833l2-16.833h0l.917-7.583v-.25h.167a.925.925,0,0,0,.917-.917V32.924A1.175,1.175,0,0,0,47.716,32.007ZM35.883,24.091h4c3.5.667,6.5,4.083,7,7.916H31.3l.25-1a6.812,6.812,0,0,1,4.416-4.5.4.4,0,1,0-.25-.75,7.859,7.859,0,0,0-5,5,6.242,6.242,0,0,0-.333,1.333H28.8C29.467,28.091,32.466,24.674,35.883,24.091Zm10.666,11.5v.083l-.833,7.25h-8a.417.417,0,1,0,0,.833h7.916L43.716,60.09a.082.082,0,0,1-.083.083h-11a.082.082,0,0,1-.083-.083L29.967,41.007H37.8a.417.417,0,0,0,0-.833h-8l-.583-4.5c0-.083,0-.083.083-.167Zm1.083-1a.082.082,0,0,1-.083.083H28.217a.082.082,0,0,1-.083-.083V32.924a.082.082,0,0,1,.083-.083H47.549a.082.082,0,0,1,.083.083v1.667Z" transform="translate(-27.3 -10.55)"/>
        <path id="Path_18-3" data-name="Path 18" d="M34.4,53.517a.394.394,0,0,0,.417.417H43.15a.417.417,0,1,0,0-.833H34.817A.394.394,0,0,0,34.4,53.517Z" transform="translate(-28.484 -17.643)"/>
      </g>
    </g>
    <g id="joe-product-icon_juice-4" data-name="joe-product-icon_juice" transform="translate(251 721.295)">
      <g id="Group_9-4" data-name="Group 9" transform="translate(0 0)">
        <path id="Path_17-4" data-name="Path 17" d="M47.716,32.007h0c-.5-4.333-3.75-8.083-7.75-8.75H38.3l-1.083-5.666a.458.458,0,0,0-.25-.417l-5.666-6.5a.412.412,0,0,0-.583.583l5.75,6.583,1,5.416H35.883c-3.917.667-7.25,4.5-7.75,8.833a.979.979,0,0,0-.833.917v1.667a.925.925,0,0,0,.917.917h.167v.25l.667,4.75h0v.083l2.667,19.5a.908.908,0,0,0,.917.833h11a.908.908,0,0,0,.917-.833l2-16.833h0l.917-7.583v-.25h.167a.925.925,0,0,0,.917-.917V32.924A1.175,1.175,0,0,0,47.716,32.007ZM35.883,24.091h4c3.5.667,6.5,4.083,7,7.916H31.3l.25-1a6.812,6.812,0,0,1,4.416-4.5.4.4,0,1,0-.25-.75,7.859,7.859,0,0,0-5,5,6.242,6.242,0,0,0-.333,1.333H28.8C29.467,28.091,32.466,24.674,35.883,24.091Zm10.666,11.5v.083l-.833,7.25h-8a.417.417,0,1,0,0,.833h7.916L43.716,60.09a.082.082,0,0,1-.083.083h-11a.082.082,0,0,1-.083-.083L29.967,41.007H37.8a.417.417,0,0,0,0-.833h-8l-.583-4.5c0-.083,0-.083.083-.167Zm1.083-1a.082.082,0,0,1-.083.083H28.217a.082.082,0,0,1-.083-.083V32.924a.082.082,0,0,1,.083-.083H47.549a.082.082,0,0,1,.083.083v1.667Z" transform="translate(-27.3 -10.55)"/>
        <path id="Path_18-4" data-name="Path 18" d="M34.4,53.517a.394.394,0,0,0,.417.417H43.15a.417.417,0,1,0,0-.833H34.817A.394.394,0,0,0,34.4,53.517Z" transform="translate(-28.484 -17.643)"/>
      </g>
    </g>
    <g id="joe-product-icon_juice-5" data-name="joe-product-icon_juice" transform="translate(333 721.295)">
      <g id="Group_9-5" data-name="Group 9" transform="translate(0 0)">
        <path id="Path_17-5" data-name="Path 17" d="M47.716,32.007h0c-.5-4.333-3.75-8.083-7.75-8.75H38.3l-1.083-5.666a.458.458,0,0,0-.25-.417l-5.666-6.5a.412.412,0,0,0-.583.583l5.75,6.583,1,5.416H35.883c-3.917.667-7.25,4.5-7.75,8.833a.979.979,0,0,0-.833.917v1.667a.925.925,0,0,0,.917.917h.167v.25l.667,4.75h0v.083l2.667,19.5a.908.908,0,0,0,.917.833h11a.908.908,0,0,0,.917-.833l2-16.833h0l.917-7.583v-.25h.167a.925.925,0,0,0,.917-.917V32.924A1.175,1.175,0,0,0,47.716,32.007ZM35.883,24.091h4c3.5.667,6.5,4.083,7,7.916H31.3l.25-1a6.812,6.812,0,0,1,4.416-4.5.4.4,0,1,0-.25-.75,7.859,7.859,0,0,0-5,5,6.242,6.242,0,0,0-.333,1.333H28.8C29.467,28.091,32.466,24.674,35.883,24.091Zm10.666,11.5v.083l-.833,7.25h-8a.417.417,0,1,0,0,.833h7.916L43.716,60.09a.082.082,0,0,1-.083.083h-11a.082.082,0,0,1-.083-.083L29.967,41.007H37.8a.417.417,0,0,0,0-.833h-8l-.583-4.5c0-.083,0-.083.083-.167Zm1.083-1a.082.082,0,0,1-.083.083H28.217a.082.082,0,0,1-.083-.083V32.924a.082.082,0,0,1,.083-.083H47.549a.082.082,0,0,1,.083.083v1.667Z" transform="translate(-27.3 -10.55)"/>
        <path id="Path_18-5" data-name="Path 18" d="M34.4,53.517a.394.394,0,0,0,.417.417H43.15a.417.417,0,1,0,0-.833H34.817A.394.394,0,0,0,34.4,53.517Z" transform="translate(-28.484 -17.643)"/>
      </g>
    </g>
    <g id="joe-product-icon_juice-6" data-name="joe-product-icon_juice" transform="translate(415 721.295)">
      <g id="Group_9-6" data-name="Group 9" transform="translate(0 0)">
        <path id="Path_17-6" data-name="Path 17" d="M47.716,32.007h0c-.5-4.333-3.75-8.083-7.75-8.75H38.3l-1.083-5.666a.458.458,0,0,0-.25-.417l-5.666-6.5a.412.412,0,0,0-.583.583l5.75,6.583,1,5.416H35.883c-3.917.667-7.25,4.5-7.75,8.833a.979.979,0,0,0-.833.917v1.667a.925.925,0,0,0,.917.917h.167v.25l.667,4.75h0v.083l2.667,19.5a.908.908,0,0,0,.917.833h11a.908.908,0,0,0,.917-.833l2-16.833h0l.917-7.583v-.25h.167a.925.925,0,0,0,.917-.917V32.924A1.175,1.175,0,0,0,47.716,32.007ZM35.883,24.091h4c3.5.667,6.5,4.083,7,7.916H31.3l.25-1a6.812,6.812,0,0,1,4.416-4.5.4.4,0,1,0-.25-.75,7.859,7.859,0,0,0-5,5,6.242,6.242,0,0,0-.333,1.333H28.8C29.467,28.091,32.466,24.674,35.883,24.091Zm10.666,11.5v.083l-.833,7.25h-8a.417.417,0,1,0,0,.833h7.916L43.716,60.09a.082.082,0,0,1-.083.083h-11a.082.082,0,0,1-.083-.083L29.967,41.007H37.8a.417.417,0,0,0,0-.833h-8l-.583-4.5c0-.083,0-.083.083-.167Zm1.083-1a.082.082,0,0,1-.083.083H28.217a.082.082,0,0,1-.083-.083V32.924a.082.082,0,0,1,.083-.083H47.549a.082.082,0,0,1,.083.083v1.667Z" transform="translate(-27.3 -10.55)"/>
        <path id="Path_18-6" data-name="Path 18" d="M34.4,53.517a.394.394,0,0,0,.417.417H43.15a.417.417,0,1,0,0-.833H34.817A.394.394,0,0,0,34.4,53.517Z" transform="translate(-28.484 -17.643)"/>
      </g>
    </g>
    <text id="_255_kr" data-name="255 kr" class="cls-4" transform="translate(373 612)"><tspan x="0" y="32">255 kr</tspan></text>
    <text id="_330_kr" data-name="330 kr" class="cls-5" transform="translate(374 659)"><tspan x="0" y="32">330 kr</tspan></text>
    <text id="_JOEANDTHEJUICE_JOEANDTHEJUICE_JOEJUICE.COM_" data-name="#JOEANDTHEJUICE  |  @JOEANDTHEJUICE  |  JOEJUICE.COM " class="cls-6" transform="translate(123 790)"><tspan x="0" y="9" xml:space="preserve">#JOEANDTHEJUICE  |  @JOEANDTHEJUICE  |  JOEJUICE.COM </tspan></text>
    <g id="Ellipse_4" data-name="Ellipse 4" class="cls-7" transform="translate(456 786)">
      <circle class="cls-11" cx="15" cy="15" r="15"/>
      <circle class="cls-12" cx="15" cy="15" r="14.5"/>
    </g>
    <line id="Line_12" data-name="Line 12" class="cls-7" x2="14" transform="translate(464.5 801.5)"/>
    <line id="Line_13" data-name="Line 13" class="cls-7" y2="14" transform="translate(471.5 794.5)"/>
    <g id="a8a7e8aaaec4f29003dae50dd72da3d8" transform="translate(26.668 776.668)">
      <path id="Path_33" data-name="Path 33" class="cls-8" d="M20.613,20.613H10V10H20.613Zm-8.63-1.983h6.644V11.983H11.983V18.63Z"/>
      <path id="Path_34" data-name="Path 34" class="cls-8" d="M132.4,132.4h3.539v3.539H132.4Z" transform="translate(-118.861 -118.861)"/>
      <path id="Path_35" data-name="Path 35" class="cls-8" d="M20.613,632.445H10V621.8H20.613Zm-8.63-1.983h6.644v-6.678H11.983v6.678Z" transform="translate(0 -594.113)"/>
      <path id="Path_36" data-name="Path 36" class="cls-8" d="M132.4,745.3h3.539v3.5H132.4Z" transform="translate(-118.861 -714.042)"/>
      <path id="Path_37" data-name="Path 37" class="cls-8" d="M632.445,20.613H621.8V10h10.645Zm-8.662-1.983h6.678V11.983h-6.678Z" transform="translate(-594.113)"/>
      <path id="Path_38" data-name="Path 38" class="cls-8" d="M745.3,132.4h3.5v3.539h-3.5Z" transform="translate(-714.042 -118.861)"/>
      <path id="Path_39" data-name="Path 39" class="cls-8" d="M10,377.1h3.539v3.57H10Z" transform="translate(0 -356.487)"/>
      <path id="Path_40" data-name="Path 40" class="cls-8" d="M254.7,500.6h3.539v3.5H254.7v-3.5Z" transform="translate(-237.626 -476.416)"/>
      <path id="Path_41" data-name="Path 41" class="cls-8" d="M500.6,10h3.5v3.539h-3.5Z" transform="translate(-476.416)"/>
      <path id="Path_42" data-name="Path 42" class="cls-8" d="M377.1,254.7h3.57v3.539H377.1Z" transform="translate(-356.487 -237.626)"/>
      <path id="Path_43" data-name="Path 43" class="cls-8" d="M500.6,866.5h3.5v3.57h-3.5Z" transform="translate(-476.416 -831.738)"/>
      <path id="Path_44" data-name="Path 44" class="cls-8" d="M745.3,866.5h7.074v3.57H745.3Z" transform="translate(-714.042 -831.738)"/>
      <path id="Path_45" data-name="Path 45" class="cls-8" d="M500.6,621.8h7.074v3.57H500.6Z" transform="translate(-476.416 -594.113)"/>
      <path id="Path_46" data-name="Path 46" class="cls-8" d="M745.3,621.8h3.5v7.074h-3.5Z" transform="translate(-714.042 -594.113)"/>
      <path id="Path_47" data-name="Path 47" class="cls-8" d="M855.1,621.8H859v3.57h-3.9Z" transform="translate(-820.668 -594.113)"/>
      <path id="Path_48" data-name="Path 48" class="cls-8" d="M500.6,377.1h3.5v3.57h-3.5Z" transform="translate(-476.416 -356.487)"/>
      <path id="Path_49" data-name="Path 49" class="cls-8" d="M621.8,500.6h3.57v3.5H621.8v-3.5Z" transform="translate(-594.113 -476.416)"/>
      <path id="Path_50" data-name="Path 50" class="cls-8" d="M745.3,377.1h3.5v3.57h-3.5Z" transform="translate(-714.042 -356.487)"/>
      <path id="Path_51" data-name="Path 51" class="cls-8" d="M866.5,500.6h3.57v3.5H866.5v-3.5Z" transform="translate(-831.738 -476.416)"/>
    </g>
    <text id="_5_X_SIGNATURE_JUICES_JOEGURTS_EKSTRA_INGREDIENT" data-name="5 X SIGNATURE JUICES / JOEGURTS + EKSTRA INGREDIENT" class="cls-9" transform="translate(100 660)"><tspan x="0" y="16">5 X SIGNATURE JUICES / </tspan><tspan x="0" y="36">JOEGURTS + EKSTRA INGREDIENT</tspan></text>
    <line id="Line_33" data-name="Line 33" class="cls-10" x2="104" y2="30" transform="translate(373.5 662.5)"/>
    <line id="Line_32" data-name="Line 32" class="cls-10" y1="30" x2="102" transform="translate(373.5 662.5)"/>
  </g>
</svg>
