<svg xmlns="http://www.w3.org/2000/svg" xmlns:xlink="http://www.w3.org/1999/xlink" viewBox="0 0 489 268">
  <defs>
    <style>
      .cls-1 {
        fill: #f5a24c;
        stroke: #f5a24c;
      }

      .cls-2 {
        font-size: 25px;
      }

      .cls-2, .cls-4, .cls-5 {
        font-family: Roboto-Bold, Roboto;
        font-weight: 700;
      }

      .cls-3, .cls-8, .cls-9 {
        fill: #fff;
      }

      .cls-10, .cls-3, .cls-7 {
        stroke: #fff;
      }

      .cls-4, .cls-5 {
        font-size: 35px;
      }

      .cls-5, .cls-6 {
        fill: #5c5c5c;
      }

      .cls-6 {
        font-size: 10px;
        font-family: Roboto-Light, Roboto;
        font-weight: 300;
      }

      .cls-10, .cls-12, .cls-7 {
        fill: none;
      }

      .cls-9 {
        font-size: 17px;
        font-family: Roboto-Regular, Roboto;
      }

      .cls-10 {
        stroke-width: 3px;
      }

      .cls-11 {
        stroke: none;
      }

      .cls-13 {
        filter: url(#Rectangle_1466);
      }
    </style>
    <filter id="Rectangle_1466" x="0" y="0" width="489" height="268" filterUnits="userSpaceOnUse">
      <feOffset dx="4" dy="4" input="SourceAlpha"/>
      <feGaussianBlur stdDeviation="2" result="blur"/>
      <feFlood flood-opacity="0.161"/>
      <feComposite operator="in" in2="blur"/>
      <feComposite in="SourceGraphic"/>
    </filter>
  </defs>
  <g id="Group_31" data-name="Group 31" transform="translate(-20 -295)">
    <g class="cls-13" transform="matrix(1, 0, 0, 1, 20, 295)">
      <g id="Rectangle_1466-2" data-name="Rectangle 1466" class="cls-1" transform="translate(2 2)">
        <rect class="cls-11" width="477" height="256" rx="18"/>
        <rect class="cls-12" x="0.5" y="0.5" width="476" height="255" rx="17.5"/>
      </g>
    </g>
    <g id="joe-product-icon_juice" transform="translate(38.328 305.575)">
      <g id="Group_9" data-name="Group 9" transform="translate(0 0)">
        <path id="Path_17" data-name="Path 17" d="M74.064,59.7h0c-1.145-9.925-8.589-18.515-17.751-20.042H52.5L50.014,26.679a1.05,1.05,0,0,0-.573-.954L36.462,10.836a.945.945,0,1,0-1.336,1.336L48.3,27.251l2.29,12.407H46.96c-8.971,1.527-16.606,10.307-17.751,20.232a2.243,2.243,0,0,0-1.909,2.1v3.817a2.118,2.118,0,0,0,2.1,2.1h.382v.573l1.527,10.88h0v.191l6.108,44.664a2.081,2.081,0,0,0,2.1,1.909h25.2a2.081,2.081,0,0,0,2.1-1.909l4.581-38.556h0l2.1-17.369v-.573h.382a2.118,2.118,0,0,0,2.1-2.1V61.8A2.69,2.69,0,0,0,74.064,59.7ZM46.96,41.567h9.162C64.138,43.094,71.01,50.92,72.155,59.7H36.462l.573-2.29A15.6,15.6,0,0,1,47.151,47.1a.905.905,0,1,0-.573-1.718A18,18,0,0,0,35.126,56.837a14.3,14.3,0,0,0-.763,3.054H30.736C32.263,50.729,39.134,42.9,46.96,41.567Zm24.432,26.34V68.1L69.483,84.7H51.159a.954.954,0,1,0,0,1.909H69.292L64.9,124.024a.187.187,0,0,1-.191.191h-25.2a.187.187,0,0,1-.191-.191l-5.917-43.71H51.35a.954.954,0,1,0,0-1.909H33.026L31.69,68.1c0-.191,0-.191.191-.382Zm2.481-2.29a.187.187,0,0,1-.191.191H29.4a.187.187,0,0,1-.191-.191V61.8a.187.187,0,0,1,.191-.191H73.682a.187.187,0,0,1,.191.191v3.817Z" transform="translate(-27.3 -10.55)"/>
        <path id="Path_18" data-name="Path 18" d="M34.4,54.054a.9.9,0,0,0,.954.954H54.442a.954.954,0,1,0,0-1.909H35.354A.9.9,0,0,0,34.4,54.054Z" transform="translate(-20.848 28.116)"/>
      </g>
    </g>
    <text id="MIGHTY_JUICE" data-name="MIGHTY JUICE" class="cls-2" transform="translate(100 338)"><tspan x="0" y="23">MIGHTY JUICE</tspan></text>
    <g id="Group_14" data-name="Group 14" transform="translate(-102 170)">
      <g id="Rectangle_1460" data-name="Rectangle 1460" class="cls-3" transform="translate(167 271)">
        <rect class="cls-11" width="63" height="60"/>
        <rect class="cls-12" x="0.5" y="0.5" width="62" height="59"/>
      </g>
      <g id="Rectangle_1461" data-name="Rectangle 1461" class="cls-3" transform="translate(249 271)">
        <rect class="cls-11" width="63" height="60"/>
        <rect class="cls-12" x="0.5" y="0.5" width="62" height="59"/>
      </g>
      <g id="Rectangle_1462" data-name="Rectangle 1462" class="cls-3" transform="translate(331 271)">
        <rect class="cls-11" width="63" height="60"/>
        <rect class="cls-12" x="0.5" y="0.5" width="62" height="59"/>
      </g>
      <g id="Rectangle_1463" data-name="Rectangle 1463" class="cls-3" transform="translate(413 271)">
        <rect class="cls-11" width="63" height="60"/>
        <rect class="cls-12" x="0.5" y="0.5" width="62" height="59"/>
      </g>
      <g id="Rectangle_1464" data-name="Rectangle 1464" class="cls-3" transform="translate(495 271)">
        <rect class="cls-11" width="63" height="60"/>
        <rect class="cls-12" x="0.5" y="0.5" width="62" height="59"/>
      </g>
    </g>
    <g id="joe-product-icon_juice-2" data-name="joe-product-icon_juice" transform="translate(87 445.295)">
      <g id="Group_9-2" data-name="Group 9" transform="translate(0 0)">
        <path id="Path_17-2" data-name="Path 17" d="M47.716,32.007h0c-.5-4.333-3.75-8.083-7.75-8.75H38.3l-1.083-5.666a.458.458,0,0,0-.25-.417l-5.666-6.5a.412.412,0,0,0-.583.583l5.75,6.583,1,5.416H35.883c-3.917.667-7.25,4.5-7.75,8.833a.979.979,0,0,0-.833.917v1.667a.925.925,0,0,0,.917.917h.167v.25l.667,4.75h0v.083l2.667,19.5a.908.908,0,0,0,.917.833h11a.908.908,0,0,0,.917-.833l2-16.833h0l.917-7.583v-.25h.167a.925.925,0,0,0,.917-.917V32.924A1.175,1.175,0,0,0,47.716,32.007ZM35.883,24.091h4c3.5.667,6.5,4.083,7,7.916H31.3l.25-1a6.812,6.812,0,0,1,4.416-4.5.4.4,0,1,0-.25-.75,7.859,7.859,0,0,0-5,5,6.242,6.242,0,0,0-.333,1.333H28.8C29.467,28.091,32.466,24.674,35.883,24.091Zm10.666,11.5v.083l-.833,7.25h-8a.417.417,0,1,0,0,.833h7.916L43.716,60.09a.082.082,0,0,1-.083.083h-11a.082.082,0,0,1-.083-.083L29.967,41.007H37.8a.417.417,0,0,0,0-.833h-8l-.583-4.5c0-.083,0-.083.083-.167Zm1.083-1a.082.082,0,0,1-.083.083H28.217a.082.082,0,0,1-.083-.083V32.924a.082.082,0,0,1,.083-.083H47.549a.082.082,0,0,1,.083.083v1.667Z" transform="translate(-27.3 -10.55)"/>
        <path id="Path_18-2" data-name="Path 18" d="M34.4,53.517a.394.394,0,0,0,.417.417H43.15a.417.417,0,1,0,0-.833H34.817A.394.394,0,0,0,34.4,53.517Z" transform="translate(-28.484 -17.643)"/>
      </g>
    </g>
    <g id="joe-product-icon_juice-3" data-name="joe-product-icon_juice" transform="translate(169 445.295)">
      <g id="Group_9-3" data-name="Group 9" transform="translate(0 0)">
        <path id="Path_17-3" data-name="Path 17" d="M47.716,32.007h0c-.5-4.333-3.75-8.083-7.75-8.75H38.3l-1.083-5.666a.458.458,0,0,0-.25-.417l-5.666-6.5a.412.412,0,0,0-.583.583l5.75,6.583,1,5.416H35.883c-3.917.667-7.25,4.5-7.75,8.833a.979.979,0,0,0-.833.917v1.667a.925.925,0,0,0,.917.917h.167v.25l.667,4.75h0v.083l2.667,19.5a.908.908,0,0,0,.917.833h11a.908.908,0,0,0,.917-.833l2-16.833h0l.917-7.583v-.25h.167a.925.925,0,0,0,.917-.917V32.924A1.175,1.175,0,0,0,47.716,32.007ZM35.883,24.091h4c3.5.667,6.5,4.083,7,7.916H31.3l.25-1a6.812,6.812,0,0,1,4.416-4.5.4.4,0,1,0-.25-.75,7.859,7.859,0,0,0-5,5,6.242,6.242,0,0,0-.333,1.333H28.8C29.467,28.091,32.466,24.674,35.883,24.091Zm10.666,11.5v.083l-.833,7.25h-8a.417.417,0,1,0,0,.833h7.916L43.716,60.09a.082.082,0,0,1-.083.083h-11a.082.082,0,0,1-.083-.083L29.967,41.007H37.8a.417.417,0,0,0,0-.833h-8l-.583-4.5c0-.083,0-.083.083-.167Zm1.083-1a.082.082,0,0,1-.083.083H28.217a.082.082,0,0,1-.083-.083V32.924a.082.082,0,0,1,.083-.083H47.549a.082.082,0,0,1,.083.083v1.667Z" transform="translate(-27.3 -10.55)"/>
        <path id="Path_18-3" data-name="Path 18" d="M34.4,53.517a.394.394,0,0,0,.417.417H43.15a.417.417,0,1,0,0-.833H34.817A.394.394,0,0,0,34.4,53.517Z" transform="translate(-28.484 -17.643)"/>
      </g>
    </g>
    <g id="joe-product-icon_juice-4" data-name="joe-product-icon_juice" transform="translate(251 445.295)">
      <g id="Group_9-4" data-name="Group 9" transform="translate(0 0)">
        <path id="Path_17-4" data-name="Path 17" d="M47.716,32.007h0c-.5-4.333-3.75-8.083-7.75-8.75H38.3l-1.083-5.666a.458.458,0,0,0-.25-.417l-5.666-6.5a.412.412,0,0,0-.583.583l5.75,6.583,1,5.416H35.883c-3.917.667-7.25,4.5-7.75,8.833a.979.979,0,0,0-.833.917v1.667a.925.925,0,0,0,.917.917h.167v.25l.667,4.75h0v.083l2.667,19.5a.908.908,0,0,0,.917.833h11a.908.908,0,0,0,.917-.833l2-16.833h0l.917-7.583v-.25h.167a.925.925,0,0,0,.917-.917V32.924A1.175,1.175,0,0,0,47.716,32.007ZM35.883,24.091h4c3.5.667,6.5,4.083,7,7.916H31.3l.25-1a6.812,6.812,0,0,1,4.416-4.5.4.4,0,1,0-.25-.75,7.859,7.859,0,0,0-5,5,6.242,6.242,0,0,0-.333,1.333H28.8C29.467,28.091,32.466,24.674,35.883,24.091Zm10.666,11.5v.083l-.833,7.25h-8a.417.417,0,1,0,0,.833h7.916L43.716,60.09a.082.082,0,0,1-.083.083h-11a.082.082,0,0,1-.083-.083L29.967,41.007H37.8a.417.417,0,0,0,0-.833h-8l-.583-4.5c0-.083,0-.083.083-.167Zm1.083-1a.082.082,0,0,1-.083.083H28.217a.082.082,0,0,1-.083-.083V32.924a.082.082,0,0,1,.083-.083H47.549a.082.082,0,0,1,.083.083v1.667Z" transform="translate(-27.3 -10.55)"/>
        <path id="Path_18-4" data-name="Path 18" d="M34.4,53.517a.394.394,0,0,0,.417.417H43.15a.417.417,0,1,0,0-.833H34.817A.394.394,0,0,0,34.4,53.517Z" transform="translate(-28.484 -17.643)"/>
      </g>
    </g>
    <g id="joe-product-icon_juice-5" data-name="joe-product-icon_juice" transform="translate(333 445.295)">
      <g id="Group_9-5" data-name="Group 9" transform="translate(0 0)">
        <path id="Path_17-5" data-name="Path 17" d="M47.716,32.007h0c-.5-4.333-3.75-8.083-7.75-8.75H38.3l-1.083-5.666a.458.458,0,0,0-.25-.417l-5.666-6.5a.412.412,0,0,0-.583.583l5.75,6.583,1,5.416H35.883c-3.917.667-7.25,4.5-7.75,8.833a.979.979,0,0,0-.833.917v1.667a.925.925,0,0,0,.917.917h.167v.25l.667,4.75h0v.083l2.667,19.5a.908.908,0,0,0,.917.833h11a.908.908,0,0,0,.917-.833l2-16.833h0l.917-7.583v-.25h.167a.925.925,0,0,0,.917-.917V32.924A1.175,1.175,0,0,0,47.716,32.007ZM35.883,24.091h4c3.5.667,6.5,4.083,7,7.916H31.3l.25-1a6.812,6.812,0,0,1,4.416-4.5.4.4,0,1,0-.25-.75,7.859,7.859,0,0,0-5,5,6.242,6.242,0,0,0-.333,1.333H28.8C29.467,28.091,32.466,24.674,35.883,24.091Zm10.666,11.5v.083l-.833,7.25h-8a.417.417,0,1,0,0,.833h7.916L43.716,60.09a.082.082,0,0,1-.083.083h-11a.082.082,0,0,1-.083-.083L29.967,41.007H37.8a.417.417,0,0,0,0-.833h-8l-.583-4.5c0-.083,0-.083.083-.167Zm1.083-1a.082.082,0,0,1-.083.083H28.217a.082.082,0,0,1-.083-.083V32.924a.082.082,0,0,1,.083-.083H47.549a.082.082,0,0,1,.083.083v1.667Z" transform="translate(-27.3 -10.55)"/>
        <path id="Path_18-5" data-name="Path 18" d="M34.4,53.517a.394.394,0,0,0,.417.417H43.15a.417.417,0,1,0,0-.833H34.817A.394.394,0,0,0,34.4,53.517Z" transform="translate(-28.484 -17.643)"/>
      </g>
    </g>
    <g id="joe-product-icon_juice-6" data-name="joe-product-icon_juice" transform="translate(415 445.295)">
      <g id="Group_9-6" data-name="Group 9" transform="translate(0 0)">
        <path id="Path_17-6" data-name="Path 17" d="M47.716,32.007h0c-.5-4.333-3.75-8.083-7.75-8.75H38.3l-1.083-5.666a.458.458,0,0,0-.25-.417l-5.666-6.5a.412.412,0,0,0-.583.583l5.75,6.583,1,5.416H35.883c-3.917.667-7.25,4.5-7.75,8.833a.979.979,0,0,0-.833.917v1.667a.925.925,0,0,0,.917.917h.167v.25l.667,4.75h0v.083l2.667,19.5a.908.908,0,0,0,.917.833h11a.908.908,0,0,0,.917-.833l2-16.833h0l.917-7.583v-.25h.167a.925.925,0,0,0,.917-.917V32.924A1.175,1.175,0,0,0,47.716,32.007ZM35.883,24.091h4c3.5.667,6.5,4.083,7,7.916H31.3l.25-1a6.812,6.812,0,0,1,4.416-4.5.4.4,0,1,0-.25-.75,7.859,7.859,0,0,0-5,5,6.242,6.242,0,0,0-.333,1.333H28.8C29.467,28.091,32.466,24.674,35.883,24.091Zm10.666,11.5v.083l-.833,7.25h-8a.417.417,0,1,0,0,.833h7.916L43.716,60.09a.082.082,0,0,1-.083.083h-11a.082.082,0,0,1-.083-.083L29.967,41.007H37.8a.417.417,0,0,0,0-.833h-8l-.583-4.5c0-.083,0-.083.083-.167Zm1.083-1a.082.082,0,0,1-.083.083H28.217a.082.082,0,0,1-.083-.083V32.924a.082.082,0,0,1,.083-.083H47.549a.082.082,0,0,1,.083.083v1.667Z" transform="translate(-27.3 -10.55)"/>
        <path id="Path_18-6" data-name="Path 18" d="M34.4,53.517a.394.394,0,0,0,.417.417H43.15a.417.417,0,1,0,0-.833H34.817A.394.394,0,0,0,34.4,53.517Z" transform="translate(-28.484 -17.643)"/>
      </g>
    </g>
    <text id="_220_kr" data-name="220 kr" class="cls-4" transform="translate(376 332)"><tspan x="0" y="32">220 kr</tspan></text>
    <text id="_290_kr" data-name="290 kr" class="cls-5" transform="translate(376 378)"><tspan x="0" y="32">290 kr</tspan></text>
    <text id="_JOEANDTHEJUICE_JOEANDTHEJUICE_JOEJUICE.COM_" data-name="#JOEANDTHEJUICE  |  @JOEANDTHEJUICE  |  JOEJUICE.COM " class="cls-6" transform="translate(123 514)"><tspan x="0" y="9" xml:space="preserve">#JOEANDTHEJUICE  |  @JOEANDTHEJUICE  |  JOEJUICE.COM </tspan></text>
    <g id="Ellipse_3" data-name="Ellipse 3" class="cls-7" transform="translate(456 510)">
      <circle class="cls-11" cx="15" cy="15" r="15"/>
      <circle class="cls-12" cx="15" cy="15" r="14.5"/>
    </g>
    <line id="Line_8" data-name="Line 8" class="cls-7" x2="14" transform="translate(464.5 525.5)"/>
    <line id="Line_9" data-name="Line 9" class="cls-7" y2="14" transform="translate(471.5 518.5)"/>
    <g id="a8a7e8aaaec4f29003dae50dd72da3d8" transform="translate(26.668 500.668)">
      <path id="Path_33" data-name="Path 33" class="cls-8" d="M20.613,20.613H10V10H20.613Zm-8.63-1.983h6.644V11.983H11.983V18.63Z"/>
      <path id="Path_34" data-name="Path 34" class="cls-8" d="M132.4,132.4h3.539v3.539H132.4Z" transform="translate(-118.861 -118.861)"/>
      <path id="Path_35" data-name="Path 35" class="cls-8" d="M20.613,632.445H10V621.8H20.613Zm-8.63-1.983h6.644v-6.678H11.983v6.678Z" transform="translate(0 -594.113)"/>
      <path id="Path_36" data-name="Path 36" class="cls-8" d="M132.4,745.3h3.539v3.5H132.4Z" transform="translate(-118.861 -714.042)"/>
      <path id="Path_37" data-name="Path 37" class="cls-8" d="M632.445,20.613H621.8V10h10.645Zm-8.662-1.983h6.678V11.983h-6.678Z" transform="translate(-594.113)"/>
      <path id="Path_38" data-name="Path 38" class="cls-8" d="M745.3,132.4h3.5v3.539h-3.5Z" transform="translate(-714.042 -118.861)"/>
      <path id="Path_39" data-name="Path 39" class="cls-8" d="M10,377.1h3.539v3.57H10Z" transform="translate(0 -356.487)"/>
      <path id="Path_40" data-name="Path 40" class="cls-8" d="M254.7,500.6h3.539v3.5H254.7v-3.5Z" transform="translate(-237.626 -476.416)"/>
      <path id="Path_41" data-name="Path 41" class="cls-8" d="M500.6,10h3.5v3.539h-3.5Z" transform="translate(-476.416)"/>
      <path id="Path_42" data-name="Path 42" class="cls-8" d="M377.1,254.7h3.57v3.539H377.1Z" transform="translate(-356.487 -237.626)"/>
      <path id="Path_43" data-name="Path 43" class="cls-8" d="M500.6,866.5h3.5v3.57h-3.5Z" transform="translate(-476.416 -831.738)"/>
      <path id="Path_44" data-name="Path 44" class="cls-8" d="M745.3,866.5h7.074v3.57H745.3Z" transform="translate(-714.042 -831.738)"/>
      <path id="Path_45" data-name="Path 45" class="cls-8" d="M500.6,621.8h7.074v3.57H500.6Z" transform="translate(-476.416 -594.113)"/>
      <path id="Path_46" data-name="Path 46" class="cls-8" d="M745.3,621.8h3.5v7.074h-3.5Z" transform="translate(-714.042 -594.113)"/>
      <path id="Path_47" data-name="Path 47" class="cls-8" d="M855.1,621.8H859v3.57h-3.9Z" transform="translate(-820.668 -594.113)"/>
      <path id="Path_48" data-name="Path 48" class="cls-8" d="M500.6,377.1h3.5v3.57h-3.5Z" transform="translate(-476.416 -356.487)"/>
      <path id="Path_49" data-name="Path 49" class="cls-8" d="M621.8,500.6h3.57v3.5H621.8v-3.5Z" transform="translate(-594.113 -476.416)"/>
      <path id="Path_50" data-name="Path 50" class="cls-8" d="M745.3,377.1h3.5v3.57h-3.5Z" transform="translate(-714.042 -356.487)"/>
      <path id="Path_51" data-name="Path 51" class="cls-8" d="M866.5,500.6h3.57v3.5H866.5v-3.5Z" transform="translate(-831.738 -476.416)"/>
    </g>
    <text id="_5_X_JUICES_SHAKES_16oz_EXTRA_INGREDIENT" data-name="5 X JUICES/SHAKES (16oz) + EXTRA INGREDIENT" class="cls-9" transform="translate(100 378)"><tspan x="0" y="16">5 X JUICES/SHAKES (16oz) </tspan><tspan x="0" y="36">+ EXTRA INGREDIENT</tspan></text>
    <g id="Symbol_9_1" data-name="Symbol 9 – 1">
      <line id="Line_30" data-name="Line 30" class="cls-10" x2="104" y2="30" transform="translate(374.5 383.5)"/>
      <line id="Line_31" data-name="Line 31" class="cls-10" y1="30" x2="102" transform="translate(374.5 383.5)"/>
    </g>
  </g>
</svg>
