<svg xmlns="http://www.w3.org/2000/svg" xmlns:xlink="http://www.w3.org/1999/xlink" viewBox="0 0 489 268">
  <defs>
    <style>
      .cls-1, .cls-11 {
        fill: #fff299;
      }

      .cls-2 {
        font-size: 14px;
        font-family: Roboto-Regular, Roboto;
      }

      .cls-3, .cls-8 {
        fill: #fff;
      }

      .cls-3, .cls-7 {
        stroke: #fff;
      }

      .cls-4 {
        font-size: 16px;
        font-family: Roboto-Bold, Roboto;
        font-weight: 700;
      }

      .cls-12, .cls-5, .cls-7 {
        fill: none;
      }

      .cls-5 {
        stroke: #707070;
      }

      .cls-6 {
        fill: #707070;
        font-size: 10px;
      }

      .cls-6, .cls-9 {
        font-family: Roboto-Light, Roboto;
        font-weight: 300;
      }

      .cls-9 {
        font-size: 12px;
      }

      .cls-10, .cls-11 {
        stroke: none;
      }

      .cls-13 {
        filter: url(#Path_55);
      }
    </style>
    <filter id="Path_55" x="0" y="0" width="489" height="268" filterUnits="userSpaceOnUse">
      <feOffset dx="4" dy="4" input="SourceAlpha"/>
      <feGaussianBlur stdDeviation="2" result="blur"/>
      <feFlood flood-opacity="0.161"/>
      <feComposite operator="in" in2="blur"/>
      <feComposite in="SourceGraphic"/>
    </filter>
  </defs>
  <g id="Group_26" data-name="Group 26" transform="translate(-534 -295)">
    <g class="cls-13" transform="matrix(1, 0, 0, 1, 534, 295)">
      <g id="Path_55-2" data-name="Path 55" class="cls-1" transform="translate(2 2)">
        <path class="cls-10" d="M 459 255.5 L 18 255.5 C 13.32558822631836 255.5 8.930941581726074 253.6797027587891 5.625647068023682 250.3743591308594 C 2.320294141769409 247.0690612792969 0.5 242.6744079589844 0.5 238 L 0.5 18 C 0.5 13.32558822631836 2.320294141769409 8.930941581726074 5.625647068023682 5.625647068023682 C 8.930941581726074 2.320294141769409 13.32558822631836 0.5 18 0.5 L 459 0.5 C 463.6744079589844 0.5 468.0690612792969 2.320294141769409 471.3743591308594 5.625647068023682 C 474.6797180175781 8.930941581726074 476.5 13.32558822631836 476.5 18 L 476.5 238 C 476.5 242.6744079589844 474.6797180175781 247.0690612792969 471.3743591308594 250.3743591308594 C 468.0690612792969 253.6797027587891 463.6744079589844 255.5 459 255.5 Z"/>
        <path class="cls-11" d="M 459 255 C 463.5408935546875 255 467.8099365234375 253.2317047119141 471.0208129882812 250.0208282470703 C 474.2317199707031 246.8099365234375 476 242.5408782958984 476 238 L 476 18 C 476 13.4591178894043 474.2317199707031 9.190058708190918 471.0208129882812 5.97917652130127 C 467.8099365234375 2.768294095993042 463.5408935546875 1 459 1 L 18 1 C 13.4591178894043 1 9.190058708190918 2.768294095993042 5.97917652130127 5.97917652130127 C 2.768294095993042 9.190058708190918 1 13.4591178894043 1 18 L 1 238 C 1 242.5408782958984 2.768294095993042 246.8099365234375 5.97917652130127 250.0208282470703 C 9.190058708190918 253.2317047119141 13.4591178894043 255 18 255 L 459 255 M 459 256 L 18 256 C 8.058882713317871 256 0 247.9411163330078 0 238 L 0 18 C 0 8.058882713317871 8.058882713317871 0 18 0 L 459 0 C 468.9411315917969 0 477 8.058882713317871 477 18 L 477 238 C 477 247.9411163330078 468.9411315917969 256 459 256 Z"/>
      </g>
    </g>
    <text id="COFFEE" class="cls-2" transform="translate(590 319)"><tspan x="0" y="13">COFFEE</tspan></text>
    <g id="Group_18" data-name="Group 18" transform="translate(412 170)">
      <g id="Rectangle_1460" data-name="Rectangle 1460" class="cls-3" transform="translate(167 271)">
        <rect class="cls-10" width="63" height="60"/>
        <rect class="cls-12" x="0.5" y="0.5" width="62" height="59"/>
      </g>
      <g id="Rectangle_1461" data-name="Rectangle 1461" class="cls-3" transform="translate(249 271)">
        <rect class="cls-10" width="63" height="60"/>
        <rect class="cls-12" x="0.5" y="0.5" width="62" height="59"/>
      </g>
      <g id="Rectangle_1462" data-name="Rectangle 1462" class="cls-3" transform="translate(331 271)">
        <rect class="cls-10" width="63" height="60"/>
        <rect class="cls-12" x="0.5" y="0.5" width="62" height="59"/>
      </g>
      <g id="Rectangle_1463" data-name="Rectangle 1463" class="cls-3" transform="translate(413 271)">
        <rect class="cls-10" width="63" height="60"/>
        <rect class="cls-12" x="0.5" y="0.5" width="62" height="59"/>
      </g>
      <g id="Rectangle_1464" data-name="Rectangle 1464" class="cls-3" transform="translate(495 271)">
        <rect class="cls-10" width="63" height="60"/>
        <rect class="cls-12" x="0.5" y="0.5" width="62" height="59"/>
      </g>
    </g>
    <text id="PRICE" class="cls-2" transform="translate(557 381)"><tspan x="0" y="13">PRICE</tspan></text>
    <text id="NORMAL_PRICE" data-name="NORMAL PRICE" class="cls-2" transform="translate(557 406)"><tspan x="0" y="13">NORMAL PRICE</tspan></text>
    <text id="_145_kr" data-name="145 kr" class="cls-4" transform="translate(943 379)"><tspan x="0" y="15">145 kr</tspan></text>
    <text id="_190_kr" data-name="190 kr" class="cls-4" transform="translate(944 404)"><tspan x="0" y="15">190 kr</tspan></text>
    <line id="Line_22" data-name="Line 22" class="cls-5" x2="50" y2="22" transform="translate(940.5 402.5)"/>
    <line id="Line_23" data-name="Line 23" class="cls-5" y1="23" x2="50" transform="translate(940.5 402.5)"/>
    <text id="_JOEANDTHEJUICE_JOEANDTHEJUICE_JOEJUICE.COM_" data-name="#JOEANDTHEJUICE  |  @JOEANDTHEJUICE  |  JOEJUICE.COM " class="cls-6" transform="translate(637 514)"><tspan x="0" y="9" xml:space="preserve">#JOEANDTHEJUICE  |  @JOEANDTHEJUICE  |  JOEJUICE.COM </tspan></text>
    <g id="Ellipse_7" data-name="Ellipse 7" class="cls-7" transform="translate(979 519)">
      <circle class="cls-10" cx="10.5" cy="10.5" r="10.5"/>
      <circle class="cls-12" cx="10.5" cy="10.5" r="10"/>
    </g>
    <line id="Line_24" data-name="Line 24" class="cls-7" x2="14" transform="translate(982.5 529.5)"/>
    <line id="Line_25" data-name="Line 25" class="cls-7" y2="14" transform="translate(989.5 522.5)"/>
    <g id="a8a7e8aaaec4f29003dae50dd72da3d8" transform="translate(540.668 508.668)">
      <path id="Path_33" data-name="Path 33" class="cls-8" d="M17.616,17.616H10V10h7.616Zm-6.193-1.423h4.768v-4.77H11.423v4.77Z"/>
      <path id="Path_34" data-name="Path 34" class="cls-8" d="M132.4,132.4h2.539v2.539H132.4Z" transform="translate(-119.861 -119.861)"/>
      <path id="Path_35" data-name="Path 35" class="cls-8" d="M17.616,629.439H10V621.8h7.616Zm-6.193-1.423h4.768v-4.793H11.423v4.793Z" transform="translate(0 -599.107)"/>
      <path id="Path_36" data-name="Path 36" class="cls-8" d="M132.4,745.3h2.539v2.515H132.4Z" transform="translate(-119.861 -720.044)"/>
      <path id="Path_37" data-name="Path 37" class="cls-8" d="M629.439,17.616H621.8V10h7.639Zm-6.216-1.423h4.793v-4.77h-4.793Z" transform="translate(-599.107)"/>
      <path id="Path_38" data-name="Path 38" class="cls-8" d="M745.3,132.4h2.515v2.539H745.3Z" transform="translate(-720.044 -119.861)"/>
      <path id="Path_39" data-name="Path 39" class="cls-8" d="M10,377.1h2.539v2.562H10Z" transform="translate(0 -359.484)"/>
      <path id="Path_40" data-name="Path 40" class="cls-8" d="M254.7,500.6h2.539v2.515H254.7V500.6Z" transform="translate(-239.623 -480.421)"/>
      <path id="Path_41" data-name="Path 41" class="cls-8" d="M500.6,10h2.515v2.539H500.6Z" transform="translate(-480.421)"/>
      <path id="Path_42" data-name="Path 42" class="cls-8" d="M377.1,254.7h2.562v2.539H377.1Z" transform="translate(-359.484 -239.623)"/>
      <path id="Path_43" data-name="Path 43" class="cls-8" d="M500.6,866.5h2.515v2.562H500.6Z" transform="translate(-480.421 -838.73)"/>
      <path id="Path_44" data-name="Path 44" class="cls-8" d="M745.3,866.5h5.077v2.562H745.3Z" transform="translate(-720.044 -838.73)"/>
      <path id="Path_45" data-name="Path 45" class="cls-8" d="M500.6,621.8h5.077v2.562H500.6Z" transform="translate(-480.421 -599.107)"/>
      <path id="Path_46" data-name="Path 46" class="cls-8" d="M745.3,621.8h2.515v5.077H745.3Z" transform="translate(-720.044 -599.107)"/>
      <path id="Path_47" data-name="Path 47" class="cls-8" d="M855.1,621.8h2.8v2.562h-2.8Z" transform="translate(-827.566 -599.107)"/>
      <path id="Path_48" data-name="Path 48" class="cls-8" d="M500.6,377.1h2.515v2.562H500.6Z" transform="translate(-480.421 -359.484)"/>
      <path id="Path_49" data-name="Path 49" class="cls-8" d="M621.8,500.6h2.562v2.515H621.8V500.6Z" transform="translate(-599.107 -480.421)"/>
      <path id="Path_50" data-name="Path 50" class="cls-8" d="M745.3,377.1h2.515v2.562H745.3Z" transform="translate(-720.044 -359.484)"/>
      <path id="Path_51" data-name="Path 51" class="cls-8" d="M866.5,500.6h2.562v2.515H866.5V500.6Z" transform="translate(-838.73 -480.421)"/>
    </g>
    <g id="joe-product-icon_coffee" transform="translate(549.434 307)">
      <g id="Group_8" data-name="Group 8" transform="translate(0 0)">
        <path id="Path_12" data-name="Path 12" d="M53.891,44.7H28.5a1.214,1.214,0,0,0-1.2,1.2v2.189a1.214,1.214,0,0,0,1.2,1.2h.219l4.377,23.2a1.193,1.193,0,0,0,1.2,1.094H48.747a1.193,1.193,0,0,0,1.2-1.094l3.72-23.089h.219a1.214,1.214,0,0,0,1.2-1.2V46.013A1.242,1.242,0,0,0,53.891,44.7ZM48.857,72.385a.107.107,0,0,1-.109.109H34.3a.107.107,0,0,1-.109-.109L29.817,49.405H52.577ZM54,48.092a.107.107,0,0,1-.109.109H28.5a.107.107,0,0,1-.109-.109V45.9a.107.107,0,0,1,.109-.109H53.891A.107.107,0,0,1,54,45.9v2.189Z" transform="translate(-27.3 -19.489)"/>
        <path id="Path_13" data-name="Path 13" d="M38.2,43.808a.547.547,0,0,0,1.094,0,8.217,8.217,0,0,1,1.094-4.158,8.217,8.217,0,0,0,1.094-4.158,8.674,8.674,0,0,0-1.094-4.268,7.774,7.774,0,0,1-1.094-4.049,8.451,8.451,0,0,1,1.094-4.049l.328-.657a.563.563,0,0,0-.985-.547l-.328.657a9.941,9.941,0,0,0-1.2,4.486,9.289,9.289,0,0,0,1.2,4.6,6.857,6.857,0,0,1,.985,3.72,6.735,6.735,0,0,1-.985,3.611A11.061,11.061,0,0,0,38.2,43.808Z" transform="translate(-26.273 -21.661)"/>
        <path id="Path_14" data-name="Path 14" d="M42.3,43.044a.547.547,0,1,0,1.094,0,8.674,8.674,0,0,1,1.094-4.268,8.1,8.1,0,0,0,1.094-4.049,9.238,9.238,0,0,0-1.313-4.705H44.16a.563.563,0,0,0-.985.547l.109.109a8.513,8.513,0,0,1,1.2,4.158,6.624,6.624,0,0,1-.985,3.5A10.145,10.145,0,0,0,42.3,43.044Z" transform="translate(-25.886 -20.897)"/>
        <path id="Path_15" data-name="Path 15" d="M36.607,35.164a.547.547,0,1,0,1.094,0,8.434,8.434,0,0,0-1.2-4.049,8.2,8.2,0,0,1-1.2-4.268.547.547,0,0,0-1.094,0,9.238,9.238,0,0,0,1.313,4.705A7.4,7.4,0,0,1,36.607,35.164Z" transform="translate(-26.65 -21.223)"/>
      </g>
    </g>
    <g id="joe-product-icon_coffee-2" data-name="joe-product-icon_coffee" transform="translate(598 445.295)">
      <g id="Group_8-2" data-name="Group 8" transform="translate(0 0)">
        <path id="Path_12-2" data-name="Path 12" d="M50.479,44.7H28.349A1.089,1.089,0,0,0,27.3,45.808v2.015a1.089,1.089,0,0,0,1.049,1.108h.191l3.815,21.357A1.063,1.063,0,0,0,33.4,71.3H46a1.063,1.063,0,0,0,1.049-1.007l3.243-21.256h.191a1.089,1.089,0,0,0,1.049-1.108V45.909A1.119,1.119,0,0,0,50.479,44.7ZM46.091,70.187a.1.1,0,0,1-.1.1H33.4a.1.1,0,0,1-.1-.1L29.494,49.032h19.84Zm4.483-22.364a.1.1,0,0,1-.1.1H28.349c-.1,0-.1-.1-.1-.1V45.808a.1.1,0,0,1,.1-.1h22.13c.1,0,.1.1.1.1v2.015Z" transform="translate(-27.3 -21.491)"/>
        <path id="Path_13-2" data-name="Path 13" d="M38.2,42.05a.478.478,0,1,0,.954,0,7.889,7.889,0,0,1,.954-3.828,7.889,7.889,0,0,0,.954-3.828,8.333,8.333,0,0,0-.954-3.929,7.459,7.459,0,0,1-.954-3.727,8.114,8.114,0,0,1,.954-3.727l.286-.6A.693.693,0,0,0,40.2,21.7a.611.611,0,0,0-.668.2l-.286.6a9.547,9.547,0,0,0-1.049,4.13,8.92,8.92,0,0,0,1.049,4.231,6.582,6.582,0,0,1,.858,3.425,6.462,6.462,0,0,1-.858,3.324A10.638,10.638,0,0,0,38.2,42.05Z" transform="translate(-27.803 -21.661)"/>
        <path id="Path_14-2" data-name="Path 14" d="M42.3,41.99a.478.478,0,1,0,.954,0,8.333,8.333,0,0,1,.954-3.929,7.776,7.776,0,0,0,.954-3.727A8.86,8.86,0,0,0,44.017,30h-.1a.532.532,0,0,0-.668-.2.6.6,0,0,0-.191.705l.1.1a8.16,8.16,0,0,1,1.049,3.828,6.352,6.352,0,0,1-.858,3.224A9.749,9.749,0,0,0,42.3,41.99Z" transform="translate(-27.992 -21.601)"/>
        <path id="Path_15-2" data-name="Path 15" d="M36.3,34.46a.478.478,0,1,0,.954,0A8.081,8.081,0,0,0,36.2,30.733,7.86,7.86,0,0,1,35.154,26.8a.478.478,0,1,0-.954,0,8.86,8.86,0,0,0,1.145,4.332A7.086,7.086,0,0,1,36.3,34.46Z" transform="translate(-27.618 -21.626)"/>
      </g>
    </g>
    <g id="joe-product-icon_coffee-3" data-name="joe-product-icon_coffee" transform="translate(683 446.295)">
      <g id="Group_8-3" data-name="Group 8" transform="translate(0 0)">
        <path id="Path_12-3" data-name="Path 12" d="M50.479,44.7H28.349A1.089,1.089,0,0,0,27.3,45.808v2.015a1.089,1.089,0,0,0,1.049,1.108h.191l3.815,21.357A1.063,1.063,0,0,0,33.4,71.3H46a1.063,1.063,0,0,0,1.049-1.007l3.243-21.256h.191a1.089,1.089,0,0,0,1.049-1.108V45.909A1.119,1.119,0,0,0,50.479,44.7ZM46.091,70.187a.1.1,0,0,1-.1.1H33.4a.1.1,0,0,1-.1-.1L29.494,49.032h19.84Zm4.483-22.364a.1.1,0,0,1-.1.1H28.349c-.1,0-.1-.1-.1-.1V45.808a.1.1,0,0,1,.1-.1h22.13c.1,0,.1.1.1.1v2.015Z" transform="translate(-27.3 -21.491)"/>
        <path id="Path_13-3" data-name="Path 13" d="M38.2,42.05a.478.478,0,1,0,.954,0,7.889,7.889,0,0,1,.954-3.828,7.889,7.889,0,0,0,.954-3.828,8.333,8.333,0,0,0-.954-3.929,7.459,7.459,0,0,1-.954-3.727,8.114,8.114,0,0,1,.954-3.727l.286-.6A.693.693,0,0,0,40.2,21.7a.611.611,0,0,0-.668.2l-.286.6a9.547,9.547,0,0,0-1.049,4.13,8.92,8.92,0,0,0,1.049,4.231,6.582,6.582,0,0,1,.858,3.425,6.462,6.462,0,0,1-.858,3.324A10.638,10.638,0,0,0,38.2,42.05Z" transform="translate(-27.803 -21.661)"/>
        <path id="Path_14-3" data-name="Path 14" d="M42.3,41.99a.478.478,0,1,0,.954,0,8.333,8.333,0,0,1,.954-3.929,7.776,7.776,0,0,0,.954-3.727A8.86,8.86,0,0,0,44.017,30h-.1a.532.532,0,0,0-.668-.2.6.6,0,0,0-.191.705l.1.1a8.16,8.16,0,0,1,1.049,3.828,6.352,6.352,0,0,1-.858,3.224A9.749,9.749,0,0,0,42.3,41.99Z" transform="translate(-27.992 -21.601)"/>
        <path id="Path_15-3" data-name="Path 15" d="M36.3,34.46a.478.478,0,1,0,.954,0A8.081,8.081,0,0,0,36.2,30.733,7.86,7.86,0,0,1,35.154,26.8a.478.478,0,1,0-.954,0,8.86,8.86,0,0,0,1.145,4.332A7.086,7.086,0,0,1,36.3,34.46Z" transform="translate(-27.618 -21.626)"/>
      </g>
    </g>
    <g id="joe-product-icon_coffee-4" data-name="joe-product-icon_coffee" transform="translate(762 446.295)">
      <g id="Group_8-4" data-name="Group 8" transform="translate(0 0)">
        <path id="Path_12-4" data-name="Path 12" d="M50.479,44.7H28.349A1.089,1.089,0,0,0,27.3,45.808v2.015a1.089,1.089,0,0,0,1.049,1.108h.191l3.815,21.357A1.063,1.063,0,0,0,33.4,71.3H46a1.063,1.063,0,0,0,1.049-1.007l3.243-21.256h.191a1.089,1.089,0,0,0,1.049-1.108V45.909A1.119,1.119,0,0,0,50.479,44.7ZM46.091,70.187a.1.1,0,0,1-.1.1H33.4a.1.1,0,0,1-.1-.1L29.494,49.032h19.84Zm4.483-22.364a.1.1,0,0,1-.1.1H28.349c-.1,0-.1-.1-.1-.1V45.808a.1.1,0,0,1,.1-.1h22.13c.1,0,.1.1.1.1v2.015Z" transform="translate(-27.3 -21.491)"/>
        <path id="Path_13-4" data-name="Path 13" d="M38.2,42.05a.478.478,0,1,0,.954,0,7.889,7.889,0,0,1,.954-3.828,7.889,7.889,0,0,0,.954-3.828,8.333,8.333,0,0,0-.954-3.929,7.459,7.459,0,0,1-.954-3.727,8.114,8.114,0,0,1,.954-3.727l.286-.6A.693.693,0,0,0,40.2,21.7a.611.611,0,0,0-.668.2l-.286.6a9.547,9.547,0,0,0-1.049,4.13,8.92,8.92,0,0,0,1.049,4.231,6.582,6.582,0,0,1,.858,3.425,6.462,6.462,0,0,1-.858,3.324A10.638,10.638,0,0,0,38.2,42.05Z" transform="translate(-27.803 -21.661)"/>
        <path id="Path_14-4" data-name="Path 14" d="M42.3,41.99a.478.478,0,1,0,.954,0,8.333,8.333,0,0,1,.954-3.929,7.776,7.776,0,0,0,.954-3.727A8.86,8.86,0,0,0,44.017,30h-.1a.532.532,0,0,0-.668-.2.6.6,0,0,0-.191.705l.1.1a8.16,8.16,0,0,1,1.049,3.828,6.352,6.352,0,0,1-.858,3.224A9.749,9.749,0,0,0,42.3,41.99Z" transform="translate(-27.992 -21.601)"/>
        <path id="Path_15-4" data-name="Path 15" d="M36.3,34.46a.478.478,0,1,0,.954,0A8.081,8.081,0,0,0,36.2,30.733,7.86,7.86,0,0,1,35.154,26.8a.478.478,0,1,0-.954,0,8.86,8.86,0,0,0,1.145,4.332A7.086,7.086,0,0,1,36.3,34.46Z" transform="translate(-27.618 -21.626)"/>
      </g>
    </g>
    <g id="joe-product-icon_coffee-5" data-name="joe-product-icon_coffee" transform="translate(847 446.295)">
      <g id="Group_8-5" data-name="Group 8" transform="translate(0 0)">
        <path id="Path_12-5" data-name="Path 12" d="M50.479,44.7H28.349A1.089,1.089,0,0,0,27.3,45.808v2.015a1.089,1.089,0,0,0,1.049,1.108h.191l3.815,21.357A1.063,1.063,0,0,0,33.4,71.3H46a1.063,1.063,0,0,0,1.049-1.007l3.243-21.256h.191a1.089,1.089,0,0,0,1.049-1.108V45.909A1.119,1.119,0,0,0,50.479,44.7ZM46.091,70.187a.1.1,0,0,1-.1.1H33.4a.1.1,0,0,1-.1-.1L29.494,49.032h19.84Zm4.483-22.364a.1.1,0,0,1-.1.1H28.349c-.1,0-.1-.1-.1-.1V45.808a.1.1,0,0,1,.1-.1h22.13c.1,0,.1.1.1.1v2.015Z" transform="translate(-27.3 -21.491)"/>
        <path id="Path_13-5" data-name="Path 13" d="M38.2,42.05a.478.478,0,1,0,.954,0,7.889,7.889,0,0,1,.954-3.828,7.889,7.889,0,0,0,.954-3.828,8.333,8.333,0,0,0-.954-3.929,7.459,7.459,0,0,1-.954-3.727,8.114,8.114,0,0,1,.954-3.727l.286-.6A.693.693,0,0,0,40.2,21.7a.611.611,0,0,0-.668.2l-.286.6a9.547,9.547,0,0,0-1.049,4.13,8.92,8.92,0,0,0,1.049,4.231,6.582,6.582,0,0,1,.858,3.425,6.462,6.462,0,0,1-.858,3.324A10.638,10.638,0,0,0,38.2,42.05Z" transform="translate(-27.803 -21.661)"/>
        <path id="Path_14-5" data-name="Path 14" d="M42.3,41.99a.478.478,0,1,0,.954,0,8.333,8.333,0,0,1,.954-3.929,7.776,7.776,0,0,0,.954-3.727A8.86,8.86,0,0,0,44.017,30h-.1a.532.532,0,0,0-.668-.2.6.6,0,0,0-.191.705l.1.1a8.16,8.16,0,0,1,1.049,3.828,6.352,6.352,0,0,1-.858,3.224A9.749,9.749,0,0,0,42.3,41.99Z" transform="translate(-27.992 -21.601)"/>
        <path id="Path_15-5" data-name="Path 15" d="M36.3,34.46a.478.478,0,1,0,.954,0A8.081,8.081,0,0,0,36.2,30.733,7.86,7.86,0,0,1,35.154,26.8a.478.478,0,1,0-.954,0,8.86,8.86,0,0,0,1.145,4.332A7.086,7.086,0,0,1,36.3,34.46Z" transform="translate(-27.618 -21.626)"/>
      </g>
    </g>
    <g id="joe-product-icon_coffee-6" data-name="joe-product-icon_coffee" transform="translate(928 445.295)">
      <g id="Group_8-6" data-name="Group 8" transform="translate(0 0)">
        <path id="Path_12-6" data-name="Path 12" d="M50.479,44.7H28.349A1.089,1.089,0,0,0,27.3,45.808v2.015a1.089,1.089,0,0,0,1.049,1.108h.191l3.815,21.357A1.063,1.063,0,0,0,33.4,71.3H46a1.063,1.063,0,0,0,1.049-1.007l3.243-21.256h.191a1.089,1.089,0,0,0,1.049-1.108V45.909A1.119,1.119,0,0,0,50.479,44.7ZM46.091,70.187a.1.1,0,0,1-.1.1H33.4a.1.1,0,0,1-.1-.1L29.494,49.032h19.84Zm4.483-22.364a.1.1,0,0,1-.1.1H28.349c-.1,0-.1-.1-.1-.1V45.808a.1.1,0,0,1,.1-.1h22.13c.1,0,.1.1.1.1v2.015Z" transform="translate(-27.3 -21.491)"/>
        <path id="Path_13-6" data-name="Path 13" d="M38.2,42.05a.478.478,0,1,0,.954,0,7.889,7.889,0,0,1,.954-3.828,7.889,7.889,0,0,0,.954-3.828,8.333,8.333,0,0,0-.954-3.929,7.459,7.459,0,0,1-.954-3.727,8.114,8.114,0,0,1,.954-3.727l.286-.6A.693.693,0,0,0,40.2,21.7a.611.611,0,0,0-.668.2l-.286.6a9.547,9.547,0,0,0-1.049,4.13,8.92,8.92,0,0,0,1.049,4.231,6.582,6.582,0,0,1,.858,3.425,6.462,6.462,0,0,1-.858,3.324A10.638,10.638,0,0,0,38.2,42.05Z" transform="translate(-27.803 -21.661)"/>
        <path id="Path_14-6" data-name="Path 14" d="M42.3,41.99a.478.478,0,1,0,.954,0,8.333,8.333,0,0,1,.954-3.929,7.776,7.776,0,0,0,.954-3.727A8.86,8.86,0,0,0,44.017,30h-.1a.532.532,0,0,0-.668-.2.6.6,0,0,0-.191.705l.1.1a8.16,8.16,0,0,1,1.049,3.828,6.352,6.352,0,0,1-.858,3.224A9.749,9.749,0,0,0,42.3,41.99Z" transform="translate(-27.992 -21.601)"/>
        <path id="Path_15-6" data-name="Path 15" d="M36.3,34.46a.478.478,0,1,0,.954,0A8.081,8.081,0,0,0,36.2,30.733,7.86,7.86,0,0,1,35.154,26.8a.478.478,0,1,0-.954,0,8.86,8.86,0,0,0,1.145,4.332A7.086,7.086,0,0,1,36.3,34.46Z" transform="translate(-27.618 -21.626)"/>
      </g>
    </g>
    <text id="_10_X_COFFEE_PRODUCTS" data-name="10 X COFFEE PRODUCTS" class="cls-9" transform="translate(590 336)"><tspan x="0" y="11">10 X COFFEE </tspan><tspan x="0" y="25">PRODUCTS</tspan></text>
  </g>
</svg>
