<svg xmlns="http://www.w3.org/2000/svg" xmlns:xlink="http://www.w3.org/1999/xlink" viewBox="0 0 489 268">
  <defs>
    <style>
      .cls-1, .cls-10, .cls-13, .cls-3, .cls-4, .cls-5 {
        fill: #fff;
      }

      .cls-2 {
        font-size: 14px;
        font-family: Roboto-Regular, Roboto;
      }

      .cls-3, .cls-5 {
        stroke: #000;
      }

      .cls-3, .cls-4 {
        opacity: 0.2;
      }

      .cls-5 {
        opacity: 0.2;
      }

      .cls-6 {
        font-size: 16px;
        font-family: Roboto-Bold, Roboto;
        font-weight: 700;
      }

      .cls-14, .cls-7, .cls-9 {
        fill: none;
      }

      .cls-7 {
        stroke: #707070;
      }

      .cls-8 {
        fill: #707070;
        font-size: 10px;
      }

      .cls-11, .cls-8 {
        font-family: Roboto-Light, Roboto;
        font-weight: 300;
      }

      .cls-9 {
        stroke: #fff;
      }

      .cls-11 {
        font-size: 12px;
      }

      .cls-12, .cls-13, .cls-15 {
        stroke: none;
      }

      .cls-16 {
        filter: url(#Path_53);
      }
    </style>
    <filter id="Path_53" x="0" y="0" width="489" height="268" filterUnits="userSpaceOnUse">
      <feOffset dx="4" dy="4" input="SourceAlpha"/>
      <feGaussianBlur stdDeviation="2" result="blur"/>
      <feFlood flood-opacity="0.161"/>
      <feComposite operator="in" in2="blur"/>
      <feComposite in="SourceGraphic"/>
    </filter>
  </defs>
  <g id="Group_24" data-name="Group 24" transform="translate(-20 -847)">
    <g class="cls-16" transform="matrix(1, 0, 0, 1, 20, 847)">
      <g id="Path_53-2" data-name="Path 53" class="cls-1" transform="translate(2 2)">
        <path class="cls-12" d="M 459 255.5 L 18 255.5 C 13.32558822631836 255.5 8.930941581726074 253.6797027587891 5.625647068023682 250.3743591308594 C 2.320294141769409 247.0690612792969 0.5 242.6744079589844 0.5 238 L 0.5 18 C 0.5 13.32558822631836 2.320294141769409 8.930941581726074 5.625647068023682 5.625647068023682 C 8.930941581726074 2.320294141769409 13.32558822631836 0.5 18 0.5 L 459 0.5 C 463.6744079589844 0.5 468.0690612792969 2.320294141769409 471.3743591308594 5.625647068023682 C 474.6797180175781 8.930941581726074 476.5 13.32558822631836 476.5 18 L 476.5 238 C 476.5 242.6744079589844 474.6797180175781 247.0690612792969 471.3743591308594 250.3743591308594 C 468.0690612792969 253.6797027587891 463.6744079589844 255.5 459 255.5 Z"/>
        <path class="cls-13" d="M 459 255 C 463.5408935546875 255 467.8099365234375 253.2317047119141 471.0208129882812 250.0208282470703 C 474.2317199707031 246.8099365234375 476 242.5408782958984 476 238 L 476 18 C 476 13.4591178894043 474.2317199707031 9.190058708190918 471.0208129882812 5.97917652130127 C 467.8099365234375 2.768294095993042 463.5408935546875 1 459 1 L 18 1 C 13.4591178894043 1 9.190058708190918 2.768294095993042 5.97917652130127 5.97917652130127 C 2.768294095993042 9.190058708190918 1 13.4591178894043 1 18 L 1 238 C 1 242.5408782958984 2.768294095993042 246.8099365234375 5.97917652130127 250.0208282470703 C 9.190058708190918 253.2317047119141 13.4591178894043 255 18 255 L 459 255 M 459 256 L 18 256 C 8.058882713317871 256 0 247.9411163330078 0 238 L 0 18 C 0 8.058882713317871 8.058882713317871 0 18 0 L 459 0 C 468.9411315917969 0 477 8.058882713317871 477 18 L 477 238 C 477 247.9411163330078 468.9411315917969 256 459 256 Z"/>
      </g>
    </g>
    <g id="joe-product-icon_juice" transform="translate(38.328 857.575)">
      <g id="Group_9" data-name="Group 9" transform="translate(0 0)">
        <path id="Path_17" data-name="Path 17" d="M51.244,35.716h0c-.586-5.082-4.4-9.48-9.089-10.262H40.2L38.93,18.808a.537.537,0,0,0-.293-.489L31.991,10.7a.484.484,0,0,0-.684.684L38.05,19.1l1.173,6.353H37.366c-4.593.782-8.5,5.278-9.089,10.36a1.149,1.149,0,0,0-.977,1.075v1.955a1.085,1.085,0,0,0,1.075,1.075h.2v.293l.782,5.571h0v.1L32.48,68.749a1.065,1.065,0,0,0,1.075.977h12.9a1.065,1.065,0,0,0,1.075-.977l2.346-19.742h0l1.075-8.894v-.293h.2a1.085,1.085,0,0,0,1.075-1.075V36.791A1.377,1.377,0,0,0,51.244,35.716ZM37.366,26.431h4.691c4.1.782,7.623,4.789,8.209,9.284H31.991l.293-1.173a7.99,7.99,0,0,1,5.18-5.278.464.464,0,1,0-.293-.88,9.217,9.217,0,0,0-5.864,5.864,7.321,7.321,0,0,0-.391,1.564H29.059C29.841,31.122,33.359,27.115,37.366,26.431Zm12.51,13.487v.1l-.977,8.5H39.516a.489.489,0,1,0,0,.977H48.8L46.553,68.651a.1.1,0,0,1-.1.1h-12.9a.1.1,0,0,1-.1-.1l-3.03-22.381h9.187a.489.489,0,1,0,0-.977H30.232l-.684-5.278c0-.1,0-.1.1-.2Zm1.271-1.173a.1.1,0,0,1-.1.1H28.375a.1.1,0,0,1-.1-.1V36.791a.1.1,0,0,1,.1-.1H51.049a.1.1,0,0,1,.1.1v1.955Z" transform="translate(-27.3 -10.55)"/>
        <path id="Path_18" data-name="Path 18" d="M34.4,53.589a.462.462,0,0,0,.489.489h9.773a.489.489,0,1,0,0-.977H34.889A.462.462,0,0,0,34.4,53.589Z" transform="translate(-27.461 -11.515)"/>
      </g>
    </g>
    <text id="COMBI" class="cls-2" transform="translate(105 875)"><tspan x="0" y="13">COMBI</tspan></text>
    <g id="Group_16" data-name="Group 16" transform="translate(-102 722)">
      <g id="Rectangle_1460" data-name="Rectangle 1460" class="cls-3" transform="translate(167 271)">
        <rect class="cls-12" width="63" height="60"/>
        <rect class="cls-14" x="0.5" y="0.5" width="62" height="59"/>
      </g>
      <g id="Rectangle_1461" data-name="Rectangle 1461" class="cls-3" transform="translate(249 271)">
        <rect class="cls-12" width="63" height="60"/>
        <rect class="cls-14" x="0.5" y="0.5" width="62" height="59"/>
      </g>
      <g id="Path_54" data-name="Path 54" class="cls-4" transform="translate(331 271)">
        <path class="cls-12" d="M 62.5 59.5 L 0.5 59.5 L 0.5 0.5 L 62.5 0.5 L 62.5 36.9375 L 62.5 59.5 Z"/>
        <path class="cls-15" d="M 62 59 L 62 36.9375 L 62 1 L 1 1 L 1 59 L 62 59 M 63 60 L -3.552713678800501e-15 60 L -3.552713678800501e-15 -3.552713678800501e-15 L 63 -3.552713678800501e-15 L 63 36.9375 L 63 60 Z"/>
      </g>
      <g id="Rectangle_1463" data-name="Rectangle 1463" class="cls-3" transform="translate(413 271)">
        <rect class="cls-12" width="63" height="60"/>
        <rect class="cls-14" x="0.5" y="0.5" width="62" height="59"/>
      </g>
      <g id="Rectangle_1464" data-name="Rectangle 1464" class="cls-5" transform="translate(495 271)">
        <rect class="cls-12" width="63" height="60"/>
        <rect class="cls-14" x="0.5" y="0.5" width="62" height="59"/>
      </g>
    </g>
    <g id="joe-product-icon_juice-2" data-name="joe-product-icon_juice" transform="translate(74 997.295)">
      <g id="Group_9-2" data-name="Group 9" transform="translate(0 0)">
        <path id="Path_17-2" data-name="Path 17" d="M47.716,32.007h0c-.5-4.333-3.75-8.083-7.75-8.75H38.3l-1.083-5.666a.458.458,0,0,0-.25-.417l-5.666-6.5a.412.412,0,0,0-.583.583l5.75,6.583,1,5.416H35.883c-3.917.667-7.25,4.5-7.75,8.833a.979.979,0,0,0-.833.917v1.667a.925.925,0,0,0,.917.917h.167v.25l.667,4.75h0v.083l2.667,19.5a.908.908,0,0,0,.917.833h11a.908.908,0,0,0,.917-.833l2-16.833h0l.917-7.583v-.25h.167a.925.925,0,0,0,.917-.917V32.924A1.175,1.175,0,0,0,47.716,32.007ZM35.883,24.091h4c3.5.667,6.5,4.083,7,7.916H31.3l.25-1a6.812,6.812,0,0,1,4.416-4.5.4.4,0,1,0-.25-.75,7.859,7.859,0,0,0-5,5,6.242,6.242,0,0,0-.333,1.333H28.8C29.467,28.091,32.466,24.674,35.883,24.091Zm10.666,11.5v.083l-.833,7.25h-8a.417.417,0,1,0,0,.833h7.916L43.716,60.09a.082.082,0,0,1-.083.083h-11a.082.082,0,0,1-.083-.083L29.967,41.007H37.8a.417.417,0,0,0,0-.833h-8l-.583-4.5c0-.083,0-.083.083-.167Zm1.083-1a.082.082,0,0,1-.083.083H28.217a.082.082,0,0,1-.083-.083V32.924a.082.082,0,0,1,.083-.083H47.549a.082.082,0,0,1,.083.083v1.667Z" transform="translate(-27.3 -10.55)"/>
        <path id="Path_18-2" data-name="Path 18" d="M34.4,53.517a.394.394,0,0,0,.417.417H43.15a.417.417,0,1,0,0-.833H34.817A.394.394,0,0,0,34.4,53.517Z" transform="translate(-28.484 -17.643)"/>
      </g>
    </g>
    <g id="joe-product-icon_juice-3" data-name="joe-product-icon_juice" transform="translate(155 997.295)">
      <g id="Group_9-3" data-name="Group 9" transform="translate(0 0)">
        <path id="Path_17-3" data-name="Path 17" d="M47.716,32.007h0c-.5-4.333-3.75-8.083-7.75-8.75H38.3l-1.083-5.666a.458.458,0,0,0-.25-.417l-5.666-6.5a.412.412,0,0,0-.583.583l5.75,6.583,1,5.416H35.883c-3.917.667-7.25,4.5-7.75,8.833a.979.979,0,0,0-.833.917v1.667a.925.925,0,0,0,.917.917h.167v.25l.667,4.75h0v.083l2.667,19.5a.908.908,0,0,0,.917.833h11a.908.908,0,0,0,.917-.833l2-16.833h0l.917-7.583v-.25h.167a.925.925,0,0,0,.917-.917V32.924A1.175,1.175,0,0,0,47.716,32.007ZM35.883,24.091h4c3.5.667,6.5,4.083,7,7.916H31.3l.25-1a6.812,6.812,0,0,1,4.416-4.5.4.4,0,1,0-.25-.75,7.859,7.859,0,0,0-5,5,6.242,6.242,0,0,0-.333,1.333H28.8C29.467,28.091,32.466,24.674,35.883,24.091Zm10.666,11.5v.083l-.833,7.25h-8a.417.417,0,1,0,0,.833h7.916L43.716,60.09a.082.082,0,0,1-.083.083h-11a.082.082,0,0,1-.083-.083L29.967,41.007H37.8a.417.417,0,0,0,0-.833h-8l-.583-4.5c0-.083,0-.083.083-.167Zm1.083-1a.082.082,0,0,1-.083.083H28.217a.082.082,0,0,1-.083-.083V32.924a.082.082,0,0,1,.083-.083H47.549a.082.082,0,0,1,.083.083v1.667Z" transform="translate(-27.3 -10.55)"/>
        <path id="Path_18-3" data-name="Path 18" d="M34.4,53.517a.394.394,0,0,0,.417.417H43.15a.417.417,0,1,0,0-.833H34.817A.394.394,0,0,0,34.4,53.517Z" transform="translate(-28.484 -17.643)"/>
      </g>
    </g>
    <g id="joe-product-icon_juice-4" data-name="joe-product-icon_juice" transform="translate(238 997.295)">
      <g id="Group_9-4" data-name="Group 9" transform="translate(0 0)">
        <path id="Path_17-4" data-name="Path 17" d="M47.716,32.007h0c-.5-4.333-3.75-8.083-7.75-8.75H38.3l-1.083-5.666a.458.458,0,0,0-.25-.417l-5.666-6.5a.412.412,0,0,0-.583.583l5.75,6.583,1,5.416H35.883c-3.917.667-7.25,4.5-7.75,8.833a.979.979,0,0,0-.833.917v1.667a.925.925,0,0,0,.917.917h.167v.25l.667,4.75h0v.083l2.667,19.5a.908.908,0,0,0,.917.833h11a.908.908,0,0,0,.917-.833l2-16.833h0l.917-7.583v-.25h.167a.925.925,0,0,0,.917-.917V32.924A1.175,1.175,0,0,0,47.716,32.007ZM35.883,24.091h4c3.5.667,6.5,4.083,7,7.916H31.3l.25-1a6.812,6.812,0,0,1,4.416-4.5.4.4,0,1,0-.25-.75,7.859,7.859,0,0,0-5,5,6.242,6.242,0,0,0-.333,1.333H28.8C29.467,28.091,32.466,24.674,35.883,24.091Zm10.666,11.5v.083l-.833,7.25h-8a.417.417,0,1,0,0,.833h7.916L43.716,60.09a.082.082,0,0,1-.083.083h-11a.082.082,0,0,1-.083-.083L29.967,41.007H37.8a.417.417,0,0,0,0-.833h-8l-.583-4.5c0-.083,0-.083.083-.167Zm1.083-1a.082.082,0,0,1-.083.083H28.217a.082.082,0,0,1-.083-.083V32.924a.082.082,0,0,1,.083-.083H47.549a.082.082,0,0,1,.083.083v1.667Z" transform="translate(-27.3 -10.55)"/>
        <path id="Path_18-4" data-name="Path 18" d="M34.4,53.517a.394.394,0,0,0,.417.417H43.15a.417.417,0,1,0,0-.833H34.817A.394.394,0,0,0,34.4,53.517Z" transform="translate(-28.484 -17.643)"/>
      </g>
    </g>
    <g id="joe-product-icon_juice-5" data-name="joe-product-icon_juice" transform="translate(319 997.295)">
      <g id="Group_9-5" data-name="Group 9" transform="translate(0 0)">
        <path id="Path_17-5" data-name="Path 17" d="M47.716,32.007h0c-.5-4.333-3.75-8.083-7.75-8.75H38.3l-1.083-5.666a.458.458,0,0,0-.25-.417l-5.666-6.5a.412.412,0,0,0-.583.583l5.75,6.583,1,5.416H35.883c-3.917.667-7.25,4.5-7.75,8.833a.979.979,0,0,0-.833.917v1.667a.925.925,0,0,0,.917.917h.167v.25l.667,4.75h0v.083l2.667,19.5a.908.908,0,0,0,.917.833h11a.908.908,0,0,0,.917-.833l2-16.833h0l.917-7.583v-.25h.167a.925.925,0,0,0,.917-.917V32.924A1.175,1.175,0,0,0,47.716,32.007ZM35.883,24.091h4c3.5.667,6.5,4.083,7,7.916H31.3l.25-1a6.812,6.812,0,0,1,4.416-4.5.4.4,0,1,0-.25-.75,7.859,7.859,0,0,0-5,5,6.242,6.242,0,0,0-.333,1.333H28.8C29.467,28.091,32.466,24.674,35.883,24.091Zm10.666,11.5v.083l-.833,7.25h-8a.417.417,0,1,0,0,.833h7.916L43.716,60.09a.082.082,0,0,1-.083.083h-11a.082.082,0,0,1-.083-.083L29.967,41.007H37.8a.417.417,0,0,0,0-.833h-8l-.583-4.5c0-.083,0-.083.083-.167Zm1.083-1a.082.082,0,0,1-.083.083H28.217a.082.082,0,0,1-.083-.083V32.924a.082.082,0,0,1,.083-.083H47.549a.082.082,0,0,1,.083.083v1.667Z" transform="translate(-27.3 -10.55)"/>
        <path id="Path_18-5" data-name="Path 18" d="M34.4,53.517a.394.394,0,0,0,.417.417H43.15a.417.417,0,1,0,0-.833H34.817A.394.394,0,0,0,34.4,53.517Z" transform="translate(-28.484 -17.643)"/>
      </g>
    </g>
    <g id="joe-product-icon_juice-6" data-name="joe-product-icon_juice" transform="translate(402 997.295)">
      <g id="Group_9-6" data-name="Group 9" transform="translate(0 0)">
        <path id="Path_17-6" data-name="Path 17" d="M47.716,32.007h0c-.5-4.333-3.75-8.083-7.75-8.75H38.3l-1.083-5.666a.458.458,0,0,0-.25-.417l-5.666-6.5a.412.412,0,0,0-.583.583l5.75,6.583,1,5.416H35.883c-3.917.667-7.25,4.5-7.75,8.833a.979.979,0,0,0-.833.917v1.667a.925.925,0,0,0,.917.917h.167v.25l.667,4.75h0v.083l2.667,19.5a.908.908,0,0,0,.917.833h11a.908.908,0,0,0,.917-.833l2-16.833h0l.917-7.583v-.25h.167a.925.925,0,0,0,.917-.917V32.924A1.175,1.175,0,0,0,47.716,32.007ZM35.883,24.091h4c3.5.667,6.5,4.083,7,7.916H31.3l.25-1a6.812,6.812,0,0,1,4.416-4.5.4.4,0,1,0-.25-.75,7.859,7.859,0,0,0-5,5,6.242,6.242,0,0,0-.333,1.333H28.8C29.467,28.091,32.466,24.674,35.883,24.091Zm10.666,11.5v.083l-.833,7.25h-8a.417.417,0,1,0,0,.833h7.916L43.716,60.09a.082.082,0,0,1-.083.083h-11a.082.082,0,0,1-.083-.083L29.967,41.007H37.8a.417.417,0,0,0,0-.833h-8l-.583-4.5c0-.083,0-.083.083-.167Zm1.083-1a.082.082,0,0,1-.083.083H28.217a.082.082,0,0,1-.083-.083V32.924a.082.082,0,0,1,.083-.083H47.549a.082.082,0,0,1,.083.083v1.667Z" transform="translate(-27.3 -10.55)"/>
        <path id="Path_18-6" data-name="Path 18" d="M34.4,53.517a.394.394,0,0,0,.417.417H43.15a.417.417,0,1,0,0-.833H34.817A.394.394,0,0,0,34.4,53.517Z" transform="translate(-28.484 -17.643)"/>
      </g>
    </g>
    <text id="PRICE" class="cls-2" transform="translate(43 933)"><tspan x="0" y="13">PRICE</tspan></text>
    <text id="NORMAL_PRICE" data-name="NORMAL PRICE" class="cls-2" transform="translate(43 958)"><tspan x="0" y="13">NORMAL PRICE</tspan></text>
    <text id="_400_kr" data-name="400 kr" class="cls-6" transform="translate(429 931)"><tspan x="0" y="15">400 kr</tspan></text>
    <text id="_540_kr" data-name="540 kr" class="cls-6" transform="translate(430 956)"><tspan x="0" y="15">540 kr</tspan></text>
    <line id="Line_14" data-name="Line 14" class="cls-7" x2="50" y2="22" transform="translate(425.5 953.5)"/>
    <line id="Line_15" data-name="Line 15" class="cls-7" y1="23" x2="50" transform="translate(425.5 953.5)"/>
    <text id="_JOEANDTHEJUICE_JOEANDTHEJUICE_JOEJUICE.COM_" data-name="#JOEANDTHEJUICE  |  @JOEANDTHEJUICE  |  JOEJUICE.COM " class="cls-8" transform="translate(123 1066)"><tspan x="0" y="9" xml:space="preserve">#JOEANDTHEJUICE  |  @JOEANDTHEJUICE  |  JOEJUICE.COM </tspan></text>
    <g id="Ellipse_5" data-name="Ellipse 5" class="cls-9" transform="translate(465 1071)">
      <circle class="cls-12" cx="10.5" cy="10.5" r="10.5"/>
      <circle class="cls-14" cx="10.5" cy="10.5" r="10"/>
    </g>
    <line id="Line_16" data-name="Line 16" class="cls-9" x2="14" transform="translate(468.5 1081.5)"/>
    <line id="Line_17" data-name="Line 17" class="cls-9" y2="14" transform="translate(475.5 1074.5)"/>
    <g id="a8a7e8aaaec4f29003dae50dd72da3d8" transform="translate(26.668 1060.668)">
      <path id="Path_33" data-name="Path 33" class="cls-10" d="M17.616,17.616H10V10h7.616Zm-6.193-1.423h4.768v-4.77H11.423v4.77Z"/>
      <path id="Path_34" data-name="Path 34" class="cls-10" d="M132.4,132.4h2.539v2.539H132.4Z" transform="translate(-119.861 -119.861)"/>
      <path id="Path_35" data-name="Path 35" class="cls-10" d="M17.616,629.439H10V621.8h7.616Zm-6.193-1.423h4.768v-4.793H11.423v4.793Z" transform="translate(0 -599.107)"/>
      <path id="Path_36" data-name="Path 36" class="cls-10" d="M132.4,745.3h2.539v2.515H132.4Z" transform="translate(-119.861 -720.044)"/>
      <path id="Path_37" data-name="Path 37" class="cls-10" d="M629.439,17.616H621.8V10h7.639Zm-6.216-1.423h4.793v-4.77h-4.793Z" transform="translate(-599.107)"/>
      <path id="Path_38" data-name="Path 38" class="cls-10" d="M745.3,132.4h2.515v2.539H745.3Z" transform="translate(-720.044 -119.861)"/>
      <path id="Path_39" data-name="Path 39" class="cls-10" d="M10,377.1h2.539v2.562H10Z" transform="translate(0 -359.484)"/>
      <path id="Path_40" data-name="Path 40" class="cls-10" d="M254.7,500.6h2.539v2.515H254.7V500.6Z" transform="translate(-239.623 -480.421)"/>
      <path id="Path_41" data-name="Path 41" class="cls-10" d="M500.6,10h2.515v2.539H500.6Z" transform="translate(-480.421)"/>
      <path id="Path_42" data-name="Path 42" class="cls-10" d="M377.1,254.7h2.562v2.539H377.1Z" transform="translate(-359.484 -239.623)"/>
      <path id="Path_43" data-name="Path 43" class="cls-10" d="M500.6,866.5h2.515v2.562H500.6Z" transform="translate(-480.421 -838.73)"/>
      <path id="Path_44" data-name="Path 44" class="cls-10" d="M745.3,866.5h5.077v2.562H745.3Z" transform="translate(-720.044 -838.73)"/>
      <path id="Path_45" data-name="Path 45" class="cls-10" d="M500.6,621.8h5.077v2.562H500.6Z" transform="translate(-480.421 -599.107)"/>
      <path id="Path_46" data-name="Path 46" class="cls-10" d="M745.3,621.8h2.515v5.077H745.3Z" transform="translate(-720.044 -599.107)"/>
      <path id="Path_47" data-name="Path 47" class="cls-10" d="M855.1,621.8h2.8v2.562h-2.8Z" transform="translate(-827.566 -599.107)"/>
      <path id="Path_48" data-name="Path 48" class="cls-10" d="M500.6,377.1h2.515v2.562H500.6Z" transform="translate(-480.421 -359.484)"/>
      <path id="Path_49" data-name="Path 49" class="cls-10" d="M621.8,500.6h2.562v2.515H621.8V500.6Z" transform="translate(-599.107 -480.421)"/>
      <path id="Path_50" data-name="Path 50" class="cls-10" d="M745.3,377.1h2.515v2.562H745.3Z" transform="translate(-720.044 -359.484)"/>
      <path id="Path_51" data-name="Path 51" class="cls-10" d="M866.5,500.6h2.562v2.515H866.5V500.6Z" transform="translate(-838.73 -480.421)"/>
    </g>
    <g id="joe-product-icon_sandwich" transform="translate(67.526 867.17) rotate(21)">
      <g id="Group_10" data-name="Group 10" transform="translate(0)">
        <path id="Path_19" data-name="Path 19" d="M28.9,32.48a.514.514,0,0,0,.467.28h.187l7.005-2.522a.443.443,0,0,0-.28-.841l-7.005,2.522C28.992,32.013,28.8,32.293,28.9,32.48Z" transform="translate(-19.289 -20.828)"/>
        <path id="Path_20" data-name="Path 20" d="M38.771,34.179h.187l2.242-.841a.443.443,0,1,0-.28-.841l-2.242.841a.416.416,0,0,0-.28.56C38.4,34.085,38.584,34.179,38.771,34.179Z" transform="translate(-19.915 -21.032)"/>
        <path id="Path_21" data-name="Path 21" d="M58.483,57.749,50.824,36.827a.416.416,0,0,0-.56-.28h0a2.756,2.756,0,0,0-.187-1.868,2.834,2.834,0,0,0-1.214-1.588,2.614,2.614,0,0,1-.934-1.214,2.115,2.115,0,0,1-.093-1.494,3.605,3.605,0,0,0-.093-1.961,3.006,3.006,0,0,0-3.829-1.681h0l-1.214.467a2.4,2.4,0,0,1-1.4-.093,1.726,1.726,0,0,1-1.027-1.588.76.76,0,0,0-1.214-.56,1.718,1.718,0,0,1-1.868.187,1.636,1.636,0,0,1-1.027-1.588.7.7,0,0,0-.467-.654.908.908,0,0,0-.841.093,1.9,1.9,0,0,1-1.868.187,1.7,1.7,0,0,1-.934-1.027l-.56-1.588q0-.14-.28-.28a.284.284,0,0,0-.374,0l-9.807,3.456a4.02,4.02,0,0,0-2.055,1.868,3.264,3.264,0,0,0-.093,2.8l2.242,6.071h0l1.4,3.829h0l1.214,3.456-.747.28a.416.416,0,0,0-.28.56l9.06,24.845a.514.514,0,0,0,.467.28h.187l22.23-8.126L58.2,58.31C58.39,58.216,58.577,57.936,58.483,57.749ZM46.9,28.7a2.115,2.115,0,0,1,.093,1.494,3.605,3.605,0,0,0,.093,1.961A2.777,2.777,0,0,0,48.3,33.745a2.614,2.614,0,0,1,.934,1.214,2.115,2.115,0,0,1,.093,1.494.562.562,0,0,1-.093.374l-2.148.747-3.643-9.807.747-.28h0A2.19,2.19,0,0,1,46.9,28.7ZM19.908,25.993a2.748,2.748,0,0,1,1.494-1.4l9.34-3.362.374,1.121a2.748,2.748,0,0,0,1.4,1.494,2.618,2.618,0,0,0,2.615-.187,2.775,2.775,0,0,0,1.588,2.055,2.618,2.618,0,0,0,2.615-.187,2.582,2.582,0,0,0,1.588,2.055,2.517,2.517,0,0,0,1.588.28l3.643,9.9-7.846,2.9L34.2,38.789,41.2,36.267a.443.443,0,1,0-.28-.841l-8.593,3.082h0l-.28.187h0L24.672,41.4l-1.121-2.989L34.666,34.4a.416.416,0,0,0,.28-.56c-.093-.187-.374-.374-.56-.28L23.271,37.574,22.15,34.586l3.736-1.308a.443.443,0,1,0-.28-.841L21.87,33.745l-1.121-2.989,9.994-3.643a.443.443,0,0,0-.28-.841l-9.994,3.643-.654-1.868A2.282,2.282,0,0,1,19.908,25.993ZM37.842,50.651,33.825,39.723,48.77,46.634ZM32.518,66.622,23.831,42.712,32.7,39.442,37.094,51.4a.2.2,0,0,0,.187.187h0a.326.326,0,0,1,.187.093h.187l11.955-4.39,4.2,11.488Zm22.23-8.033-4.39-11.955v-.187l-.187-.187L39.523,41.4l10.554-3.829,7.285,20.081Z" transform="translate(-18.611 -20.225)"/>
      </g>
    </g>
    <g id="joe-product-icon_sandwich-2" data-name="joe-product-icon_sandwich" transform="translate(97.983 1006.527) rotate(20)">
      <g id="Group_10-2" data-name="Group 10" transform="translate(0)">
        <path id="Path_19-2" data-name="Path 19" d="M28.894,31.947a.426.426,0,0,0,.387.232h.155l5.808-2.091a.367.367,0,0,0-.232-.7L29.2,31.483C28.972,31.56,28.817,31.792,28.894,31.947Z" transform="translate(-20.926 -22.286)"/>
        <path id="Path_20-2" data-name="Path 20" d="M38.7,33.886h.155l1.859-.7a.367.367,0,0,0-.232-.7l-1.859.7a.345.345,0,0,0-.232.465C38.392,33.808,38.546,33.886,38.7,33.886Z" transform="translate(-23.066 -22.985)"/>
        <path id="Path_21-2" data-name="Path 21" d="M51.672,51.339,45.321,33.991a.345.345,0,0,0-.465-.232h0A2.285,2.285,0,0,0,44.7,32.21,2.35,2.35,0,0,0,43.7,30.893a2.168,2.168,0,0,1-.774-1.007,1.754,1.754,0,0,1-.077-1.239,2.989,2.989,0,0,0-.077-1.626,2.493,2.493,0,0,0-3.175-1.394h0l-1.007.387a1.992,1.992,0,0,1-1.162-.077,1.431,1.431,0,0,1-.852-1.317.63.63,0,0,0-1.007-.465,1.425,1.425,0,0,1-1.549.155,1.356,1.356,0,0,1-.852-1.317.582.582,0,0,0-.387-.542.753.753,0,0,0-.7.077,1.579,1.579,0,0,1-1.549.155,1.408,1.408,0,0,1-.774-.852l-.465-1.317q0-.116-.232-.232a.236.236,0,0,0-.31,0l-8.132,2.866a3.333,3.333,0,0,0-1.7,1.549,2.707,2.707,0,0,0-.077,2.323l1.859,5.034h0l1.162,3.175h0L22.862,38.1l-.62.232a.345.345,0,0,0-.232.465l7.512,20.6a.426.426,0,0,0,.387.232h.155L48.5,52.888,51.44,51.8C51.595,51.726,51.75,51.494,51.672,51.339Zm-9.6-24.086a1.754,1.754,0,0,1,.077,1.239,2.99,2.99,0,0,0,.077,1.626,2.3,2.3,0,0,0,1.007,1.317A2.168,2.168,0,0,1,44,32.442a1.754,1.754,0,0,1,.077,1.239.466.466,0,0,1-.077.31l-1.781.62L39.2,26.479l.62-.232h0A1.816,1.816,0,0,1,42.069,27.253ZM19.687,25.007a2.278,2.278,0,0,1,1.239-1.162l7.745-2.788.31.929a2.278,2.278,0,0,0,1.162,1.239,2.171,2.171,0,0,0,2.168-.155,2.3,2.3,0,0,0,1.317,1.7A2.171,2.171,0,0,0,35.8,24.62a2.141,2.141,0,0,0,1.317,1.7,2.087,2.087,0,0,0,1.317.232l3.02,8.209-6.505,2.4-3.408-1.549,5.808-2.091a.367.367,0,1,0-.232-.7l-7.125,2.556h0l-.232.155h0l-6.118,2.246-.929-2.478,9.216-3.33a.345.345,0,0,0,.232-.465c-.077-.155-.31-.31-.465-.232l-9.216,3.33-.929-2.478,3.1-1.084a.367.367,0,1,0-.232-.7l-3.1,1.084-.929-2.478,8.287-3.02a.367.367,0,0,0-.232-.7l-8.287,3.02-.542-1.549A1.892,1.892,0,0,1,19.687,25.007Zm14.87,20.446-3.33-9.061,12.391,5.731ZM30.142,58.7,22.94,38.87,30.3,36.16l3.64,9.913a.167.167,0,0,0,.155.155h0a.27.27,0,0,1,.155.077H34.4l9.913-3.64L47.8,52.191Zm18.432-6.66-3.64-9.913v-.155l-.155-.155-8.829-4.027L44.7,34.611l6.041,16.651Z" transform="translate(-18.611 -20.225)"/>
      </g>
    </g>
    <g id="joe-product-icon_sandwich-3" data-name="joe-product-icon_sandwich" transform="translate(178.983 1006.527) rotate(20)">
      <g id="Group_10-3" data-name="Group 10" transform="translate(0)">
        <path id="Path_19-3" data-name="Path 19" d="M28.894,31.947a.426.426,0,0,0,.387.232h.155l5.808-2.091a.367.367,0,0,0-.232-.7L29.2,31.483C28.972,31.56,28.817,31.792,28.894,31.947Z" transform="translate(-20.926 -22.286)"/>
        <path id="Path_20-3" data-name="Path 20" d="M38.7,33.886h.155l1.859-.7a.367.367,0,0,0-.232-.7l-1.859.7a.345.345,0,0,0-.232.465C38.392,33.808,38.546,33.886,38.7,33.886Z" transform="translate(-23.066 -22.985)"/>
        <path id="Path_21-3" data-name="Path 21" d="M51.672,51.339,45.321,33.991a.345.345,0,0,0-.465-.232h0A2.285,2.285,0,0,0,44.7,32.21,2.35,2.35,0,0,0,43.7,30.893a2.168,2.168,0,0,1-.774-1.007,1.754,1.754,0,0,1-.077-1.239,2.989,2.989,0,0,0-.077-1.626,2.493,2.493,0,0,0-3.175-1.394h0l-1.007.387a1.992,1.992,0,0,1-1.162-.077,1.431,1.431,0,0,1-.852-1.317.63.63,0,0,0-1.007-.465,1.425,1.425,0,0,1-1.549.155,1.356,1.356,0,0,1-.852-1.317.582.582,0,0,0-.387-.542.753.753,0,0,0-.7.077,1.579,1.579,0,0,1-1.549.155,1.408,1.408,0,0,1-.774-.852l-.465-1.317q0-.116-.232-.232a.236.236,0,0,0-.31,0l-8.132,2.866a3.333,3.333,0,0,0-1.7,1.549,2.707,2.707,0,0,0-.077,2.323l1.859,5.034h0l1.162,3.175h0L22.862,38.1l-.62.232a.345.345,0,0,0-.232.465l7.512,20.6a.426.426,0,0,0,.387.232h.155L48.5,52.888,51.44,51.8C51.595,51.726,51.75,51.494,51.672,51.339Zm-9.6-24.086a1.754,1.754,0,0,1,.077,1.239,2.99,2.99,0,0,0,.077,1.626,2.3,2.3,0,0,0,1.007,1.317A2.168,2.168,0,0,1,44,32.442a1.754,1.754,0,0,1,.077,1.239.466.466,0,0,1-.077.31l-1.781.62L39.2,26.479l.62-.232h0A1.816,1.816,0,0,1,42.069,27.253ZM19.687,25.007a2.278,2.278,0,0,1,1.239-1.162l7.745-2.788.31.929a2.278,2.278,0,0,0,1.162,1.239,2.171,2.171,0,0,0,2.168-.155,2.3,2.3,0,0,0,1.317,1.7A2.171,2.171,0,0,0,35.8,24.62a2.141,2.141,0,0,0,1.317,1.7,2.087,2.087,0,0,0,1.317.232l3.02,8.209-6.505,2.4-3.408-1.549,5.808-2.091a.367.367,0,1,0-.232-.7l-7.125,2.556h0l-.232.155h0l-6.118,2.246-.929-2.478,9.216-3.33a.345.345,0,0,0,.232-.465c-.077-.155-.31-.31-.465-.232l-9.216,3.33-.929-2.478,3.1-1.084a.367.367,0,1,0-.232-.7l-3.1,1.084-.929-2.478,8.287-3.02a.367.367,0,0,0-.232-.7l-8.287,3.02-.542-1.549A1.892,1.892,0,0,1,19.687,25.007Zm14.87,20.446-3.33-9.061,12.391,5.731ZM30.142,58.7,22.94,38.87,30.3,36.16l3.64,9.913a.167.167,0,0,0,.155.155h0a.27.27,0,0,1,.155.077H34.4l9.913-3.64L47.8,52.191Zm18.432-6.66-3.64-9.913v-.155l-.155-.155-8.829-4.027L44.7,34.611l6.041,16.651Z" transform="translate(-18.611 -20.225)"/>
      </g>
    </g>
    <g id="joe-product-icon_sandwich-4" data-name="joe-product-icon_sandwich" transform="translate(261.983 1006.527) rotate(20)">
      <g id="Group_10-4" data-name="Group 10" transform="translate(0)">
        <path id="Path_19-4" data-name="Path 19" d="M28.894,31.947a.426.426,0,0,0,.387.232h.155l5.808-2.091a.367.367,0,0,0-.232-.7L29.2,31.483C28.972,31.56,28.817,31.792,28.894,31.947Z" transform="translate(-20.926 -22.286)"/>
        <path id="Path_20-4" data-name="Path 20" d="M38.7,33.886h.155l1.859-.7a.367.367,0,0,0-.232-.7l-1.859.7a.345.345,0,0,0-.232.465C38.392,33.808,38.546,33.886,38.7,33.886Z" transform="translate(-23.066 -22.985)"/>
        <path id="Path_21-4" data-name="Path 21" d="M51.672,51.339,45.321,33.991a.345.345,0,0,0-.465-.232h0A2.285,2.285,0,0,0,44.7,32.21,2.35,2.35,0,0,0,43.7,30.893a2.168,2.168,0,0,1-.774-1.007,1.754,1.754,0,0,1-.077-1.239,2.989,2.989,0,0,0-.077-1.626,2.493,2.493,0,0,0-3.175-1.394h0l-1.007.387a1.992,1.992,0,0,1-1.162-.077,1.431,1.431,0,0,1-.852-1.317.63.63,0,0,0-1.007-.465,1.425,1.425,0,0,1-1.549.155,1.356,1.356,0,0,1-.852-1.317.582.582,0,0,0-.387-.542.753.753,0,0,0-.7.077,1.579,1.579,0,0,1-1.549.155,1.408,1.408,0,0,1-.774-.852l-.465-1.317q0-.116-.232-.232a.236.236,0,0,0-.31,0l-8.132,2.866a3.333,3.333,0,0,0-1.7,1.549,2.707,2.707,0,0,0-.077,2.323l1.859,5.034h0l1.162,3.175h0L22.862,38.1l-.62.232a.345.345,0,0,0-.232.465l7.512,20.6a.426.426,0,0,0,.387.232h.155L48.5,52.888,51.44,51.8C51.595,51.726,51.75,51.494,51.672,51.339Zm-9.6-24.086a1.754,1.754,0,0,1,.077,1.239,2.99,2.99,0,0,0,.077,1.626,2.3,2.3,0,0,0,1.007,1.317A2.168,2.168,0,0,1,44,32.442a1.754,1.754,0,0,1,.077,1.239.466.466,0,0,1-.077.31l-1.781.62L39.2,26.479l.62-.232h0A1.816,1.816,0,0,1,42.069,27.253ZM19.687,25.007a2.278,2.278,0,0,1,1.239-1.162l7.745-2.788.31.929a2.278,2.278,0,0,0,1.162,1.239,2.171,2.171,0,0,0,2.168-.155,2.3,2.3,0,0,0,1.317,1.7A2.171,2.171,0,0,0,35.8,24.62a2.141,2.141,0,0,0,1.317,1.7,2.087,2.087,0,0,0,1.317.232l3.02,8.209-6.505,2.4-3.408-1.549,5.808-2.091a.367.367,0,1,0-.232-.7l-7.125,2.556h0l-.232.155h0l-6.118,2.246-.929-2.478,9.216-3.33a.345.345,0,0,0,.232-.465c-.077-.155-.31-.31-.465-.232l-9.216,3.33-.929-2.478,3.1-1.084a.367.367,0,1,0-.232-.7l-3.1,1.084-.929-2.478,8.287-3.02a.367.367,0,0,0-.232-.7l-8.287,3.02-.542-1.549A1.892,1.892,0,0,1,19.687,25.007Zm14.87,20.446-3.33-9.061,12.391,5.731ZM30.142,58.7,22.94,38.87,30.3,36.16l3.64,9.913a.167.167,0,0,0,.155.155h0a.27.27,0,0,1,.155.077H34.4l9.913-3.64L47.8,52.191Zm18.432-6.66-3.64-9.913v-.155l-.155-.155-8.829-4.027L44.7,34.611l6.041,16.651Z" transform="translate(-18.611 -20.225)"/>
      </g>
    </g>
    <g id="joe-product-icon_sandwich-5" data-name="joe-product-icon_sandwich" transform="translate(342.983 1006.527) rotate(20)">
      <g id="Group_10-5" data-name="Group 10" transform="translate(0)">
        <path id="Path_19-5" data-name="Path 19" d="M28.894,31.947a.426.426,0,0,0,.387.232h.155l5.808-2.091a.367.367,0,0,0-.232-.7L29.2,31.483C28.972,31.56,28.817,31.792,28.894,31.947Z" transform="translate(-20.926 -22.286)"/>
        <path id="Path_20-5" data-name="Path 20" d="M38.7,33.886h.155l1.859-.7a.367.367,0,0,0-.232-.7l-1.859.7a.345.345,0,0,0-.232.465C38.392,33.808,38.546,33.886,38.7,33.886Z" transform="translate(-23.066 -22.985)"/>
        <path id="Path_21-5" data-name="Path 21" d="M51.672,51.339,45.321,33.991a.345.345,0,0,0-.465-.232h0A2.285,2.285,0,0,0,44.7,32.21,2.35,2.35,0,0,0,43.7,30.893a2.168,2.168,0,0,1-.774-1.007,1.754,1.754,0,0,1-.077-1.239,2.989,2.989,0,0,0-.077-1.626,2.493,2.493,0,0,0-3.175-1.394h0l-1.007.387a1.992,1.992,0,0,1-1.162-.077,1.431,1.431,0,0,1-.852-1.317.63.63,0,0,0-1.007-.465,1.425,1.425,0,0,1-1.549.155,1.356,1.356,0,0,1-.852-1.317.582.582,0,0,0-.387-.542.753.753,0,0,0-.7.077,1.579,1.579,0,0,1-1.549.155,1.408,1.408,0,0,1-.774-.852l-.465-1.317q0-.116-.232-.232a.236.236,0,0,0-.31,0l-8.132,2.866a3.333,3.333,0,0,0-1.7,1.549,2.707,2.707,0,0,0-.077,2.323l1.859,5.034h0l1.162,3.175h0L22.862,38.1l-.62.232a.345.345,0,0,0-.232.465l7.512,20.6a.426.426,0,0,0,.387.232h.155L48.5,52.888,51.44,51.8C51.595,51.726,51.75,51.494,51.672,51.339Zm-9.6-24.086a1.754,1.754,0,0,1,.077,1.239,2.99,2.99,0,0,0,.077,1.626,2.3,2.3,0,0,0,1.007,1.317A2.168,2.168,0,0,1,44,32.442a1.754,1.754,0,0,1,.077,1.239.466.466,0,0,1-.077.31l-1.781.62L39.2,26.479l.62-.232h0A1.816,1.816,0,0,1,42.069,27.253ZM19.687,25.007a2.278,2.278,0,0,1,1.239-1.162l7.745-2.788.31.929a2.278,2.278,0,0,0,1.162,1.239,2.171,2.171,0,0,0,2.168-.155,2.3,2.3,0,0,0,1.317,1.7A2.171,2.171,0,0,0,35.8,24.62a2.141,2.141,0,0,0,1.317,1.7,2.087,2.087,0,0,0,1.317.232l3.02,8.209-6.505,2.4-3.408-1.549,5.808-2.091a.367.367,0,1,0-.232-.7l-7.125,2.556h0l-.232.155h0l-6.118,2.246-.929-2.478,9.216-3.33a.345.345,0,0,0,.232-.465c-.077-.155-.31-.31-.465-.232l-9.216,3.33-.929-2.478,3.1-1.084a.367.367,0,1,0-.232-.7l-3.1,1.084-.929-2.478,8.287-3.02a.367.367,0,0,0-.232-.7l-8.287,3.02-.542-1.549A1.892,1.892,0,0,1,19.687,25.007Zm14.87,20.446-3.33-9.061,12.391,5.731ZM30.142,58.7,22.94,38.87,30.3,36.16l3.64,9.913a.167.167,0,0,0,.155.155h0a.27.27,0,0,1,.155.077H34.4l9.913-3.64L47.8,52.191Zm18.432-6.66-3.64-9.913v-.155l-.155-.155-8.829-4.027L44.7,34.611l6.041,16.651Z" transform="translate(-18.611 -20.225)"/>
      </g>
    </g>
    <g id="joe-product-icon_sandwich-6" data-name="joe-product-icon_sandwich" transform="translate(425.983 1006.527) rotate(20)">
      <g id="Group_10-6" data-name="Group 10" transform="translate(0)">
        <path id="Path_19-6" data-name="Path 19" d="M28.894,31.947a.426.426,0,0,0,.387.232h.155l5.808-2.091a.367.367,0,0,0-.232-.7L29.2,31.483C28.972,31.56,28.817,31.792,28.894,31.947Z" transform="translate(-20.926 -22.286)"/>
        <path id="Path_20-6" data-name="Path 20" d="M38.7,33.886h.155l1.859-.7a.367.367,0,0,0-.232-.7l-1.859.7a.345.345,0,0,0-.232.465C38.392,33.808,38.546,33.886,38.7,33.886Z" transform="translate(-23.066 -22.985)"/>
        <path id="Path_21-6" data-name="Path 21" d="M51.672,51.339,45.321,33.991a.345.345,0,0,0-.465-.232h0A2.285,2.285,0,0,0,44.7,32.21,2.35,2.35,0,0,0,43.7,30.893a2.168,2.168,0,0,1-.774-1.007,1.754,1.754,0,0,1-.077-1.239,2.989,2.989,0,0,0-.077-1.626,2.493,2.493,0,0,0-3.175-1.394h0l-1.007.387a1.992,1.992,0,0,1-1.162-.077,1.431,1.431,0,0,1-.852-1.317.63.63,0,0,0-1.007-.465,1.425,1.425,0,0,1-1.549.155,1.356,1.356,0,0,1-.852-1.317.582.582,0,0,0-.387-.542.753.753,0,0,0-.7.077,1.579,1.579,0,0,1-1.549.155,1.408,1.408,0,0,1-.774-.852l-.465-1.317q0-.116-.232-.232a.236.236,0,0,0-.31,0l-8.132,2.866a3.333,3.333,0,0,0-1.7,1.549,2.707,2.707,0,0,0-.077,2.323l1.859,5.034h0l1.162,3.175h0L22.862,38.1l-.62.232a.345.345,0,0,0-.232.465l7.512,20.6a.426.426,0,0,0,.387.232h.155L48.5,52.888,51.44,51.8C51.595,51.726,51.75,51.494,51.672,51.339Zm-9.6-24.086a1.754,1.754,0,0,1,.077,1.239,2.99,2.99,0,0,0,.077,1.626,2.3,2.3,0,0,0,1.007,1.317A2.168,2.168,0,0,1,44,32.442a1.754,1.754,0,0,1,.077,1.239.466.466,0,0,1-.077.31l-1.781.62L39.2,26.479l.62-.232h0A1.816,1.816,0,0,1,42.069,27.253ZM19.687,25.007a2.278,2.278,0,0,1,1.239-1.162l7.745-2.788.31.929a2.278,2.278,0,0,0,1.162,1.239,2.171,2.171,0,0,0,2.168-.155,2.3,2.3,0,0,0,1.317,1.7A2.171,2.171,0,0,0,35.8,24.62a2.141,2.141,0,0,0,1.317,1.7,2.087,2.087,0,0,0,1.317.232l3.02,8.209-6.505,2.4-3.408-1.549,5.808-2.091a.367.367,0,1,0-.232-.7l-7.125,2.556h0l-.232.155h0l-6.118,2.246-.929-2.478,9.216-3.33a.345.345,0,0,0,.232-.465c-.077-.155-.31-.31-.465-.232l-9.216,3.33-.929-2.478,3.1-1.084a.367.367,0,1,0-.232-.7l-3.1,1.084-.929-2.478,8.287-3.02a.367.367,0,0,0-.232-.7l-8.287,3.02-.542-1.549A1.892,1.892,0,0,1,19.687,25.007Zm14.87,20.446-3.33-9.061,12.391,5.731ZM30.142,58.7,22.94,38.87,30.3,36.16l3.64,9.913a.167.167,0,0,0,.155.155h0a.27.27,0,0,1,.155.077H34.4l9.913-3.64L47.8,52.191Zm18.432-6.66-3.64-9.913v-.155l-.155-.155-8.829-4.027L44.7,34.611l6.041,16.651Z" transform="translate(-18.611 -20.225)"/>
      </g>
    </g>
    <text id="_5_X_JUICES_SHAKES_12oz_SANDWICHES_EXTRA_INGREDIENT_TOPPING" data-name="5 X JUICES/SHAKES (12oz) &amp; SANDWICHES + EXTRA INGREDIENT / TOPPING" class="cls-11" transform="translate(103 892)"><tspan x="0" y="11">5 X JUICES/SHAKES (12oz) &amp; SANDWICHES </tspan><tspan x="0" y="25">+ EXTRA INGREDIENT / TOPPING</tspan></text>
  </g>
</svg>
