<svg xmlns="http://www.w3.org/2000/svg" xmlns:xlink="http://www.w3.org/1999/xlink" viewBox="0 0 489 268">
  <defs>
    <style>
      .cls-1, .cls-13, .cls-3, .cls-4, .cls-5 {
        fill: #fff;
      }

      .cls-2 {
        font-size: 25px;
      }

      .cls-2, .cls-6, .cls-7 {
        font-family: Roboto-Bold, Roboto;
        font-weight: 700;
      }

      .cls-11, .cls-3, .cls-5, .cls-9 {
        stroke: #000;
      }

      .cls-3, .cls-4 {
        opacity: 0.2;
      }

      .cls-5 {
        opacity: 0.2;
      }

      .cls-6, .cls-7 {
        font-size: 35px;
      }

      .cls-7, .cls-8 {
        fill: #5c5c5c;
      }

      .cls-8 {
        font-size: 10px;
        font-family: Roboto-Light, Roboto;
        font-weight: 300;
      }

      .cls-11, .cls-14, .cls-9 {
        fill: none;
      }

      .cls-10 {
        font-size: 14px;
        font-family: Roboto-Regular, Roboto;
      }

      .cls-11 {
        stroke-width: 3px;
      }

      .cls-12, .cls-13, .cls-15 {
        stroke: none;
      }

      .cls-16 {
        filter: url(#Path_53);
      }
    </style>
    <filter id="Path_53" x="0" y="0" width="489" height="268" filterUnits="userSpaceOnUse">
      <feOffset dx="4" dy="4" input="SourceAlpha"/>
      <feGaussianBlur stdDeviation="2" result="blur"/>
      <feFlood flood-opacity="0.161"/>
      <feComposite operator="in" in2="blur"/>
      <feComposite in="SourceGraphic"/>
    </filter>
  </defs>
  <g id="Group_33" data-name="Group 33" transform="translate(-20 -847)">
    <g class="cls-16" transform="matrix(1, 0, 0, 1, 20, 847)">
      <g id="Path_53-2" data-name="Path 53" class="cls-1" transform="translate(2 2)">
        <path class="cls-12" d="M 459 255.5 L 18 255.5 C 13.32558822631836 255.5 8.930941581726074 253.6797027587891 5.625647068023682 250.3743591308594 C 2.320294141769409 247.0690612792969 0.5 242.6744079589844 0.5 238 L 0.5 18 C 0.5 13.32558822631836 2.320294141769409 8.930941581726074 5.625647068023682 5.625647068023682 C 8.930941581726074 2.320294141769409 13.32558822631836 0.5 18 0.5 L 459 0.5 C 463.6744079589844 0.5 468.0690612792969 2.320294141769409 471.3743591308594 5.625647068023682 C 474.6797180175781 8.930941581726074 476.5 13.32558822631836 476.5 18 L 476.5 238 C 476.5 242.6744079589844 474.6797180175781 247.0690612792969 471.3743591308594 250.3743591308594 C 468.0690612792969 253.6797027587891 463.6744079589844 255.5 459 255.5 Z"/>
        <path class="cls-13" d="M 459 255 C 463.5408935546875 255 467.8099365234375 253.2317047119141 471.0208129882812 250.0208282470703 C 474.2317199707031 246.8099365234375 476 242.5408782958984 476 238 L 476 18 C 476 13.4591178894043 474.2317199707031 9.190058708190918 471.0208129882812 5.97917652130127 C 467.8099365234375 2.768294095993042 463.5408935546875 1 459 1 L 18 1 C 13.4591178894043 1 9.190058708190918 2.768294095993042 5.97917652130127 5.97917652130127 C 2.768294095993042 9.190058708190918 1 13.4591178894043 1 18 L 1 238 C 1 242.5408782958984 2.768294095993042 246.8099365234375 5.97917652130127 250.0208282470703 C 9.190058708190918 253.2317047119141 13.4591178894043 255 18 255 L 459 255 M 459 256 L 18 256 C 8.058882713317871 256 0 247.9411163330078 0 238 L 0 18 C 0 8.058882713317871 8.058882713317871 0 18 0 L 459 0 C 468.9411315917969 0 477 8.058882713317871 477 18 L 477 238 C 477 247.9411163330078 468.9411315917969 256 459 256 Z"/>
      </g>
    </g>
    <g id="joe-product-icon_juice" transform="translate(38.328 857.575)">
      <g id="Group_9" data-name="Group 9" transform="translate(0 0)">
        <path id="Path_17" data-name="Path 17" d="M74.808,60.481h0C73.644,50.4,66.082,41.672,56.774,40.121H52.9L50.375,26.935a1.066,1.066,0,0,0-.582-.97L36.608,10.841A.96.96,0,0,0,35.25,12.2L48.63,27.517l2.327,12.6H47.273C38.159,41.672,30.4,50.592,29.239,60.675A2.279,2.279,0,0,0,27.3,62.808v3.878a2.152,2.152,0,0,0,2.133,2.133h.388V69.4l1.551,11.053h0v.194l6.205,45.375a2.114,2.114,0,0,0,2.133,1.939h25.6a2.114,2.114,0,0,0,2.133-1.939l4.654-39.17h0l2.133-17.646v-.582h.388a2.152,2.152,0,0,0,2.133-2.133V62.614A2.733,2.733,0,0,0,74.808,60.481ZM47.273,42.06H56.58c8.144,1.551,15.125,9.5,16.288,18.421H36.608l.582-2.327A15.853,15.853,0,0,1,47.466,47.683a.92.92,0,1,0-.582-1.745A18.287,18.287,0,0,0,35.25,57.573a14.526,14.526,0,0,0-.776,3.1H30.79C32.342,51.368,39.322,43.417,47.273,42.06ZM72.093,68.82v.194l-1.939,16.87H51.539a.97.97,0,1,0,0,1.939H69.96L65.5,125.829a.19.19,0,0,1-.194.194H39.71a.19.19,0,0,1-.194-.194L33.505,81.424H51.732a.97.97,0,1,0,0-1.939H33.117L31.76,69.013c0-.194,0-.194.194-.388Zm2.521-2.327a.19.19,0,0,1-.194.194H29.433a.19.19,0,0,1-.194-.194V62.614a.19.19,0,0,1,.194-.194H74.42a.19.19,0,0,1,.194.194v3.878Z" transform="translate(-27.3 -10.55)"/>
        <path id="Path_18" data-name="Path 18" d="M34.4,54.07a.916.916,0,0,0,.97.97H54.76a.97.97,0,1,0,0-1.939H35.37A.916.916,0,0,0,34.4,54.07Z" transform="translate(-20.633 29.408)"/>
      </g>
    </g>
    <text id="COMBI" class="cls-2" transform="translate(155 893)"><tspan x="0" y="23">COMBI</tspan></text>
    <g id="Group_16" data-name="Group 16" transform="translate(-102 722)">
      <g id="Rectangle_1460" data-name="Rectangle 1460" class="cls-3" transform="translate(167 271)">
        <rect class="cls-12" width="63" height="60"/>
        <rect class="cls-14" x="0.5" y="0.5" width="62" height="59"/>
      </g>
      <g id="Rectangle_1461" data-name="Rectangle 1461" class="cls-3" transform="translate(249 271)">
        <rect class="cls-12" width="63" height="60"/>
        <rect class="cls-14" x="0.5" y="0.5" width="62" height="59"/>
      </g>
      <g id="Path_54" data-name="Path 54" class="cls-4" transform="translate(331 271)">
        <path class="cls-12" d="M 62.5 59.5 L 0.5 59.5 L 0.5 0.5 L 62.5 0.5 L 62.5 36.9375 L 62.5 59.5 Z"/>
        <path class="cls-15" d="M 62 59 L 62 36.9375 L 62 1 L 1 1 L 1 59 L 62 59 M 63 60 L -3.552713678800501e-15 60 L -3.552713678800501e-15 -3.552713678800501e-15 L 63 -3.552713678800501e-15 L 63 36.9375 L 63 60 Z"/>
      </g>
      <g id="Rectangle_1463" data-name="Rectangle 1463" class="cls-3" transform="translate(413 271)">
        <rect class="cls-12" width="63" height="60"/>
        <rect class="cls-14" x="0.5" y="0.5" width="62" height="59"/>
      </g>
      <g id="Rectangle_1464" data-name="Rectangle 1464" class="cls-5" transform="translate(495 271)">
        <rect class="cls-12" width="63" height="60"/>
        <rect class="cls-14" x="0.5" y="0.5" width="62" height="59"/>
      </g>
    </g>
    <g id="joe-product-icon_juice-2" data-name="joe-product-icon_juice" transform="translate(74 997.295)">
      <g id="Group_9-2" data-name="Group 9" transform="translate(0 0)">
        <path id="Path_17-2" data-name="Path 17" d="M47.716,32.007h0c-.5-4.333-3.75-8.083-7.75-8.75H38.3l-1.083-5.666a.458.458,0,0,0-.25-.417l-5.666-6.5a.412.412,0,0,0-.583.583l5.75,6.583,1,5.416H35.883c-3.917.667-7.25,4.5-7.75,8.833a.979.979,0,0,0-.833.917v1.667a.925.925,0,0,0,.917.917h.167v.25l.667,4.75h0v.083l2.667,19.5a.908.908,0,0,0,.917.833h11a.908.908,0,0,0,.917-.833l2-16.833h0l.917-7.583v-.25h.167a.925.925,0,0,0,.917-.917V32.924A1.175,1.175,0,0,0,47.716,32.007ZM35.883,24.091h4c3.5.667,6.5,4.083,7,7.916H31.3l.25-1a6.812,6.812,0,0,1,4.416-4.5.4.4,0,1,0-.25-.75,7.859,7.859,0,0,0-5,5,6.242,6.242,0,0,0-.333,1.333H28.8C29.467,28.091,32.466,24.674,35.883,24.091Zm10.666,11.5v.083l-.833,7.25h-8a.417.417,0,1,0,0,.833h7.916L43.716,60.09a.082.082,0,0,1-.083.083h-11a.082.082,0,0,1-.083-.083L29.967,41.007H37.8a.417.417,0,0,0,0-.833h-8l-.583-4.5c0-.083,0-.083.083-.167Zm1.083-1a.082.082,0,0,1-.083.083H28.217a.082.082,0,0,1-.083-.083V32.924a.082.082,0,0,1,.083-.083H47.549a.082.082,0,0,1,.083.083v1.667Z" transform="translate(-27.3 -10.55)"/>
        <path id="Path_18-2" data-name="Path 18" d="M34.4,53.517a.394.394,0,0,0,.417.417H43.15a.417.417,0,1,0,0-.833H34.817A.394.394,0,0,0,34.4,53.517Z" transform="translate(-28.484 -17.643)"/>
      </g>
    </g>
    <g id="joe-product-icon_juice-3" data-name="joe-product-icon_juice" transform="translate(155 997.295)">
      <g id="Group_9-3" data-name="Group 9" transform="translate(0 0)">
        <path id="Path_17-3" data-name="Path 17" d="M47.716,32.007h0c-.5-4.333-3.75-8.083-7.75-8.75H38.3l-1.083-5.666a.458.458,0,0,0-.25-.417l-5.666-6.5a.412.412,0,0,0-.583.583l5.75,6.583,1,5.416H35.883c-3.917.667-7.25,4.5-7.75,8.833a.979.979,0,0,0-.833.917v1.667a.925.925,0,0,0,.917.917h.167v.25l.667,4.75h0v.083l2.667,19.5a.908.908,0,0,0,.917.833h11a.908.908,0,0,0,.917-.833l2-16.833h0l.917-7.583v-.25h.167a.925.925,0,0,0,.917-.917V32.924A1.175,1.175,0,0,0,47.716,32.007ZM35.883,24.091h4c3.5.667,6.5,4.083,7,7.916H31.3l.25-1a6.812,6.812,0,0,1,4.416-4.5.4.4,0,1,0-.25-.75,7.859,7.859,0,0,0-5,5,6.242,6.242,0,0,0-.333,1.333H28.8C29.467,28.091,32.466,24.674,35.883,24.091Zm10.666,11.5v.083l-.833,7.25h-8a.417.417,0,1,0,0,.833h7.916L43.716,60.09a.082.082,0,0,1-.083.083h-11a.082.082,0,0,1-.083-.083L29.967,41.007H37.8a.417.417,0,0,0,0-.833h-8l-.583-4.5c0-.083,0-.083.083-.167Zm1.083-1a.082.082,0,0,1-.083.083H28.217a.082.082,0,0,1-.083-.083V32.924a.082.082,0,0,1,.083-.083H47.549a.082.082,0,0,1,.083.083v1.667Z" transform="translate(-27.3 -10.55)"/>
        <path id="Path_18-3" data-name="Path 18" d="M34.4,53.517a.394.394,0,0,0,.417.417H43.15a.417.417,0,1,0,0-.833H34.817A.394.394,0,0,0,34.4,53.517Z" transform="translate(-28.484 -17.643)"/>
      </g>
    </g>
    <g id="joe-product-icon_juice-4" data-name="joe-product-icon_juice" transform="translate(238 997.295)">
      <g id="Group_9-4" data-name="Group 9" transform="translate(0 0)">
        <path id="Path_17-4" data-name="Path 17" d="M47.716,32.007h0c-.5-4.333-3.75-8.083-7.75-8.75H38.3l-1.083-5.666a.458.458,0,0,0-.25-.417l-5.666-6.5a.412.412,0,0,0-.583.583l5.75,6.583,1,5.416H35.883c-3.917.667-7.25,4.5-7.75,8.833a.979.979,0,0,0-.833.917v1.667a.925.925,0,0,0,.917.917h.167v.25l.667,4.75h0v.083l2.667,19.5a.908.908,0,0,0,.917.833h11a.908.908,0,0,0,.917-.833l2-16.833h0l.917-7.583v-.25h.167a.925.925,0,0,0,.917-.917V32.924A1.175,1.175,0,0,0,47.716,32.007ZM35.883,24.091h4c3.5.667,6.5,4.083,7,7.916H31.3l.25-1a6.812,6.812,0,0,1,4.416-4.5.4.4,0,1,0-.25-.75,7.859,7.859,0,0,0-5,5,6.242,6.242,0,0,0-.333,1.333H28.8C29.467,28.091,32.466,24.674,35.883,24.091Zm10.666,11.5v.083l-.833,7.25h-8a.417.417,0,1,0,0,.833h7.916L43.716,60.09a.082.082,0,0,1-.083.083h-11a.082.082,0,0,1-.083-.083L29.967,41.007H37.8a.417.417,0,0,0,0-.833h-8l-.583-4.5c0-.083,0-.083.083-.167Zm1.083-1a.082.082,0,0,1-.083.083H28.217a.082.082,0,0,1-.083-.083V32.924a.082.082,0,0,1,.083-.083H47.549a.082.082,0,0,1,.083.083v1.667Z" transform="translate(-27.3 -10.55)"/>
        <path id="Path_18-4" data-name="Path 18" d="M34.4,53.517a.394.394,0,0,0,.417.417H43.15a.417.417,0,1,0,0-.833H34.817A.394.394,0,0,0,34.4,53.517Z" transform="translate(-28.484 -17.643)"/>
      </g>
    </g>
    <g id="joe-product-icon_juice-5" data-name="joe-product-icon_juice" transform="translate(319 997.295)">
      <g id="Group_9-5" data-name="Group 9" transform="translate(0 0)">
        <path id="Path_17-5" data-name="Path 17" d="M47.716,32.007h0c-.5-4.333-3.75-8.083-7.75-8.75H38.3l-1.083-5.666a.458.458,0,0,0-.25-.417l-5.666-6.5a.412.412,0,0,0-.583.583l5.75,6.583,1,5.416H35.883c-3.917.667-7.25,4.5-7.75,8.833a.979.979,0,0,0-.833.917v1.667a.925.925,0,0,0,.917.917h.167v.25l.667,4.75h0v.083l2.667,19.5a.908.908,0,0,0,.917.833h11a.908.908,0,0,0,.917-.833l2-16.833h0l.917-7.583v-.25h.167a.925.925,0,0,0,.917-.917V32.924A1.175,1.175,0,0,0,47.716,32.007ZM35.883,24.091h4c3.5.667,6.5,4.083,7,7.916H31.3l.25-1a6.812,6.812,0,0,1,4.416-4.5.4.4,0,1,0-.25-.75,7.859,7.859,0,0,0-5,5,6.242,6.242,0,0,0-.333,1.333H28.8C29.467,28.091,32.466,24.674,35.883,24.091Zm10.666,11.5v.083l-.833,7.25h-8a.417.417,0,1,0,0,.833h7.916L43.716,60.09a.082.082,0,0,1-.083.083h-11a.082.082,0,0,1-.083-.083L29.967,41.007H37.8a.417.417,0,0,0,0-.833h-8l-.583-4.5c0-.083,0-.083.083-.167Zm1.083-1a.082.082,0,0,1-.083.083H28.217a.082.082,0,0,1-.083-.083V32.924a.082.082,0,0,1,.083-.083H47.549a.082.082,0,0,1,.083.083v1.667Z" transform="translate(-27.3 -10.55)"/>
        <path id="Path_18-5" data-name="Path 18" d="M34.4,53.517a.394.394,0,0,0,.417.417H43.15a.417.417,0,1,0,0-.833H34.817A.394.394,0,0,0,34.4,53.517Z" transform="translate(-28.484 -17.643)"/>
      </g>
    </g>
    <g id="joe-product-icon_juice-6" data-name="joe-product-icon_juice" transform="translate(402 997.295)">
      <g id="Group_9-6" data-name="Group 9" transform="translate(0 0)">
        <path id="Path_17-6" data-name="Path 17" d="M47.716,32.007h0c-.5-4.333-3.75-8.083-7.75-8.75H38.3l-1.083-5.666a.458.458,0,0,0-.25-.417l-5.666-6.5a.412.412,0,0,0-.583.583l5.75,6.583,1,5.416H35.883c-3.917.667-7.25,4.5-7.75,8.833a.979.979,0,0,0-.833.917v1.667a.925.925,0,0,0,.917.917h.167v.25l.667,4.75h0v.083l2.667,19.5a.908.908,0,0,0,.917.833h11a.908.908,0,0,0,.917-.833l2-16.833h0l.917-7.583v-.25h.167a.925.925,0,0,0,.917-.917V32.924A1.175,1.175,0,0,0,47.716,32.007ZM35.883,24.091h4c3.5.667,6.5,4.083,7,7.916H31.3l.25-1a6.812,6.812,0,0,1,4.416-4.5.4.4,0,1,0-.25-.75,7.859,7.859,0,0,0-5,5,6.242,6.242,0,0,0-.333,1.333H28.8C29.467,28.091,32.466,24.674,35.883,24.091Zm10.666,11.5v.083l-.833,7.25h-8a.417.417,0,1,0,0,.833h7.916L43.716,60.09a.082.082,0,0,1-.083.083h-11a.082.082,0,0,1-.083-.083L29.967,41.007H37.8a.417.417,0,0,0,0-.833h-8l-.583-4.5c0-.083,0-.083.083-.167Zm1.083-1a.082.082,0,0,1-.083.083H28.217a.082.082,0,0,1-.083-.083V32.924a.082.082,0,0,1,.083-.083H47.549a.082.082,0,0,1,.083.083v1.667Z" transform="translate(-27.3 -10.55)"/>
        <path id="Path_18-6" data-name="Path 18" d="M34.4,53.517a.394.394,0,0,0,.417.417H43.15a.417.417,0,1,0,0-.833H34.817A.394.394,0,0,0,34.4,53.517Z" transform="translate(-28.484 -17.643)"/>
      </g>
    </g>
    <text id="_400_kr" data-name="400 kr" class="cls-6" transform="translate(375 885)"><tspan x="0" y="32">400 kr</tspan></text>
    <text id="_540_kr" data-name="540 kr" class="cls-7" transform="translate(375 932)"><tspan x="0" y="32">540 kr</tspan></text>
    <text id="_JOEANDTHEJUICE_JOEANDTHEJUICE_JOEJUICE.COM_" data-name="#JOEANDTHEJUICE  |  @JOEANDTHEJUICE  |  JOEJUICE.COM " class="cls-8" transform="translate(123 1066)"><tspan x="0" y="9" xml:space="preserve">#JOEANDTHEJUICE  |  @JOEANDTHEJUICE  |  JOEJUICE.COM </tspan></text>
    <g id="Ellipse_5" data-name="Ellipse 5" class="cls-9" transform="translate(456 1062)">
      <circle class="cls-12" cx="15" cy="15" r="15"/>
      <circle class="cls-14" cx="15" cy="15" r="14.5"/>
    </g>
    <line id="Line_16" data-name="Line 16" class="cls-9" x2="14" transform="translate(464.5 1077.5)"/>
    <line id="Line_17" data-name="Line 17" class="cls-9" y2="14" transform="translate(471.5 1070.5)"/>
    <g id="a8a7e8aaaec4f29003dae50dd72da3d8" transform="translate(26.668 1052.668)">
      <path id="Path_33" data-name="Path 33" d="M20.613,20.613H10V10H20.613Zm-8.63-1.983h6.644V11.983H11.983V18.63Z"/>
      <path id="Path_34" data-name="Path 34" d="M132.4,132.4h3.539v3.539H132.4Z" transform="translate(-118.861 -118.861)"/>
      <path id="Path_35" data-name="Path 35" d="M20.613,632.445H10V621.8H20.613Zm-8.63-1.983h6.644v-6.678H11.983v6.678Z" transform="translate(0 -594.113)"/>
      <path id="Path_36" data-name="Path 36" d="M132.4,745.3h3.539v3.5H132.4Z" transform="translate(-118.861 -714.042)"/>
      <path id="Path_37" data-name="Path 37" d="M632.445,20.613H621.8V10h10.645Zm-8.662-1.983h6.678V11.983h-6.678Z" transform="translate(-594.113)"/>
      <path id="Path_38" data-name="Path 38" d="M745.3,132.4h3.5v3.539h-3.5Z" transform="translate(-714.042 -118.861)"/>
      <path id="Path_39" data-name="Path 39" d="M10,377.1h3.539v3.57H10Z" transform="translate(0 -356.487)"/>
      <path id="Path_40" data-name="Path 40" d="M254.7,500.6h3.539v3.5H254.7v-3.5Z" transform="translate(-237.626 -476.416)"/>
      <path id="Path_41" data-name="Path 41" d="M500.6,10h3.5v3.539h-3.5Z" transform="translate(-476.416)"/>
      <path id="Path_42" data-name="Path 42" d="M377.1,254.7h3.57v3.539H377.1Z" transform="translate(-356.487 -237.626)"/>
      <path id="Path_43" data-name="Path 43" d="M500.6,866.5h3.5v3.57h-3.5Z" transform="translate(-476.416 -831.738)"/>
      <path id="Path_44" data-name="Path 44" d="M745.3,866.5h7.074v3.57H745.3Z" transform="translate(-714.042 -831.738)"/>
      <path id="Path_45" data-name="Path 45" d="M500.6,621.8h7.074v3.57H500.6Z" transform="translate(-476.416 -594.113)"/>
      <path id="Path_46" data-name="Path 46" d="M745.3,621.8h3.5v7.074h-3.5Z" transform="translate(-714.042 -594.113)"/>
      <path id="Path_47" data-name="Path 47" d="M855.1,621.8H859v3.57h-3.9Z" transform="translate(-820.668 -594.113)"/>
      <path id="Path_48" data-name="Path 48" d="M500.6,377.1h3.5v3.57h-3.5Z" transform="translate(-476.416 -356.487)"/>
      <path id="Path_49" data-name="Path 49" d="M621.8,500.6h3.57v3.5H621.8v-3.5Z" transform="translate(-594.113 -476.416)"/>
      <path id="Path_50" data-name="Path 50" d="M745.3,377.1h3.5v3.57h-3.5Z" transform="translate(-714.042 -356.487)"/>
      <path id="Path_51" data-name="Path 51" d="M866.5,500.6h3.57v3.5H866.5v-3.5Z" transform="translate(-831.738 -476.416)"/>
    </g>
    <g id="joe-product-icon_sandwich" transform="translate(96.261 876.613) rotate(21)">
      <g id="Group_10" data-name="Group 10" transform="translate(0 0)">
        <path id="Path_19" data-name="Path 19" d="M.048,6.185a1.019,1.019,0,0,0,.927.556h.371l13.9-5A.826.826,0,0,0,15.8.625.826.826,0,0,0,14.688.069l-13.9,5C.234,5.258-.137,5.814.048,6.185Z" transform="translate(19.018 16.933)"/>
        <path id="Path_20" data-name="Path 20" d="M.811,3.405h.371L5.629,1.737A.826.826,0,0,0,6.185.625.826.826,0,0,0,5.073.069L.625,1.737A.826.826,0,0,0,.069,2.849C.069,3.22.44,3.405.811,3.405Z" transform="translate(36.602 22.678)"/>
        <path id="Path_21" data-name="Path 21" d="M79.11,74.452,63.914,32.94a.826.826,0,0,0-1.112-.556h0a5.468,5.468,0,0,0-.371-3.706,5.623,5.623,0,0,0-2.409-3.15,5.187,5.187,0,0,1-1.853-2.409,4.2,4.2,0,0,1-.185-2.965,7.153,7.153,0,0,0-.185-3.892,5.965,5.965,0,0,0-7.6-3.336h0l-2.409.927a4.767,4.767,0,0,1-2.78-.185,3.425,3.425,0,0,1-2.039-3.15A1.508,1.508,0,0,0,40.563,9.4a3.409,3.409,0,0,1-3.706.371,3.245,3.245,0,0,1-2.038-3.15,1.394,1.394,0,0,0-.927-1.3,1.8,1.8,0,0,0-1.668.185,3.778,3.778,0,0,1-3.706.371,3.368,3.368,0,0,1-1.853-2.039L25.553.695q0-.278-.556-.556a.564.564,0,0,0-.741,0L4.8,7A7.976,7.976,0,0,0,.72,10.7a6.477,6.477,0,0,0-.185,5.56L4.982,28.307h0l2.78,7.6h0l2.409,6.857-1.483.556a.826.826,0,0,0-.556,1.112L26.109,93.725a1.019,1.019,0,0,0,.927.556h.371L71.512,78.158l7.042-2.594C78.924,75.378,79.295,74.822,79.11,74.452ZM56.13,16.818a4.2,4.2,0,0,1,.185,2.965,7.154,7.154,0,0,0,.185,3.892,5.51,5.51,0,0,0,2.409,3.15,5.187,5.187,0,0,1,1.853,2.409,4.2,4.2,0,0,1,.185,2.965,1.114,1.114,0,0,1-.185.741L56.5,34.423,49.273,14.964l1.483-.556h0A4.345,4.345,0,0,1,56.13,16.818ZM2.573,11.443a5.451,5.451,0,0,1,2.965-2.78L24.07,1.992l.741,2.224a5.451,5.451,0,0,0,2.78,2.965A5.194,5.194,0,0,0,32.78,6.81a5.505,5.505,0,0,0,3.15,4.077,5.194,5.194,0,0,0,5.189-.371,5.123,5.123,0,0,0,3.15,4.077,5,5,0,0,0,3.15.556l7.227,19.644L39.081,40.538l-8.154-3.706,13.9-5a.879.879,0,1,0-.556-1.668L27.221,36.276h0l-.556.371h0l-14.64,5.374L9.8,36.091l22.053-7.969a.826.826,0,0,0,.556-1.112c-.185-.371-.741-.741-1.112-.556L9.245,34.423l-2.224-5.93L14.434,25.9a.879.879,0,1,0-.556-1.668L6.465,26.825l-2.224-5.93L24.07,13.667A.879.879,0,0,0,23.514,12L3.685,19.227l-1.3-3.706A4.527,4.527,0,0,1,2.573,11.443ZM38.154,60.367,30.186,38.685,59.837,52.4ZM27.591,92.057,10.357,44.615l17.605-6.486,8.71,23.721a.4.4,0,0,0,.371.371h0a.647.647,0,0,1,.371.185h.371L61.5,53.7,69.844,76.49ZM71.7,76.119,62.987,52.4v-.371l-.371-.371L41.49,42.021l20.941-7.6L76.886,74.266Z"/>
      </g>
    </g>
    <g id="joe-product-icon_sandwich-2" data-name="joe-product-icon_sandwich" transform="translate(97.983 1006.527) rotate(20)">
      <g id="Group_10-2" data-name="Group 10" transform="translate(0)">
        <path id="Path_19-2" data-name="Path 19" d="M28.894,31.947a.426.426,0,0,0,.387.232h.155l5.808-2.091a.367.367,0,0,0-.232-.7L29.2,31.483C28.972,31.56,28.817,31.792,28.894,31.947Z" transform="translate(-20.926 -22.286)"/>
        <path id="Path_20-2" data-name="Path 20" d="M38.7,33.886h.155l1.859-.7a.367.367,0,0,0-.232-.7l-1.859.7a.345.345,0,0,0-.232.465C38.392,33.808,38.546,33.886,38.7,33.886Z" transform="translate(-23.066 -22.985)"/>
        <path id="Path_21-2" data-name="Path 21" d="M51.672,51.339,45.321,33.991a.345.345,0,0,0-.465-.232h0A2.285,2.285,0,0,0,44.7,32.21,2.35,2.35,0,0,0,43.7,30.893a2.168,2.168,0,0,1-.774-1.007,1.754,1.754,0,0,1-.077-1.239,2.989,2.989,0,0,0-.077-1.626,2.493,2.493,0,0,0-3.175-1.394h0l-1.007.387a1.992,1.992,0,0,1-1.162-.077,1.431,1.431,0,0,1-.852-1.317.63.63,0,0,0-1.007-.465,1.425,1.425,0,0,1-1.549.155,1.356,1.356,0,0,1-.852-1.317.582.582,0,0,0-.387-.542.753.753,0,0,0-.7.077,1.579,1.579,0,0,1-1.549.155,1.408,1.408,0,0,1-.774-.852l-.465-1.317q0-.116-.232-.232a.236.236,0,0,0-.31,0l-8.132,2.866a3.333,3.333,0,0,0-1.7,1.549,2.707,2.707,0,0,0-.077,2.323l1.859,5.034h0l1.162,3.175h0L22.862,38.1l-.62.232a.345.345,0,0,0-.232.465l7.512,20.6a.426.426,0,0,0,.387.232h.155L48.5,52.888,51.44,51.8C51.595,51.726,51.75,51.494,51.672,51.339Zm-9.6-24.086a1.754,1.754,0,0,1,.077,1.239,2.99,2.99,0,0,0,.077,1.626,2.3,2.3,0,0,0,1.007,1.317A2.168,2.168,0,0,1,44,32.442a1.754,1.754,0,0,1,.077,1.239.466.466,0,0,1-.077.31l-1.781.62L39.2,26.479l.62-.232h0A1.816,1.816,0,0,1,42.069,27.253ZM19.687,25.007a2.278,2.278,0,0,1,1.239-1.162l7.745-2.788.31.929a2.278,2.278,0,0,0,1.162,1.239,2.171,2.171,0,0,0,2.168-.155,2.3,2.3,0,0,0,1.317,1.7A2.171,2.171,0,0,0,35.8,24.62a2.141,2.141,0,0,0,1.317,1.7,2.087,2.087,0,0,0,1.317.232l3.02,8.209-6.505,2.4-3.408-1.549,5.808-2.091a.367.367,0,1,0-.232-.7l-7.125,2.556h0l-.232.155h0l-6.118,2.246-.929-2.478,9.216-3.33a.345.345,0,0,0,.232-.465c-.077-.155-.31-.31-.465-.232l-9.216,3.33-.929-2.478,3.1-1.084a.367.367,0,1,0-.232-.7l-3.1,1.084-.929-2.478,8.287-3.02a.367.367,0,0,0-.232-.7l-8.287,3.02-.542-1.549A1.892,1.892,0,0,1,19.687,25.007Zm14.87,20.446-3.33-9.061,12.391,5.731ZM30.142,58.7,22.94,38.87,30.3,36.16l3.64,9.913a.167.167,0,0,0,.155.155h0a.27.27,0,0,1,.155.077H34.4l9.913-3.64L47.8,52.191Zm18.432-6.66-3.64-9.913v-.155l-.155-.155-8.829-4.027L44.7,34.611l6.041,16.651Z" transform="translate(-18.611 -20.225)"/>
      </g>
    </g>
    <g id="joe-product-icon_sandwich-3" data-name="joe-product-icon_sandwich" transform="translate(178.983 1006.527) rotate(20)">
      <g id="Group_10-3" data-name="Group 10" transform="translate(0)">
        <path id="Path_19-3" data-name="Path 19" d="M28.894,31.947a.426.426,0,0,0,.387.232h.155l5.808-2.091a.367.367,0,0,0-.232-.7L29.2,31.483C28.972,31.56,28.817,31.792,28.894,31.947Z" transform="translate(-20.926 -22.286)"/>
        <path id="Path_20-3" data-name="Path 20" d="M38.7,33.886h.155l1.859-.7a.367.367,0,0,0-.232-.7l-1.859.7a.345.345,0,0,0-.232.465C38.392,33.808,38.546,33.886,38.7,33.886Z" transform="translate(-23.066 -22.985)"/>
        <path id="Path_21-3" data-name="Path 21" d="M51.672,51.339,45.321,33.991a.345.345,0,0,0-.465-.232h0A2.285,2.285,0,0,0,44.7,32.21,2.35,2.35,0,0,0,43.7,30.893a2.168,2.168,0,0,1-.774-1.007,1.754,1.754,0,0,1-.077-1.239,2.989,2.989,0,0,0-.077-1.626,2.493,2.493,0,0,0-3.175-1.394h0l-1.007.387a1.992,1.992,0,0,1-1.162-.077,1.431,1.431,0,0,1-.852-1.317.63.63,0,0,0-1.007-.465,1.425,1.425,0,0,1-1.549.155,1.356,1.356,0,0,1-.852-1.317.582.582,0,0,0-.387-.542.753.753,0,0,0-.7.077,1.579,1.579,0,0,1-1.549.155,1.408,1.408,0,0,1-.774-.852l-.465-1.317q0-.116-.232-.232a.236.236,0,0,0-.31,0l-8.132,2.866a3.333,3.333,0,0,0-1.7,1.549,2.707,2.707,0,0,0-.077,2.323l1.859,5.034h0l1.162,3.175h0L22.862,38.1l-.62.232a.345.345,0,0,0-.232.465l7.512,20.6a.426.426,0,0,0,.387.232h.155L48.5,52.888,51.44,51.8C51.595,51.726,51.75,51.494,51.672,51.339Zm-9.6-24.086a1.754,1.754,0,0,1,.077,1.239,2.99,2.99,0,0,0,.077,1.626,2.3,2.3,0,0,0,1.007,1.317A2.168,2.168,0,0,1,44,32.442a1.754,1.754,0,0,1,.077,1.239.466.466,0,0,1-.077.31l-1.781.62L39.2,26.479l.62-.232h0A1.816,1.816,0,0,1,42.069,27.253ZM19.687,25.007a2.278,2.278,0,0,1,1.239-1.162l7.745-2.788.31.929a2.278,2.278,0,0,0,1.162,1.239,2.171,2.171,0,0,0,2.168-.155,2.3,2.3,0,0,0,1.317,1.7A2.171,2.171,0,0,0,35.8,24.62a2.141,2.141,0,0,0,1.317,1.7,2.087,2.087,0,0,0,1.317.232l3.02,8.209-6.505,2.4-3.408-1.549,5.808-2.091a.367.367,0,1,0-.232-.7l-7.125,2.556h0l-.232.155h0l-6.118,2.246-.929-2.478,9.216-3.33a.345.345,0,0,0,.232-.465c-.077-.155-.31-.31-.465-.232l-9.216,3.33-.929-2.478,3.1-1.084a.367.367,0,1,0-.232-.7l-3.1,1.084-.929-2.478,8.287-3.02a.367.367,0,0,0-.232-.7l-8.287,3.02-.542-1.549A1.892,1.892,0,0,1,19.687,25.007Zm14.87,20.446-3.33-9.061,12.391,5.731ZM30.142,58.7,22.94,38.87,30.3,36.16l3.64,9.913a.167.167,0,0,0,.155.155h0a.27.27,0,0,1,.155.077H34.4l9.913-3.64L47.8,52.191Zm18.432-6.66-3.64-9.913v-.155l-.155-.155-8.829-4.027L44.7,34.611l6.041,16.651Z" transform="translate(-18.611 -20.225)"/>
      </g>
    </g>
    <g id="joe-product-icon_sandwich-4" data-name="joe-product-icon_sandwich" transform="translate(261.983 1006.527) rotate(20)">
      <g id="Group_10-4" data-name="Group 10" transform="translate(0)">
        <path id="Path_19-4" data-name="Path 19" d="M28.894,31.947a.426.426,0,0,0,.387.232h.155l5.808-2.091a.367.367,0,0,0-.232-.7L29.2,31.483C28.972,31.56,28.817,31.792,28.894,31.947Z" transform="translate(-20.926 -22.286)"/>
        <path id="Path_20-4" data-name="Path 20" d="M38.7,33.886h.155l1.859-.7a.367.367,0,0,0-.232-.7l-1.859.7a.345.345,0,0,0-.232.465C38.392,33.808,38.546,33.886,38.7,33.886Z" transform="translate(-23.066 -22.985)"/>
        <path id="Path_21-4" data-name="Path 21" d="M51.672,51.339,45.321,33.991a.345.345,0,0,0-.465-.232h0A2.285,2.285,0,0,0,44.7,32.21,2.35,2.35,0,0,0,43.7,30.893a2.168,2.168,0,0,1-.774-1.007,1.754,1.754,0,0,1-.077-1.239,2.989,2.989,0,0,0-.077-1.626,2.493,2.493,0,0,0-3.175-1.394h0l-1.007.387a1.992,1.992,0,0,1-1.162-.077,1.431,1.431,0,0,1-.852-1.317.63.63,0,0,0-1.007-.465,1.425,1.425,0,0,1-1.549.155,1.356,1.356,0,0,1-.852-1.317.582.582,0,0,0-.387-.542.753.753,0,0,0-.7.077,1.579,1.579,0,0,1-1.549.155,1.408,1.408,0,0,1-.774-.852l-.465-1.317q0-.116-.232-.232a.236.236,0,0,0-.31,0l-8.132,2.866a3.333,3.333,0,0,0-1.7,1.549,2.707,2.707,0,0,0-.077,2.323l1.859,5.034h0l1.162,3.175h0L22.862,38.1l-.62.232a.345.345,0,0,0-.232.465l7.512,20.6a.426.426,0,0,0,.387.232h.155L48.5,52.888,51.44,51.8C51.595,51.726,51.75,51.494,51.672,51.339Zm-9.6-24.086a1.754,1.754,0,0,1,.077,1.239,2.99,2.99,0,0,0,.077,1.626,2.3,2.3,0,0,0,1.007,1.317A2.168,2.168,0,0,1,44,32.442a1.754,1.754,0,0,1,.077,1.239.466.466,0,0,1-.077.31l-1.781.62L39.2,26.479l.62-.232h0A1.816,1.816,0,0,1,42.069,27.253ZM19.687,25.007a2.278,2.278,0,0,1,1.239-1.162l7.745-2.788.31.929a2.278,2.278,0,0,0,1.162,1.239,2.171,2.171,0,0,0,2.168-.155,2.3,2.3,0,0,0,1.317,1.7A2.171,2.171,0,0,0,35.8,24.62a2.141,2.141,0,0,0,1.317,1.7,2.087,2.087,0,0,0,1.317.232l3.02,8.209-6.505,2.4-3.408-1.549,5.808-2.091a.367.367,0,1,0-.232-.7l-7.125,2.556h0l-.232.155h0l-6.118,2.246-.929-2.478,9.216-3.33a.345.345,0,0,0,.232-.465c-.077-.155-.31-.31-.465-.232l-9.216,3.33-.929-2.478,3.1-1.084a.367.367,0,1,0-.232-.7l-3.1,1.084-.929-2.478,8.287-3.02a.367.367,0,0,0-.232-.7l-8.287,3.02-.542-1.549A1.892,1.892,0,0,1,19.687,25.007Zm14.87,20.446-3.33-9.061,12.391,5.731ZM30.142,58.7,22.94,38.87,30.3,36.16l3.64,9.913a.167.167,0,0,0,.155.155h0a.27.27,0,0,1,.155.077H34.4l9.913-3.64L47.8,52.191Zm18.432-6.66-3.64-9.913v-.155l-.155-.155-8.829-4.027L44.7,34.611l6.041,16.651Z" transform="translate(-18.611 -20.225)"/>
      </g>
    </g>
    <g id="joe-product-icon_sandwich-5" data-name="joe-product-icon_sandwich" transform="translate(342.983 1006.527) rotate(20)">
      <g id="Group_10-5" data-name="Group 10" transform="translate(0)">
        <path id="Path_19-5" data-name="Path 19" d="M28.894,31.947a.426.426,0,0,0,.387.232h.155l5.808-2.091a.367.367,0,0,0-.232-.7L29.2,31.483C28.972,31.56,28.817,31.792,28.894,31.947Z" transform="translate(-20.926 -22.286)"/>
        <path id="Path_20-5" data-name="Path 20" d="M38.7,33.886h.155l1.859-.7a.367.367,0,0,0-.232-.7l-1.859.7a.345.345,0,0,0-.232.465C38.392,33.808,38.546,33.886,38.7,33.886Z" transform="translate(-23.066 -22.985)"/>
        <path id="Path_21-5" data-name="Path 21" d="M51.672,51.339,45.321,33.991a.345.345,0,0,0-.465-.232h0A2.285,2.285,0,0,0,44.7,32.21,2.35,2.35,0,0,0,43.7,30.893a2.168,2.168,0,0,1-.774-1.007,1.754,1.754,0,0,1-.077-1.239,2.989,2.989,0,0,0-.077-1.626,2.493,2.493,0,0,0-3.175-1.394h0l-1.007.387a1.992,1.992,0,0,1-1.162-.077,1.431,1.431,0,0,1-.852-1.317.63.63,0,0,0-1.007-.465,1.425,1.425,0,0,1-1.549.155,1.356,1.356,0,0,1-.852-1.317.582.582,0,0,0-.387-.542.753.753,0,0,0-.7.077,1.579,1.579,0,0,1-1.549.155,1.408,1.408,0,0,1-.774-.852l-.465-1.317q0-.116-.232-.232a.236.236,0,0,0-.31,0l-8.132,2.866a3.333,3.333,0,0,0-1.7,1.549,2.707,2.707,0,0,0-.077,2.323l1.859,5.034h0l1.162,3.175h0L22.862,38.1l-.62.232a.345.345,0,0,0-.232.465l7.512,20.6a.426.426,0,0,0,.387.232h.155L48.5,52.888,51.44,51.8C51.595,51.726,51.75,51.494,51.672,51.339Zm-9.6-24.086a1.754,1.754,0,0,1,.077,1.239,2.99,2.99,0,0,0,.077,1.626,2.3,2.3,0,0,0,1.007,1.317A2.168,2.168,0,0,1,44,32.442a1.754,1.754,0,0,1,.077,1.239.466.466,0,0,1-.077.31l-1.781.62L39.2,26.479l.62-.232h0A1.816,1.816,0,0,1,42.069,27.253ZM19.687,25.007a2.278,2.278,0,0,1,1.239-1.162l7.745-2.788.31.929a2.278,2.278,0,0,0,1.162,1.239,2.171,2.171,0,0,0,2.168-.155,2.3,2.3,0,0,0,1.317,1.7A2.171,2.171,0,0,0,35.8,24.62a2.141,2.141,0,0,0,1.317,1.7,2.087,2.087,0,0,0,1.317.232l3.02,8.209-6.505,2.4-3.408-1.549,5.808-2.091a.367.367,0,1,0-.232-.7l-7.125,2.556h0l-.232.155h0l-6.118,2.246-.929-2.478,9.216-3.33a.345.345,0,0,0,.232-.465c-.077-.155-.31-.31-.465-.232l-9.216,3.33-.929-2.478,3.1-1.084a.367.367,0,1,0-.232-.7l-3.1,1.084-.929-2.478,8.287-3.02a.367.367,0,0,0-.232-.7l-8.287,3.02-.542-1.549A1.892,1.892,0,0,1,19.687,25.007Zm14.87,20.446-3.33-9.061,12.391,5.731ZM30.142,58.7,22.94,38.87,30.3,36.16l3.64,9.913a.167.167,0,0,0,.155.155h0a.27.27,0,0,1,.155.077H34.4l9.913-3.64L47.8,52.191Zm18.432-6.66-3.64-9.913v-.155l-.155-.155-8.829-4.027L44.7,34.611l6.041,16.651Z" transform="translate(-18.611 -20.225)"/>
      </g>
    </g>
    <g id="joe-product-icon_sandwich-6" data-name="joe-product-icon_sandwich" transform="translate(425.983 1006.527) rotate(20)">
      <g id="Group_10-6" data-name="Group 10" transform="translate(0)">
        <path id="Path_19-6" data-name="Path 19" d="M28.894,31.947a.426.426,0,0,0,.387.232h.155l5.808-2.091a.367.367,0,0,0-.232-.7L29.2,31.483C28.972,31.56,28.817,31.792,28.894,31.947Z" transform="translate(-20.926 -22.286)"/>
        <path id="Path_20-6" data-name="Path 20" d="M38.7,33.886h.155l1.859-.7a.367.367,0,0,0-.232-.7l-1.859.7a.345.345,0,0,0-.232.465C38.392,33.808,38.546,33.886,38.7,33.886Z" transform="translate(-23.066 -22.985)"/>
        <path id="Path_21-6" data-name="Path 21" d="M51.672,51.339,45.321,33.991a.345.345,0,0,0-.465-.232h0A2.285,2.285,0,0,0,44.7,32.21,2.35,2.35,0,0,0,43.7,30.893a2.168,2.168,0,0,1-.774-1.007,1.754,1.754,0,0,1-.077-1.239,2.989,2.989,0,0,0-.077-1.626,2.493,2.493,0,0,0-3.175-1.394h0l-1.007.387a1.992,1.992,0,0,1-1.162-.077,1.431,1.431,0,0,1-.852-1.317.63.63,0,0,0-1.007-.465,1.425,1.425,0,0,1-1.549.155,1.356,1.356,0,0,1-.852-1.317.582.582,0,0,0-.387-.542.753.753,0,0,0-.7.077,1.579,1.579,0,0,1-1.549.155,1.408,1.408,0,0,1-.774-.852l-.465-1.317q0-.116-.232-.232a.236.236,0,0,0-.31,0l-8.132,2.866a3.333,3.333,0,0,0-1.7,1.549,2.707,2.707,0,0,0-.077,2.323l1.859,5.034h0l1.162,3.175h0L22.862,38.1l-.62.232a.345.345,0,0,0-.232.465l7.512,20.6a.426.426,0,0,0,.387.232h.155L48.5,52.888,51.44,51.8C51.595,51.726,51.75,51.494,51.672,51.339Zm-9.6-24.086a1.754,1.754,0,0,1,.077,1.239,2.99,2.99,0,0,0,.077,1.626,2.3,2.3,0,0,0,1.007,1.317A2.168,2.168,0,0,1,44,32.442a1.754,1.754,0,0,1,.077,1.239.466.466,0,0,1-.077.31l-1.781.62L39.2,26.479l.62-.232h0A1.816,1.816,0,0,1,42.069,27.253ZM19.687,25.007a2.278,2.278,0,0,1,1.239-1.162l7.745-2.788.31.929a2.278,2.278,0,0,0,1.162,1.239,2.171,2.171,0,0,0,2.168-.155,2.3,2.3,0,0,0,1.317,1.7A2.171,2.171,0,0,0,35.8,24.62a2.141,2.141,0,0,0,1.317,1.7,2.087,2.087,0,0,0,1.317.232l3.02,8.209-6.505,2.4-3.408-1.549,5.808-2.091a.367.367,0,1,0-.232-.7l-7.125,2.556h0l-.232.155h0l-6.118,2.246-.929-2.478,9.216-3.33a.345.345,0,0,0,.232-.465c-.077-.155-.31-.31-.465-.232l-9.216,3.33-.929-2.478,3.1-1.084a.367.367,0,1,0-.232-.7l-3.1,1.084-.929-2.478,8.287-3.02a.367.367,0,0,0-.232-.7l-8.287,3.02-.542-1.549A1.892,1.892,0,0,1,19.687,25.007Zm14.87,20.446-3.33-9.061,12.391,5.731ZM30.142,58.7,22.94,38.87,30.3,36.16l3.64,9.913a.167.167,0,0,0,.155.155h0a.27.27,0,0,1,.155.077H34.4l9.913-3.64L47.8,52.191Zm18.432-6.66-3.64-9.913v-.155l-.155-.155-8.829-4.027L44.7,34.611l6.041,16.651Z" transform="translate(-18.611 -20.225)"/>
      </g>
    </g>
    <text id="_5_X_JUICES_SHAKES_12oz_5_X_SANDWICHES_EXTRA_INGREDIENT_TOPPING" data-name="5 X JUICES/SHAKES (12oz)  
5 X SANDWICHES 
+ EXTRA INGREDIENT / TOPPING" class="cls-10" transform="translate(155 931)"><tspan x="0" y="13" xml:space="preserve">5 X JUICES/SHAKES (12oz)  </tspan><tspan x="0" y="29">5 X SANDWICHES </tspan><tspan x="0" y="45">+ EXTRA INGREDIENT / TOPPING</tspan></text>
    <line id="Line_35" data-name="Line 35" class="cls-11" x2="104" y2="30" transform="translate(375.5 934.5)"/>
    <line id="Line_34" data-name="Line 34" class="cls-11" y1="30" x2="102" transform="translate(375.5 934.5)"/>
  </g>
</svg>
