<svg xmlns="http://www.w3.org/2000/svg" xmlns:xlink="http://www.w3.org/1999/xlink" viewBox="0 0 489 268">
  <defs>
    <style>
      .cls-1 {
        fill: #f6bbd0;
        stroke: #f6bbd0;
      }

      .cls-2 {
        font-size: 14px;
        font-family: Roboto-Regular, Roboto;
      }

      .cls-3, .cls-8 {
        fill: #fff;
      }

      .cls-3, .cls-7 {
        stroke: #fff;
      }

      .cls-4 {
        font-size: 16px;
        font-family: Roboto-Bold, Roboto;
        font-weight: 700;
      }

      .cls-11, .cls-5, .cls-7 {
        fill: none;
      }

      .cls-5 {
        stroke: #707070;
      }

      .cls-6 {
        fill: #707070;
        font-size: 10px;
      }

      .cls-6, .cls-9 {
        font-family: Roboto-Light, Roboto;
        font-weight: 300;
      }

      .cls-9 {
        font-size: 12px;
      }

      .cls-10 {
        stroke: none;
      }

      .cls-12 {
        filter: url(#Rectangle_1465);
      }
    </style>
    <filter id="Rectangle_1465" x="0" y="0" width="489" height="268" filterUnits="userSpaceOnUse">
      <feOffset dx="4" dy="4" input="SourceAlpha"/>
      <feGaussianBlur stdDeviation="2" result="blur"/>
      <feFlood flood-opacity="0.161"/>
      <feComposite operator="in" in2="blur"/>
      <feComposite in="SourceGraphic"/>
    </filter>
  </defs>
  <g id="Group_21" data-name="Group 21" transform="translate(-22 -19)">
    <g class="cls-12" transform="matrix(1, 0, 0, 1, 22, 19)">
      <g id="Rectangle_1465-2" data-name="Rectangle 1465" class="cls-1" transform="translate(2 2)">
        <rect class="cls-10" width="477" height="256" rx="18"/>
        <rect class="cls-11" x="0.5" y="0.5" width="476" height="255" rx="17.5"/>
      </g>
    </g>
    <text id="JUICE_SHAKE" data-name="JUICE / SHAKE" class="cls-2" transform="translate(80 46)"><tspan x="0" y="13">JUICE / SHAKE</tspan></text>
    <g id="Group_13" data-name="Group 13" transform="translate(-100 -106)">
      <g id="Rectangle_1460" data-name="Rectangle 1460" class="cls-3" transform="translate(167 271)">
        <rect class="cls-10" width="63" height="60"/>
        <rect class="cls-11" x="0.5" y="0.5" width="62" height="59"/>
      </g>
      <g id="Rectangle_1461" data-name="Rectangle 1461" class="cls-3" transform="translate(249 271)">
        <rect class="cls-10" width="63" height="60"/>
        <rect class="cls-11" x="0.5" y="0.5" width="62" height="59"/>
      </g>
      <g id="Rectangle_1462" data-name="Rectangle 1462" class="cls-3" transform="translate(331 271)">
        <rect class="cls-10" width="63" height="60"/>
        <rect class="cls-11" x="0.5" y="0.5" width="62" height="59"/>
      </g>
      <g id="Rectangle_1463" data-name="Rectangle 1463" class="cls-3" transform="translate(413 271)">
        <rect class="cls-10" width="63" height="60"/>
        <rect class="cls-11" x="0.5" y="0.5" width="62" height="59"/>
      </g>
      <g id="Rectangle_1464" data-name="Rectangle 1464" class="cls-3" transform="translate(495 271)">
        <rect class="cls-10" width="63" height="60"/>
        <rect class="cls-11" x="0.5" y="0.5" width="62" height="59"/>
      </g>
    </g>
    <text id="PRICE" class="cls-2" transform="translate(45 105)"><tspan x="0" y="13">PRICE</tspan></text>
    <text id="NORMAL_PRICE" data-name="NORMAL PRICE" class="cls-2" transform="translate(45 130)"><tspan x="0" y="13">NORMAL PRICE</tspan></text>
    <text id="_180_kr" data-name="180 kr" class="cls-4" transform="translate(431 103)"><tspan x="0" y="15">180 kr</tspan></text>
    <text id="_250_kr" data-name="250 kr" class="cls-4" transform="translate(432 128)"><tspan x="0" y="15">250 kr</tspan></text>
    <line id="Line_2" data-name="Line 2" class="cls-5" x2="50" y2="22" transform="translate(429.5 124.5)"/>
    <line id="Line_3" data-name="Line 3" class="cls-5" y1="23" x2="50" transform="translate(429.5 126.5)"/>
    <text id="_JOEANDTHEJUICE_JOEANDTHEJUICE_JOEJUICE.COM_" data-name="#JOEANDTHEJUICE  |  @JOEANDTHEJUICE  |  JOEJUICE.COM " class="cls-6" transform="translate(125 238)"><tspan x="0" y="9" xml:space="preserve">#JOEANDTHEJUICE  |  @JOEANDTHEJUICE  |  JOEJUICE.COM </tspan></text>
    <g id="Ellipse_2" data-name="Ellipse 2" class="cls-7" transform="translate(467 243)">
      <circle class="cls-10" cx="10.5" cy="10.5" r="10.5"/>
      <circle class="cls-11" cx="10.5" cy="10.5" r="10"/>
    </g>
    <line id="Line_4" data-name="Line 4" class="cls-7" x2="14" transform="translate(470.5 253.5)"/>
    <line id="Line_5" data-name="Line 5" class="cls-7" y2="14" transform="translate(477.5 246.5)"/>
    <g id="a8a7e8aaaec4f29003dae50dd72da3d8" transform="translate(28.668 232.668)">
      <path id="Path_33" data-name="Path 33" class="cls-8" d="M17.616,17.616H10V10h7.616Zm-6.193-1.423h4.768v-4.77H11.423v4.77Z"/>
      <path id="Path_34" data-name="Path 34" class="cls-8" d="M132.4,132.4h2.539v2.539H132.4Z" transform="translate(-119.861 -119.861)"/>
      <path id="Path_35" data-name="Path 35" class="cls-8" d="M17.616,629.439H10V621.8h7.616Zm-6.193-1.423h4.768v-4.793H11.423v4.793Z" transform="translate(0 -599.107)"/>
      <path id="Path_36" data-name="Path 36" class="cls-8" d="M132.4,745.3h2.539v2.515H132.4Z" transform="translate(-119.861 -720.044)"/>
      <path id="Path_37" data-name="Path 37" class="cls-8" d="M629.439,17.616H621.8V10h7.639Zm-6.216-1.423h4.793v-4.77h-4.793Z" transform="translate(-599.107)"/>
      <path id="Path_38" data-name="Path 38" class="cls-8" d="M745.3,132.4h2.515v2.539H745.3Z" transform="translate(-720.044 -119.861)"/>
      <path id="Path_39" data-name="Path 39" class="cls-8" d="M10,377.1h2.539v2.562H10Z" transform="translate(0 -359.484)"/>
      <path id="Path_40" data-name="Path 40" class="cls-8" d="M254.7,500.6h2.539v2.515H254.7V500.6Z" transform="translate(-239.623 -480.421)"/>
      <path id="Path_41" data-name="Path 41" class="cls-8" d="M500.6,10h2.515v2.539H500.6Z" transform="translate(-480.421)"/>
      <path id="Path_42" data-name="Path 42" class="cls-8" d="M377.1,254.7h2.562v2.539H377.1Z" transform="translate(-359.484 -239.623)"/>
      <path id="Path_43" data-name="Path 43" class="cls-8" d="M500.6,866.5h2.515v2.562H500.6Z" transform="translate(-480.421 -838.73)"/>
      <path id="Path_44" data-name="Path 44" class="cls-8" d="M745.3,866.5h5.077v2.562H745.3Z" transform="translate(-720.044 -838.73)"/>
      <path id="Path_45" data-name="Path 45" class="cls-8" d="M500.6,621.8h5.077v2.562H500.6Z" transform="translate(-480.421 -599.107)"/>
      <path id="Path_46" data-name="Path 46" class="cls-8" d="M745.3,621.8h2.515v5.077H745.3Z" transform="translate(-720.044 -599.107)"/>
      <path id="Path_47" data-name="Path 47" class="cls-8" d="M855.1,621.8h2.8v2.562h-2.8Z" transform="translate(-827.566 -599.107)"/>
      <path id="Path_48" data-name="Path 48" class="cls-8" d="M500.6,377.1h2.515v2.562H500.6Z" transform="translate(-480.421 -359.484)"/>
      <path id="Path_49" data-name="Path 49" class="cls-8" d="M621.8,500.6h2.562v2.515H621.8V500.6Z" transform="translate(-599.107 -480.421)"/>
      <path id="Path_50" data-name="Path 50" class="cls-8" d="M745.3,377.1h2.515v2.562H745.3Z" transform="translate(-720.044 -359.484)"/>
      <path id="Path_51" data-name="Path 51" class="cls-8" d="M866.5,500.6h2.562v2.515H866.5V500.6Z" transform="translate(-838.73 -480.421)"/>
    </g>
    <g id="joe-product-icon_shake" transform="translate(30.668 33.371)">
      <g id="Group_11" data-name="Group 11" transform="translate(0 0)">
        <path id="Path_22" data-name="Path 22" d="M55.136,36.989a.458.458,0,1,0-.647.647,12.951,12.951,0,0,1,2.4,13.134.388.388,0,0,0,.277.555h.185a.509.509,0,0,0,.462-.277,14.362,14.362,0,0,0,.832-4.9A13.512,13.512,0,0,0,55.136,36.989Z" transform="translate(-20.227 -11.056)"/>
        <path id="Path_23" data-name="Path 23" d="M55.039,32.092a.462.462,0,0,0-.555.74,16.123,16.123,0,0,1,6.475,13.042,16.905,16.905,0,0,1-2.59,8.972.457.457,0,0,0,.092.647.34.34,0,0,0,.277.092.481.481,0,0,0,.37-.185,17.053,17.053,0,0,0,2.775-9.434A16.757,16.757,0,0,0,55.039,32.092Z" transform="translate(-20.223 -10.691)"/>
        <path id="Path_24" data-name="Path 24" d="M27.736,60.757a.323.323,0,0,1,.185.092c.185,0,.277-.092.37-.277a.613.613,0,0,0-.185-.647,12.437,12.437,0,0,1-5.735-7.03,15.345,15.345,0,0,1-.647-4.532.462.462,0,1,0-.925,0,14.6,14.6,0,0,0,.647,4.9A14.035,14.035,0,0,0,27.736,60.757Z" transform="translate(-17.708 -11.885)"/>
        <path id="Path_25" data-name="Path 25" d="M29.244,63.862A15.219,15.219,0,0,1,19.162,53.687a16.379,16.379,0,0,1-.185-9.434c.092-.277-.092-.462-.37-.555s-.462.092-.555.37a17.193,17.193,0,0,0,.277,9.9A16.24,16.24,0,0,0,28.966,64.694h.092a.472.472,0,0,0,.462-.37C29.614,64.232,29.429,63.954,29.244,63.862Z" transform="translate(-17.458 -11.568)"/>
        <path id="Path_26" data-name="Path 26" d="M47.116,34.248c0-.092-.092-.185-.092-.277h.185a1.035,1.035,0,0,0,.647-1.295l-.647-1.757a1.06,1.06,0,0,0-1.2-.647h0c-2.22-4.347-6.937-6.937-11.377-6.2l-1.665.555-1.017-6.1,3.422-8.972a.439.439,0,1,0-.832-.277l-3.422,8.972a1.173,1.173,0,0,0-.092.555l1.11,6.2-1.757.647c-3.792,2.22-5.827,7.4-4.717,12.117a1.115,1.115,0,0,0-.462.462,1.283,1.283,0,0,0,0,.832l.647,1.757a1,1,0,0,0,1.017.647.556.556,0,0,0,.37-.092l.185-.092a.34.34,0,0,0,.092.277L39.716,65.881a1.017,1.017,0,0,0,.925.555.7.7,0,0,0,.37-.092L52.48,62.182a1.06,1.06,0,0,0,.647-1.2ZM30.652,26.386l4.162-1.48c3.885-.647,8.232,1.757,10.267,5.642l-16.187,5.92a4.886,4.886,0,0,1-.092-1.2,7.624,7.624,0,0,1,2.867-6.382.462.462,0,1,0-.555-.74,8.656,8.656,0,0,0-3.33,7.122,8.1,8.1,0,0,0,.185,1.48L26.3,37.3C25.472,33.046,27.322,28.421,30.652,26.386ZM26.674,40.445c-.092,0-.092,0-.185-.092l-.647-1.85.092-.092L46.1,31.1h0a.091.091,0,0,1,.092.092l.647,1.757c0,.092,0,.092-.092.185L30.837,38.965l-3.052,1.11h0Zm25.251,20.9L40.456,65.511a.091.091,0,0,1-.092-.092L31.946,48.677a1.683,1.683,0,0,1,1.017-.37,1.618,1.618,0,0,1,1.295.647,2.472,2.472,0,0,0,3.7,0,1.618,1.618,0,0,1,1.295-.647.462.462,0,1,0,0-.925,2.5,2.5,0,0,0-1.85.832,1.619,1.619,0,0,1-2.59,0,2.5,2.5,0,0,0-1.85-.832,1.915,1.915,0,0,0-1.387.462l-3.422-6.752v-.185h0l18.036-6.567a.091.091,0,0,1,.092.092l1.757,8.325a3.245,3.245,0,0,1-.74-.462,2.472,2.472,0,0,0-3.7,0,1.619,1.619,0,0,1-2.59,0,2.5,2.5,0,0,0-1.85-.832.462.462,0,0,0,0,.925,1.618,1.618,0,0,1,1.295.647,2.472,2.472,0,0,0,3.7,0,1.619,1.619,0,0,1,2.59,0,2.584,2.584,0,0,0,1.572.832l3.7,17.389A.091.091,0,0,0,51.925,61.349Z" transform="translate(-18.034 -8.962)"/>
      </g>
    </g>
    <g id="joe-product-icon_shake-2" data-name="joe-product-icon_shake" transform="translate(80.113 169.504)">
      <g id="Group_11-2" data-name="Group 11" transform="translate(0 0)">
        <path id="Path_22-2" data-name="Path 22" d="M55.052,36.974a.409.409,0,0,0-.578.578,11.569,11.569,0,0,1,2.148,11.733.346.346,0,0,0,.248.5h.165a.454.454,0,0,0,.413-.248,12.829,12.829,0,0,0,.744-4.379A12.07,12.07,0,0,0,55.052,36.974Z" transform="translate(-23.868 -13.808)"/>
        <path id="Path_23-2" data-name="Path 23" d="M54.959,32.081a.413.413,0,0,0-.5.661,14.4,14.4,0,0,1,5.784,11.65,15.1,15.1,0,0,1-2.314,8.015.408.408,0,0,0,.083.578.3.3,0,0,0,.248.083.429.429,0,0,0,.33-.165,15.234,15.234,0,0,0,2.479-8.428A14.969,14.969,0,0,0,54.959,32.081Z" transform="translate(-23.858 -12.964)"/>
        <path id="Path_24-2" data-name="Path 24" d="M26.994,59.385a.288.288,0,0,1,.165.083c.165,0,.248-.083.331-.248a.548.548,0,0,0-.165-.578,11.11,11.11,0,0,1-5.123-6.28,13.708,13.708,0,0,1-.578-4.049.413.413,0,1,0-.826,0,13.042,13.042,0,0,0,.578,4.379A12.538,12.538,0,0,0,26.994,59.385Z" transform="translate(-18.036 -15.728)"/>
        <path id="Path_25-2" data-name="Path 25" d="M27.986,61.708a13.6,13.6,0,0,1-9.006-9.089,14.631,14.631,0,0,1-.165-8.428c.083-.248-.083-.413-.331-.5s-.413.083-.5.331a15.358,15.358,0,0,0,.248,8.841,14.507,14.507,0,0,0,9.5,9.585h.083a.422.422,0,0,0,.413-.33C28.317,62.038,28.151,61.79,27.986,61.708Z" transform="translate(-17.458 -14.994)"/>
        <path id="Path_26-2" data-name="Path 26" d="M44.769,31.55c0-.083-.083-.165-.083-.248h.165a.925.925,0,0,0,.578-1.157l-.578-1.57A.947.947,0,0,0,43.778,28h0a9.959,9.959,0,0,0-10.163-5.536l-1.487.5L31.219,17.5l3.057-8.015a.392.392,0,1,0-.744-.248l-3.057,8.015a1.048,1.048,0,0,0-.083.5l.992,5.536-1.57.578c-3.388,1.983-5.205,6.61-4.214,10.824a1,1,0,0,0-.413.413,1.146,1.146,0,0,0,0,.744l.578,1.57a.894.894,0,0,0,.909.578.5.5,0,0,0,.33-.083l.165-.083a.3.3,0,0,0,.083.248l10.907,21.73a.909.909,0,0,0,.826.5.625.625,0,0,0,.331-.083L49.561,56.5a.947.947,0,0,0,.578-1.074ZM30.062,24.527l3.718-1.322c3.47-.578,7.354,1.57,9.171,5.04L28.492,33.533a4.365,4.365,0,0,1-.083-1.074,6.81,6.81,0,0,1,2.561-5.7.413.413,0,1,0-.5-.661A7.733,7.733,0,0,0,27.5,32.459a7.232,7.232,0,0,0,.165,1.322l-1.487.5C25.435,30.476,27.087,26.345,30.062,24.527ZM26.509,37.086c-.083,0-.083,0-.165-.083l-.578-1.653.083-.083L43.86,28.741h0a.081.081,0,0,1,.083.083l.578,1.57c0,.083,0,.083-.083.165L30.227,35.764l-2.727.991h0ZM49.066,55.759,38.82,59.478a.081.081,0,0,1-.083-.083L31.219,44.44a1.5,1.5,0,0,1,.909-.33,1.446,1.446,0,0,1,1.157.578,2.208,2.208,0,0,0,3.305,0,1.446,1.446,0,0,1,1.157-.578.413.413,0,0,0,0-.826,2.229,2.229,0,0,0-1.653.744,1.446,1.446,0,0,1-2.314,0,2.229,2.229,0,0,0-1.653-.744,1.71,1.71,0,0,0-1.239.413l-3.057-6.032V37.5h0l16.112-5.866a.081.081,0,0,1,.083.083l1.57,7.436a2.9,2.9,0,0,1-.661-.413,2.208,2.208,0,0,0-3.305,0,1.446,1.446,0,0,1-2.314,0,2.229,2.229,0,0,0-1.653-.744.413.413,0,0,0,0,.826,1.446,1.446,0,0,1,1.157.578,2.208,2.208,0,0,0,3.305,0,1.446,1.446,0,0,1,2.314,0,2.309,2.309,0,0,0,1.4.744l3.305,15.534A.081.081,0,0,0,49.066,55.759Z" transform="translate(-18.791 -8.962)"/>
      </g>
    </g>
    <g id="joe-product-icon_shake-3" data-name="joe-product-icon_shake" transform="translate(162.113 169.504)">
      <g id="Group_11-3" data-name="Group 11" transform="translate(0 0)">
        <path id="Path_22-3" data-name="Path 22" d="M55.052,36.974a.409.409,0,0,0-.578.578,11.569,11.569,0,0,1,2.148,11.733.346.346,0,0,0,.248.5h.165a.454.454,0,0,0,.413-.248,12.829,12.829,0,0,0,.744-4.379A12.07,12.07,0,0,0,55.052,36.974Z" transform="translate(-23.868 -13.808)"/>
        <path id="Path_23-3" data-name="Path 23" d="M54.959,32.081a.413.413,0,0,0-.5.661,14.4,14.4,0,0,1,5.784,11.65,15.1,15.1,0,0,1-2.314,8.015.408.408,0,0,0,.083.578.3.3,0,0,0,.248.083.429.429,0,0,0,.33-.165,15.234,15.234,0,0,0,2.479-8.428A14.969,14.969,0,0,0,54.959,32.081Z" transform="translate(-23.858 -12.964)"/>
        <path id="Path_24-3" data-name="Path 24" d="M26.994,59.385a.288.288,0,0,1,.165.083c.165,0,.248-.083.331-.248a.548.548,0,0,0-.165-.578,11.11,11.11,0,0,1-5.123-6.28,13.708,13.708,0,0,1-.578-4.049.413.413,0,1,0-.826,0,13.042,13.042,0,0,0,.578,4.379A12.538,12.538,0,0,0,26.994,59.385Z" transform="translate(-18.036 -15.728)"/>
        <path id="Path_25-3" data-name="Path 25" d="M27.986,61.708a13.6,13.6,0,0,1-9.006-9.089,14.631,14.631,0,0,1-.165-8.428c.083-.248-.083-.413-.331-.5s-.413.083-.5.331a15.358,15.358,0,0,0,.248,8.841,14.507,14.507,0,0,0,9.5,9.585h.083a.422.422,0,0,0,.413-.33C28.317,62.038,28.151,61.79,27.986,61.708Z" transform="translate(-17.458 -14.994)"/>
        <path id="Path_26-3" data-name="Path 26" d="M44.769,31.55c0-.083-.083-.165-.083-.248h.165a.925.925,0,0,0,.578-1.157l-.578-1.57A.947.947,0,0,0,43.778,28h0a9.959,9.959,0,0,0-10.163-5.536l-1.487.5L31.219,17.5l3.057-8.015a.392.392,0,1,0-.744-.248l-3.057,8.015a1.048,1.048,0,0,0-.083.5l.992,5.536-1.57.578c-3.388,1.983-5.205,6.61-4.214,10.824a1,1,0,0,0-.413.413,1.146,1.146,0,0,0,0,.744l.578,1.57a.894.894,0,0,0,.909.578.5.5,0,0,0,.33-.083l.165-.083a.3.3,0,0,0,.083.248l10.907,21.73a.909.909,0,0,0,.826.5.625.625,0,0,0,.331-.083L49.561,56.5a.947.947,0,0,0,.578-1.074ZM30.062,24.527l3.718-1.322c3.47-.578,7.354,1.57,9.171,5.04L28.492,33.533a4.365,4.365,0,0,1-.083-1.074,6.81,6.81,0,0,1,2.561-5.7.413.413,0,1,0-.5-.661A7.733,7.733,0,0,0,27.5,32.459a7.232,7.232,0,0,0,.165,1.322l-1.487.5C25.435,30.476,27.087,26.345,30.062,24.527ZM26.509,37.086c-.083,0-.083,0-.165-.083l-.578-1.653.083-.083L43.86,28.741h0a.081.081,0,0,1,.083.083l.578,1.57c0,.083,0,.083-.083.165L30.227,35.764l-2.727.991h0ZM49.066,55.759,38.82,59.478a.081.081,0,0,1-.083-.083L31.219,44.44a1.5,1.5,0,0,1,.909-.33,1.446,1.446,0,0,1,1.157.578,2.208,2.208,0,0,0,3.305,0,1.446,1.446,0,0,1,1.157-.578.413.413,0,0,0,0-.826,2.229,2.229,0,0,0-1.653.744,1.446,1.446,0,0,1-2.314,0,2.229,2.229,0,0,0-1.653-.744,1.71,1.71,0,0,0-1.239.413l-3.057-6.032V37.5h0l16.112-5.866a.081.081,0,0,1,.083.083l1.57,7.436a2.9,2.9,0,0,1-.661-.413,2.208,2.208,0,0,0-3.305,0,1.446,1.446,0,0,1-2.314,0,2.229,2.229,0,0,0-1.653-.744.413.413,0,0,0,0,.826,1.446,1.446,0,0,1,1.157.578,2.208,2.208,0,0,0,3.305,0,1.446,1.446,0,0,1,2.314,0,2.309,2.309,0,0,0,1.4.744l3.305,15.534A.081.081,0,0,0,49.066,55.759Z" transform="translate(-18.791 -8.962)"/>
      </g>
    </g>
    <g id="joe-product-icon_shake-4" data-name="joe-product-icon_shake" transform="translate(244.113 169.504)">
      <g id="Group_11-4" data-name="Group 11" transform="translate(0 0)">
        <path id="Path_22-4" data-name="Path 22" d="M55.052,36.974a.409.409,0,0,0-.578.578,11.569,11.569,0,0,1,2.148,11.733.346.346,0,0,0,.248.5h.165a.454.454,0,0,0,.413-.248,12.829,12.829,0,0,0,.744-4.379A12.07,12.07,0,0,0,55.052,36.974Z" transform="translate(-23.868 -13.808)"/>
        <path id="Path_23-4" data-name="Path 23" d="M54.959,32.081a.413.413,0,0,0-.5.661,14.4,14.4,0,0,1,5.784,11.65,15.1,15.1,0,0,1-2.314,8.015.408.408,0,0,0,.083.578.3.3,0,0,0,.248.083.429.429,0,0,0,.33-.165,15.234,15.234,0,0,0,2.479-8.428A14.969,14.969,0,0,0,54.959,32.081Z" transform="translate(-23.858 -12.964)"/>
        <path id="Path_24-4" data-name="Path 24" d="M26.994,59.385a.288.288,0,0,1,.165.083c.165,0,.248-.083.331-.248a.548.548,0,0,0-.165-.578,11.11,11.11,0,0,1-5.123-6.28,13.708,13.708,0,0,1-.578-4.049.413.413,0,1,0-.826,0,13.042,13.042,0,0,0,.578,4.379A12.538,12.538,0,0,0,26.994,59.385Z" transform="translate(-18.036 -15.728)"/>
        <path id="Path_25-4" data-name="Path 25" d="M27.986,61.708a13.6,13.6,0,0,1-9.006-9.089,14.631,14.631,0,0,1-.165-8.428c.083-.248-.083-.413-.331-.5s-.413.083-.5.331a15.358,15.358,0,0,0,.248,8.841,14.507,14.507,0,0,0,9.5,9.585h.083a.422.422,0,0,0,.413-.33C28.317,62.038,28.151,61.79,27.986,61.708Z" transform="translate(-17.458 -14.994)"/>
        <path id="Path_26-4" data-name="Path 26" d="M44.769,31.55c0-.083-.083-.165-.083-.248h.165a.925.925,0,0,0,.578-1.157l-.578-1.57A.947.947,0,0,0,43.778,28h0a9.959,9.959,0,0,0-10.163-5.536l-1.487.5L31.219,17.5l3.057-8.015a.392.392,0,1,0-.744-.248l-3.057,8.015a1.048,1.048,0,0,0-.083.5l.992,5.536-1.57.578c-3.388,1.983-5.205,6.61-4.214,10.824a1,1,0,0,0-.413.413,1.146,1.146,0,0,0,0,.744l.578,1.57a.894.894,0,0,0,.909.578.5.5,0,0,0,.33-.083l.165-.083a.3.3,0,0,0,.083.248l10.907,21.73a.909.909,0,0,0,.826.5.625.625,0,0,0,.331-.083L49.561,56.5a.947.947,0,0,0,.578-1.074ZM30.062,24.527l3.718-1.322c3.47-.578,7.354,1.57,9.171,5.04L28.492,33.533a4.365,4.365,0,0,1-.083-1.074,6.81,6.81,0,0,1,2.561-5.7.413.413,0,1,0-.5-.661A7.733,7.733,0,0,0,27.5,32.459a7.232,7.232,0,0,0,.165,1.322l-1.487.5C25.435,30.476,27.087,26.345,30.062,24.527ZM26.509,37.086c-.083,0-.083,0-.165-.083l-.578-1.653.083-.083L43.86,28.741h0a.081.081,0,0,1,.083.083l.578,1.57c0,.083,0,.083-.083.165L30.227,35.764l-2.727.991h0ZM49.066,55.759,38.82,59.478a.081.081,0,0,1-.083-.083L31.219,44.44a1.5,1.5,0,0,1,.909-.33,1.446,1.446,0,0,1,1.157.578,2.208,2.208,0,0,0,3.305,0,1.446,1.446,0,0,1,1.157-.578.413.413,0,0,0,0-.826,2.229,2.229,0,0,0-1.653.744,1.446,1.446,0,0,1-2.314,0,2.229,2.229,0,0,0-1.653-.744,1.71,1.71,0,0,0-1.239.413l-3.057-6.032V37.5h0l16.112-5.866a.081.081,0,0,1,.083.083l1.57,7.436a2.9,2.9,0,0,1-.661-.413,2.208,2.208,0,0,0-3.305,0,1.446,1.446,0,0,1-2.314,0,2.229,2.229,0,0,0-1.653-.744.413.413,0,0,0,0,.826,1.446,1.446,0,0,1,1.157.578,2.208,2.208,0,0,0,3.305,0,1.446,1.446,0,0,1,2.314,0,2.309,2.309,0,0,0,1.4.744l3.305,15.534A.081.081,0,0,0,49.066,55.759Z" transform="translate(-18.791 -8.962)"/>
      </g>
    </g>
    <g id="joe-product-icon_shake-5" data-name="joe-product-icon_shake" transform="translate(326.113 169.504)">
      <g id="Group_11-5" data-name="Group 11" transform="translate(0 0)">
        <path id="Path_22-5" data-name="Path 22" d="M55.052,36.974a.409.409,0,0,0-.578.578,11.569,11.569,0,0,1,2.148,11.733.346.346,0,0,0,.248.5h.165a.454.454,0,0,0,.413-.248,12.829,12.829,0,0,0,.744-4.379A12.07,12.07,0,0,0,55.052,36.974Z" transform="translate(-23.868 -13.808)"/>
        <path id="Path_23-5" data-name="Path 23" d="M54.959,32.081a.413.413,0,0,0-.5.661,14.4,14.4,0,0,1,5.784,11.65,15.1,15.1,0,0,1-2.314,8.015.408.408,0,0,0,.083.578.3.3,0,0,0,.248.083.429.429,0,0,0,.33-.165,15.234,15.234,0,0,0,2.479-8.428A14.969,14.969,0,0,0,54.959,32.081Z" transform="translate(-23.858 -12.964)"/>
        <path id="Path_24-5" data-name="Path 24" d="M26.994,59.385a.288.288,0,0,1,.165.083c.165,0,.248-.083.331-.248a.548.548,0,0,0-.165-.578,11.11,11.11,0,0,1-5.123-6.28,13.708,13.708,0,0,1-.578-4.049.413.413,0,1,0-.826,0,13.042,13.042,0,0,0,.578,4.379A12.538,12.538,0,0,0,26.994,59.385Z" transform="translate(-18.036 -15.728)"/>
        <path id="Path_25-5" data-name="Path 25" d="M27.986,61.708a13.6,13.6,0,0,1-9.006-9.089,14.631,14.631,0,0,1-.165-8.428c.083-.248-.083-.413-.331-.5s-.413.083-.5.331a15.358,15.358,0,0,0,.248,8.841,14.507,14.507,0,0,0,9.5,9.585h.083a.422.422,0,0,0,.413-.33C28.317,62.038,28.151,61.79,27.986,61.708Z" transform="translate(-17.458 -14.994)"/>
        <path id="Path_26-5" data-name="Path 26" d="M44.769,31.55c0-.083-.083-.165-.083-.248h.165a.925.925,0,0,0,.578-1.157l-.578-1.57A.947.947,0,0,0,43.778,28h0a9.959,9.959,0,0,0-10.163-5.536l-1.487.5L31.219,17.5l3.057-8.015a.392.392,0,1,0-.744-.248l-3.057,8.015a1.048,1.048,0,0,0-.083.5l.992,5.536-1.57.578c-3.388,1.983-5.205,6.61-4.214,10.824a1,1,0,0,0-.413.413,1.146,1.146,0,0,0,0,.744l.578,1.57a.894.894,0,0,0,.909.578.5.5,0,0,0,.33-.083l.165-.083a.3.3,0,0,0,.083.248l10.907,21.73a.909.909,0,0,0,.826.5.625.625,0,0,0,.331-.083L49.561,56.5a.947.947,0,0,0,.578-1.074ZM30.062,24.527l3.718-1.322c3.47-.578,7.354,1.57,9.171,5.04L28.492,33.533a4.365,4.365,0,0,1-.083-1.074,6.81,6.81,0,0,1,2.561-5.7.413.413,0,1,0-.5-.661A7.733,7.733,0,0,0,27.5,32.459a7.232,7.232,0,0,0,.165,1.322l-1.487.5C25.435,30.476,27.087,26.345,30.062,24.527ZM26.509,37.086c-.083,0-.083,0-.165-.083l-.578-1.653.083-.083L43.86,28.741h0a.081.081,0,0,1,.083.083l.578,1.57c0,.083,0,.083-.083.165L30.227,35.764l-2.727.991h0ZM49.066,55.759,38.82,59.478a.081.081,0,0,1-.083-.083L31.219,44.44a1.5,1.5,0,0,1,.909-.33,1.446,1.446,0,0,1,1.157.578,2.208,2.208,0,0,0,3.305,0,1.446,1.446,0,0,1,1.157-.578.413.413,0,0,0,0-.826,2.229,2.229,0,0,0-1.653.744,1.446,1.446,0,0,1-2.314,0,2.229,2.229,0,0,0-1.653-.744,1.71,1.71,0,0,0-1.239.413l-3.057-6.032V37.5h0l16.112-5.866a.081.081,0,0,1,.083.083l1.57,7.436a2.9,2.9,0,0,1-.661-.413,2.208,2.208,0,0,0-3.305,0,1.446,1.446,0,0,1-2.314,0,2.229,2.229,0,0,0-1.653-.744.413.413,0,0,0,0,.826,1.446,1.446,0,0,1,1.157.578,2.208,2.208,0,0,0,3.305,0,1.446,1.446,0,0,1,2.314,0,2.309,2.309,0,0,0,1.4.744l3.305,15.534A.081.081,0,0,0,49.066,55.759Z" transform="translate(-18.791 -8.962)"/>
      </g>
    </g>
    <g id="joe-product-icon_shake-6" data-name="joe-product-icon_shake" transform="translate(408.113 169.504)">
      <g id="Group_11-6" data-name="Group 11" transform="translate(0 0)">
        <path id="Path_22-6" data-name="Path 22" d="M55.052,36.974a.409.409,0,0,0-.578.578,11.569,11.569,0,0,1,2.148,11.733.346.346,0,0,0,.248.5h.165a.454.454,0,0,0,.413-.248,12.829,12.829,0,0,0,.744-4.379A12.07,12.07,0,0,0,55.052,36.974Z" transform="translate(-23.868 -13.808)"/>
        <path id="Path_23-6" data-name="Path 23" d="M54.959,32.081a.413.413,0,0,0-.5.661,14.4,14.4,0,0,1,5.784,11.65,15.1,15.1,0,0,1-2.314,8.015.408.408,0,0,0,.083.578.3.3,0,0,0,.248.083.429.429,0,0,0,.33-.165,15.234,15.234,0,0,0,2.479-8.428A14.969,14.969,0,0,0,54.959,32.081Z" transform="translate(-23.858 -12.964)"/>
        <path id="Path_24-6" data-name="Path 24" d="M26.994,59.385a.288.288,0,0,1,.165.083c.165,0,.248-.083.331-.248a.548.548,0,0,0-.165-.578,11.11,11.11,0,0,1-5.123-6.28,13.708,13.708,0,0,1-.578-4.049.413.413,0,1,0-.826,0,13.042,13.042,0,0,0,.578,4.379A12.538,12.538,0,0,0,26.994,59.385Z" transform="translate(-18.036 -15.728)"/>
        <path id="Path_25-6" data-name="Path 25" d="M27.986,61.708a13.6,13.6,0,0,1-9.006-9.089,14.631,14.631,0,0,1-.165-8.428c.083-.248-.083-.413-.331-.5s-.413.083-.5.331a15.358,15.358,0,0,0,.248,8.841,14.507,14.507,0,0,0,9.5,9.585h.083a.422.422,0,0,0,.413-.33C28.317,62.038,28.151,61.79,27.986,61.708Z" transform="translate(-17.458 -14.994)"/>
        <path id="Path_26-6" data-name="Path 26" d="M44.769,31.55c0-.083-.083-.165-.083-.248h.165a.925.925,0,0,0,.578-1.157l-.578-1.57A.947.947,0,0,0,43.778,28h0a9.959,9.959,0,0,0-10.163-5.536l-1.487.5L31.219,17.5l3.057-8.015a.392.392,0,1,0-.744-.248l-3.057,8.015a1.048,1.048,0,0,0-.083.5l.992,5.536-1.57.578c-3.388,1.983-5.205,6.61-4.214,10.824a1,1,0,0,0-.413.413,1.146,1.146,0,0,0,0,.744l.578,1.57a.894.894,0,0,0,.909.578.5.5,0,0,0,.33-.083l.165-.083a.3.3,0,0,0,.083.248l10.907,21.73a.909.909,0,0,0,.826.5.625.625,0,0,0,.331-.083L49.561,56.5a.947.947,0,0,0,.578-1.074ZM30.062,24.527l3.718-1.322c3.47-.578,7.354,1.57,9.171,5.04L28.492,33.533a4.365,4.365,0,0,1-.083-1.074,6.81,6.81,0,0,1,2.561-5.7.413.413,0,1,0-.5-.661A7.733,7.733,0,0,0,27.5,32.459a7.232,7.232,0,0,0,.165,1.322l-1.487.5C25.435,30.476,27.087,26.345,30.062,24.527ZM26.509,37.086c-.083,0-.083,0-.165-.083l-.578-1.653.083-.083L43.86,28.741h0a.081.081,0,0,1,.083.083l.578,1.57c0,.083,0,.083-.083.165L30.227,35.764l-2.727.991h0ZM49.066,55.759,38.82,59.478a.081.081,0,0,1-.083-.083L31.219,44.44a1.5,1.5,0,0,1,.909-.33,1.446,1.446,0,0,1,1.157.578,2.208,2.208,0,0,0,3.305,0,1.446,1.446,0,0,1,1.157-.578.413.413,0,0,0,0-.826,2.229,2.229,0,0,0-1.653.744,1.446,1.446,0,0,1-2.314,0,2.229,2.229,0,0,0-1.653-.744,1.71,1.71,0,0,0-1.239.413l-3.057-6.032V37.5h0l16.112-5.866a.081.081,0,0,1,.083.083l1.57,7.436a2.9,2.9,0,0,1-.661-.413,2.208,2.208,0,0,0-3.305,0,1.446,1.446,0,0,1-2.314,0,2.229,2.229,0,0,0-1.653-.744.413.413,0,0,0,0,.826,1.446,1.446,0,0,1,1.157.578,2.208,2.208,0,0,0,3.305,0,1.446,1.446,0,0,1,2.314,0,2.309,2.309,0,0,0,1.4.744l3.305,15.534A.081.081,0,0,0,49.066,55.759Z" transform="translate(-18.791 -8.962)"/>
      </g>
    </g>
    <text id="_5_X_JUICES_SHAKES_12oz_EXTRA_INGREDIENT" data-name="5 X JUICES/SHAKES (12oz) + EXTRA INGREDIENT" class="cls-9" transform="translate(80 63)"><tspan x="0" y="11">5 X JUICES/SHAKES (12oz) </tspan><tspan x="0" y="25">+ EXTRA INGREDIENT</tspan></text>
  </g>
</svg>
