<svg xmlns="http://www.w3.org/2000/svg" xmlns:xlink="http://www.w3.org/1999/xlink" viewBox="0 0 489 268">
  <defs>
    <style>
      .cls-1, .cls-12 {
        fill: #fff299;
      }

      .cls-2 {
        font-size: 25px;
      }

      .cls-2, .cls-4, .cls-5 {
        font-family: Roboto-Bold, Roboto;
        font-weight: 700;
      }

      .cls-3, .cls-8, .cls-9 {
        fill: #fff;
      }

      .cls-10, .cls-3, .cls-7 {
        stroke: #fff;
      }

      .cls-4, .cls-5 {
        font-size: 35px;
      }

      .cls-5, .cls-6 {
        fill: #5c5c5c;
      }

      .cls-6 {
        font-size: 10px;
        font-family: Roboto-Light, Roboto;
        font-weight: 300;
      }

      .cls-10, .cls-13, .cls-7 {
        fill: none;
      }

      .cls-9 {
        font-size: 17px;
        font-family: Roboto-Regular, Roboto;
      }

      .cls-10 {
        stroke-width: 3px;
      }

      .cls-11, .cls-12 {
        stroke: none;
      }

      .cls-14 {
        filter: url(#Path_55);
      }
    </style>
    <filter id="Path_55" x="0" y="0" width="489" height="268" filterUnits="userSpaceOnUse">
      <feOffset dx="4" dy="4" input="SourceAlpha"/>
      <feGaussianBlur stdDeviation="2" result="blur"/>
      <feFlood flood-opacity="0.161"/>
      <feComposite operator="in" in2="blur"/>
      <feComposite in="SourceGraphic"/>
    </filter>
  </defs>
  <g id="Group_35" data-name="Group 35" transform="translate(-534 -295)">
    <g class="cls-14" transform="matrix(1, 0, 0, 1, 534, 295)">
      <g id="Path_55-2" data-name="Path 55" class="cls-1" transform="translate(2 2)">
        <path class="cls-11" d="M 459 255.5 L 18 255.5 C 13.32558822631836 255.5 8.930941581726074 253.6797027587891 5.625647068023682 250.3743591308594 C 2.320294141769409 247.0690612792969 0.5 242.6744079589844 0.5 238 L 0.5 18 C 0.5 13.32558822631836 2.320294141769409 8.930941581726074 5.625647068023682 5.625647068023682 C 8.930941581726074 2.320294141769409 13.32558822631836 0.5 18 0.5 L 459 0.5 C 463.6744079589844 0.5 468.0690612792969 2.320294141769409 471.3743591308594 5.625647068023682 C 474.6797180175781 8.930941581726074 476.5 13.32558822631836 476.5 18 L 476.5 238 C 476.5 242.6744079589844 474.6797180175781 247.0690612792969 471.3743591308594 250.3743591308594 C 468.0690612792969 253.6797027587891 463.6744079589844 255.5 459 255.5 Z"/>
        <path class="cls-12" d="M 459 255 C 463.5408935546875 255 467.8099365234375 253.2317047119141 471.0208129882812 250.0208282470703 C 474.2317199707031 246.8099365234375 476 242.5408782958984 476 238 L 476 18 C 476 13.4591178894043 474.2317199707031 9.190058708190918 471.0208129882812 5.97917652130127 C 467.8099365234375 2.768294095993042 463.5408935546875 1 459 1 L 18 1 C 13.4591178894043 1 9.190058708190918 2.768294095993042 5.97917652130127 5.97917652130127 C 2.768294095993042 9.190058708190918 1 13.4591178894043 1 18 L 1 238 C 1 242.5408782958984 2.768294095993042 246.8099365234375 5.97917652130127 250.0208282470703 C 9.190058708190918 253.2317047119141 13.4591178894043 255 18 255 L 459 255 M 459 256 L 18 256 C 8.058882713317871 256 0 247.9411163330078 0 238 L 0 18 C 0 8.058882713317871 8.058882713317871 0 18 0 L 459 0 C 468.9411315917969 0 477 8.058882713317871 477 18 L 477 238 C 477 247.9411163330078 468.9411315917969 256 459 256 Z"/>
      </g>
    </g>
    <text id="COFFEE" class="cls-2" transform="translate(625 333)"><tspan x="0" y="23">COFFEE</tspan></text>
    <g id="Group_18" data-name="Group 18" transform="translate(412 170)">
      <g id="Rectangle_1460" data-name="Rectangle 1460" class="cls-3" transform="translate(167 271)">
        <rect class="cls-11" width="63" height="60"/>
        <rect class="cls-13" x="0.5" y="0.5" width="62" height="59"/>
      </g>
      <g id="Rectangle_1461" data-name="Rectangle 1461" class="cls-3" transform="translate(249 271)">
        <rect class="cls-11" width="63" height="60"/>
        <rect class="cls-13" x="0.5" y="0.5" width="62" height="59"/>
      </g>
      <g id="Rectangle_1462" data-name="Rectangle 1462" class="cls-3" transform="translate(331 271)">
        <rect class="cls-11" width="63" height="60"/>
        <rect class="cls-13" x="0.5" y="0.5" width="62" height="59"/>
      </g>
      <g id="Rectangle_1463" data-name="Rectangle 1463" class="cls-3" transform="translate(413 271)">
        <rect class="cls-11" width="63" height="60"/>
        <rect class="cls-13" x="0.5" y="0.5" width="62" height="59"/>
      </g>
      <g id="Rectangle_1464" data-name="Rectangle 1464" class="cls-3" transform="translate(495 271)">
        <rect class="cls-11" width="63" height="60"/>
        <rect class="cls-13" x="0.5" y="0.5" width="62" height="59"/>
      </g>
    </g>
    <text id="_145_kr" data-name="145 kr" class="cls-4" transform="translate(891 332)"><tspan x="0" y="32">145 kr</tspan></text>
    <text id="_190_kr" data-name="190 kr" class="cls-5" transform="translate(892 378)"><tspan x="0" y="32">190 kr</tspan></text>
    <text id="_JOEANDTHEJUICE_JOEANDTHEJUICE_JOEJUICE.COM_" data-name="#JOEANDTHEJUICE  |  @JOEANDTHEJUICE  |  JOEJUICE.COM " class="cls-6" transform="translate(637 514)"><tspan x="0" y="9" xml:space="preserve">#JOEANDTHEJUICE  |  @JOEANDTHEJUICE  |  JOEJUICE.COM </tspan></text>
    <g id="Ellipse_7" data-name="Ellipse 7" class="cls-7" transform="translate(972 512)">
      <circle class="cls-11" cx="14" cy="14" r="14"/>
      <circle class="cls-13" cx="14" cy="14" r="13.5"/>
    </g>
    <line id="Line_24" data-name="Line 24" class="cls-7" x2="14" transform="translate(979.5 526.5)"/>
    <line id="Line_25" data-name="Line 25" class="cls-7" y2="14" transform="translate(986.5 519.5)"/>
    <g id="a8a7e8aaaec4f29003dae50dd72da3d8" transform="translate(540.668 498.668)">
      <path id="Path_33" data-name="Path 33" class="cls-8" d="M21.362,21.362H10V10H21.362Zm-9.239-2.123h7.113V12.123H12.123v7.116Z"/>
      <path id="Path_34" data-name="Path 34" class="cls-8" d="M132.4,132.4h3.788v3.788H132.4Z" transform="translate(-118.612 -118.612)"/>
      <path id="Path_35" data-name="Path 35" class="cls-8" d="M21.362,633.2H10V621.8H21.362Zm-9.239-2.123h7.113v-7.15H12.123v7.15Z" transform="translate(0 -592.864)"/>
      <path id="Path_36" data-name="Path 36" class="cls-8" d="M132.4,745.3h3.788v3.751H132.4Z" transform="translate(-118.612 -712.541)"/>
      <path id="Path_37" data-name="Path 37" class="cls-8" d="M633.2,21.362H621.8V10h11.4Zm-9.273-2.123h7.15V12.123h-7.15Z" transform="translate(-592.864)"/>
      <path id="Path_38" data-name="Path 38" class="cls-8" d="M745.3,132.4h3.751v3.788H745.3Z" transform="translate(-712.541 -118.612)"/>
      <path id="Path_39" data-name="Path 39" class="cls-8" d="M10,377.1h3.788v3.822H10Z" transform="translate(0 -355.738)"/>
      <path id="Path_40" data-name="Path 40" class="cls-8" d="M254.7,500.6h3.788v3.751H254.7V500.6Z" transform="translate(-237.126 -475.415)"/>
      <path id="Path_41" data-name="Path 41" class="cls-8" d="M500.6,10h3.751v3.788H500.6Z" transform="translate(-475.415)"/>
      <path id="Path_42" data-name="Path 42" class="cls-8" d="M377.1,254.7h3.822v3.788H377.1Z" transform="translate(-355.738 -237.126)"/>
      <path id="Path_43" data-name="Path 43" class="cls-8" d="M500.6,866.5h3.751v3.823H500.6Z" transform="translate(-475.415 -829.99)"/>
      <path id="Path_44" data-name="Path 44" class="cls-8" d="M745.3,866.5h7.574v3.823H745.3Z" transform="translate(-712.541 -829.99)"/>
      <path id="Path_45" data-name="Path 45" class="cls-8" d="M500.6,621.8h7.574v3.823H500.6Z" transform="translate(-475.415 -592.864)"/>
      <path id="Path_46" data-name="Path 46" class="cls-8" d="M745.3,621.8h3.751v7.574H745.3Z" transform="translate(-712.541 -592.864)"/>
      <path id="Path_47" data-name="Path 47" class="cls-8" d="M855.1,621.8h4.175v3.823H855.1Z" transform="translate(-818.943 -592.864)"/>
      <path id="Path_48" data-name="Path 48" class="cls-8" d="M500.6,377.1h3.751v3.822H500.6Z" transform="translate(-475.415 -355.738)"/>
      <path id="Path_49" data-name="Path 49" class="cls-8" d="M621.8,500.6h3.823v3.751H621.8V500.6Z" transform="translate(-592.864 -475.415)"/>
      <path id="Path_50" data-name="Path 50" class="cls-8" d="M745.3,377.1h3.751v3.822H745.3Z" transform="translate(-712.541 -355.738)"/>
      <path id="Path_51" data-name="Path 51" class="cls-8" d="M866.5,500.6h3.823v3.751H866.5V500.6Z" transform="translate(-829.99 -475.415)"/>
    </g>
    <g id="joe-product-icon_coffee" transform="translate(556.434 313)">
      <g id="Group_8" data-name="Group 8" transform="translate(0 0)">
        <path id="Path_12" data-name="Path 12" d="M80.629,44.7H29.714A2.436,2.436,0,0,0,27.3,47.114V51.5a2.435,2.435,0,0,0,2.414,2.414h.439l8.778,46.526a2.393,2.393,0,0,0,2.414,2.195H70.314a2.393,2.393,0,0,0,2.414-2.195L80.19,54.137h.439a2.436,2.436,0,0,0,2.414-2.414V47.334A2.491,2.491,0,0,0,80.629,44.7Zm-10.1,55.524a.215.215,0,0,1-.219.219H41.346a.215.215,0,0,1-.219-.219L32.348,54.137H78ZM80.849,51.5a.215.215,0,0,1-.219.219H29.714a.215.215,0,0,1-.219-.219V47.114a.215.215,0,0,1,.219-.219H80.629a.215.215,0,0,1,.219.219V51.5Z" transform="translate(-27.3 5.862)"/>
        <path id="Path_13" data-name="Path 13" d="M38.2,66.078a1.1,1.1,0,1,0,2.195,0,16.479,16.479,0,0,1,2.195-8.34,16.479,16.479,0,0,0,2.195-8.34,17.4,17.4,0,0,0-2.195-8.559,15.591,15.591,0,0,1-2.195-8.12,16.949,16.949,0,0,1,2.195-8.12l.658-1.317a1.455,1.455,0,0,0-.439-1.536,1.455,1.455,0,0,0-1.536.439L40.614,23.5c-1.1,2.414-2.414,5.048-2.414,9,0,4.609,1.317,6.8,2.414,9.217a13.753,13.753,0,0,1,1.975,7.462,13.508,13.508,0,0,1-1.975,7.242C39.517,59.055,38.2,61.689,38.2,66.078Z" transform="translate(-14.279 -21.661)"/>
        <path id="Path_14" data-name="Path 14" d="M42.3,56.4a1.1,1.1,0,1,0,2.195,0c0-4.17,1.1-6.145,2.195-8.559a16.248,16.248,0,0,0,2.195-8.12,18.527,18.527,0,0,0-2.634-9.437h-.219a1.13,1.13,0,0,0-1.975,1.1l.219.219a17.073,17.073,0,0,1,2.414,8.34,13.285,13.285,0,0,1-1.975,7.023A20.346,20.346,0,0,0,42.3,56.4Z" transform="translate(-9.381 -11.984)"/>
        <path id="Path_15" data-name="Path 15" d="M39.028,44.076a1.1,1.1,0,1,0,2.195,0c0-3.511-1.317-5.925-2.414-8.12A16.437,16.437,0,0,1,36.395,27.4a1.1,1.1,0,1,0-2.195,0,18.527,18.527,0,0,0,2.634,9.437C37.931,39.029,39.028,41,39.028,44.076Z" transform="translate(-19.057 -16.119)"/>
      </g>
    </g>
    <g id="joe-product-icon_coffee-2" data-name="joe-product-icon_coffee" transform="translate(598 445.295)">
      <g id="Group_8-2" data-name="Group 8" transform="translate(0 0)">
        <path id="Path_12-2" data-name="Path 12" d="M50.479,44.7H28.349A1.089,1.089,0,0,0,27.3,45.808v2.015a1.089,1.089,0,0,0,1.049,1.108h.191l3.815,21.357A1.063,1.063,0,0,0,33.4,71.3H46a1.063,1.063,0,0,0,1.049-1.007l3.243-21.256h.191a1.089,1.089,0,0,0,1.049-1.108V45.909A1.119,1.119,0,0,0,50.479,44.7ZM46.091,70.187a.1.1,0,0,1-.1.1H33.4a.1.1,0,0,1-.1-.1L29.494,49.032h19.84Zm4.483-22.364a.1.1,0,0,1-.1.1H28.349c-.1,0-.1-.1-.1-.1V45.808a.1.1,0,0,1,.1-.1h22.13c.1,0,.1.1.1.1v2.015Z" transform="translate(-27.3 -21.491)"/>
        <path id="Path_13-2" data-name="Path 13" d="M38.2,42.05a.478.478,0,1,0,.954,0,7.889,7.889,0,0,1,.954-3.828,7.889,7.889,0,0,0,.954-3.828,8.333,8.333,0,0,0-.954-3.929,7.459,7.459,0,0,1-.954-3.727,8.114,8.114,0,0,1,.954-3.727l.286-.6A.693.693,0,0,0,40.2,21.7a.611.611,0,0,0-.668.2l-.286.6a9.547,9.547,0,0,0-1.049,4.13,8.92,8.92,0,0,0,1.049,4.231,6.582,6.582,0,0,1,.858,3.425,6.462,6.462,0,0,1-.858,3.324A10.638,10.638,0,0,0,38.2,42.05Z" transform="translate(-27.803 -21.661)"/>
        <path id="Path_14-2" data-name="Path 14" d="M42.3,41.99a.478.478,0,1,0,.954,0,8.333,8.333,0,0,1,.954-3.929,7.776,7.776,0,0,0,.954-3.727A8.86,8.86,0,0,0,44.017,30h-.1a.532.532,0,0,0-.668-.2.6.6,0,0,0-.191.705l.1.1a8.16,8.16,0,0,1,1.049,3.828,6.352,6.352,0,0,1-.858,3.224A9.749,9.749,0,0,0,42.3,41.99Z" transform="translate(-27.992 -21.601)"/>
        <path id="Path_15-2" data-name="Path 15" d="M36.3,34.46a.478.478,0,1,0,.954,0A8.081,8.081,0,0,0,36.2,30.733,7.86,7.86,0,0,1,35.154,26.8a.478.478,0,1,0-.954,0,8.86,8.86,0,0,0,1.145,4.332A7.086,7.086,0,0,1,36.3,34.46Z" transform="translate(-27.618 -21.626)"/>
      </g>
    </g>
    <g id="joe-product-icon_coffee-3" data-name="joe-product-icon_coffee" transform="translate(683 446.295)">
      <g id="Group_8-3" data-name="Group 8" transform="translate(0 0)">
        <path id="Path_12-3" data-name="Path 12" d="M50.479,44.7H28.349A1.089,1.089,0,0,0,27.3,45.808v2.015a1.089,1.089,0,0,0,1.049,1.108h.191l3.815,21.357A1.063,1.063,0,0,0,33.4,71.3H46a1.063,1.063,0,0,0,1.049-1.007l3.243-21.256h.191a1.089,1.089,0,0,0,1.049-1.108V45.909A1.119,1.119,0,0,0,50.479,44.7ZM46.091,70.187a.1.1,0,0,1-.1.1H33.4a.1.1,0,0,1-.1-.1L29.494,49.032h19.84Zm4.483-22.364a.1.1,0,0,1-.1.1H28.349c-.1,0-.1-.1-.1-.1V45.808a.1.1,0,0,1,.1-.1h22.13c.1,0,.1.1.1.1v2.015Z" transform="translate(-27.3 -21.491)"/>
        <path id="Path_13-3" data-name="Path 13" d="M38.2,42.05a.478.478,0,1,0,.954,0,7.889,7.889,0,0,1,.954-3.828,7.889,7.889,0,0,0,.954-3.828,8.333,8.333,0,0,0-.954-3.929,7.459,7.459,0,0,1-.954-3.727,8.114,8.114,0,0,1,.954-3.727l.286-.6A.693.693,0,0,0,40.2,21.7a.611.611,0,0,0-.668.2l-.286.6a9.547,9.547,0,0,0-1.049,4.13,8.92,8.92,0,0,0,1.049,4.231,6.582,6.582,0,0,1,.858,3.425,6.462,6.462,0,0,1-.858,3.324A10.638,10.638,0,0,0,38.2,42.05Z" transform="translate(-27.803 -21.661)"/>
        <path id="Path_14-3" data-name="Path 14" d="M42.3,41.99a.478.478,0,1,0,.954,0,8.333,8.333,0,0,1,.954-3.929,7.776,7.776,0,0,0,.954-3.727A8.86,8.86,0,0,0,44.017,30h-.1a.532.532,0,0,0-.668-.2.6.6,0,0,0-.191.705l.1.1a8.16,8.16,0,0,1,1.049,3.828,6.352,6.352,0,0,1-.858,3.224A9.749,9.749,0,0,0,42.3,41.99Z" transform="translate(-27.992 -21.601)"/>
        <path id="Path_15-3" data-name="Path 15" d="M36.3,34.46a.478.478,0,1,0,.954,0A8.081,8.081,0,0,0,36.2,30.733,7.86,7.86,0,0,1,35.154,26.8a.478.478,0,1,0-.954,0,8.86,8.86,0,0,0,1.145,4.332A7.086,7.086,0,0,1,36.3,34.46Z" transform="translate(-27.618 -21.626)"/>
      </g>
    </g>
    <g id="joe-product-icon_coffee-4" data-name="joe-product-icon_coffee" transform="translate(762 446.295)">
      <g id="Group_8-4" data-name="Group 8" transform="translate(0 0)">
        <path id="Path_12-4" data-name="Path 12" d="M50.479,44.7H28.349A1.089,1.089,0,0,0,27.3,45.808v2.015a1.089,1.089,0,0,0,1.049,1.108h.191l3.815,21.357A1.063,1.063,0,0,0,33.4,71.3H46a1.063,1.063,0,0,0,1.049-1.007l3.243-21.256h.191a1.089,1.089,0,0,0,1.049-1.108V45.909A1.119,1.119,0,0,0,50.479,44.7ZM46.091,70.187a.1.1,0,0,1-.1.1H33.4a.1.1,0,0,1-.1-.1L29.494,49.032h19.84Zm4.483-22.364a.1.1,0,0,1-.1.1H28.349c-.1,0-.1-.1-.1-.1V45.808a.1.1,0,0,1,.1-.1h22.13c.1,0,.1.1.1.1v2.015Z" transform="translate(-27.3 -21.491)"/>
        <path id="Path_13-4" data-name="Path 13" d="M38.2,42.05a.478.478,0,1,0,.954,0,7.889,7.889,0,0,1,.954-3.828,7.889,7.889,0,0,0,.954-3.828,8.333,8.333,0,0,0-.954-3.929,7.459,7.459,0,0,1-.954-3.727,8.114,8.114,0,0,1,.954-3.727l.286-.6A.693.693,0,0,0,40.2,21.7a.611.611,0,0,0-.668.2l-.286.6a9.547,9.547,0,0,0-1.049,4.13,8.92,8.92,0,0,0,1.049,4.231,6.582,6.582,0,0,1,.858,3.425,6.462,6.462,0,0,1-.858,3.324A10.638,10.638,0,0,0,38.2,42.05Z" transform="translate(-27.803 -21.661)"/>
        <path id="Path_14-4" data-name="Path 14" d="M42.3,41.99a.478.478,0,1,0,.954,0,8.333,8.333,0,0,1,.954-3.929,7.776,7.776,0,0,0,.954-3.727A8.86,8.86,0,0,0,44.017,30h-.1a.532.532,0,0,0-.668-.2.6.6,0,0,0-.191.705l.1.1a8.16,8.16,0,0,1,1.049,3.828,6.352,6.352,0,0,1-.858,3.224A9.749,9.749,0,0,0,42.3,41.99Z" transform="translate(-27.992 -21.601)"/>
        <path id="Path_15-4" data-name="Path 15" d="M36.3,34.46a.478.478,0,1,0,.954,0A8.081,8.081,0,0,0,36.2,30.733,7.86,7.86,0,0,1,35.154,26.8a.478.478,0,1,0-.954,0,8.86,8.86,0,0,0,1.145,4.332A7.086,7.086,0,0,1,36.3,34.46Z" transform="translate(-27.618 -21.626)"/>
      </g>
    </g>
    <g id="joe-product-icon_coffee-5" data-name="joe-product-icon_coffee" transform="translate(847 446.295)">
      <g id="Group_8-5" data-name="Group 8" transform="translate(0 0)">
        <path id="Path_12-5" data-name="Path 12" d="M50.479,44.7H28.349A1.089,1.089,0,0,0,27.3,45.808v2.015a1.089,1.089,0,0,0,1.049,1.108h.191l3.815,21.357A1.063,1.063,0,0,0,33.4,71.3H46a1.063,1.063,0,0,0,1.049-1.007l3.243-21.256h.191a1.089,1.089,0,0,0,1.049-1.108V45.909A1.119,1.119,0,0,0,50.479,44.7ZM46.091,70.187a.1.1,0,0,1-.1.1H33.4a.1.1,0,0,1-.1-.1L29.494,49.032h19.84Zm4.483-22.364a.1.1,0,0,1-.1.1H28.349c-.1,0-.1-.1-.1-.1V45.808a.1.1,0,0,1,.1-.1h22.13c.1,0,.1.1.1.1v2.015Z" transform="translate(-27.3 -21.491)"/>
        <path id="Path_13-5" data-name="Path 13" d="M38.2,42.05a.478.478,0,1,0,.954,0,7.889,7.889,0,0,1,.954-3.828,7.889,7.889,0,0,0,.954-3.828,8.333,8.333,0,0,0-.954-3.929,7.459,7.459,0,0,1-.954-3.727,8.114,8.114,0,0,1,.954-3.727l.286-.6A.693.693,0,0,0,40.2,21.7a.611.611,0,0,0-.668.2l-.286.6a9.547,9.547,0,0,0-1.049,4.13,8.92,8.92,0,0,0,1.049,4.231,6.582,6.582,0,0,1,.858,3.425,6.462,6.462,0,0,1-.858,3.324A10.638,10.638,0,0,0,38.2,42.05Z" transform="translate(-27.803 -21.661)"/>
        <path id="Path_14-5" data-name="Path 14" d="M42.3,41.99a.478.478,0,1,0,.954,0,8.333,8.333,0,0,1,.954-3.929,7.776,7.776,0,0,0,.954-3.727A8.86,8.86,0,0,0,44.017,30h-.1a.532.532,0,0,0-.668-.2.6.6,0,0,0-.191.705l.1.1a8.16,8.16,0,0,1,1.049,3.828,6.352,6.352,0,0,1-.858,3.224A9.749,9.749,0,0,0,42.3,41.99Z" transform="translate(-27.992 -21.601)"/>
        <path id="Path_15-5" data-name="Path 15" d="M36.3,34.46a.478.478,0,1,0,.954,0A8.081,8.081,0,0,0,36.2,30.733,7.86,7.86,0,0,1,35.154,26.8a.478.478,0,1,0-.954,0,8.86,8.86,0,0,0,1.145,4.332A7.086,7.086,0,0,1,36.3,34.46Z" transform="translate(-27.618 -21.626)"/>
      </g>
    </g>
    <g id="joe-product-icon_coffee-6" data-name="joe-product-icon_coffee" transform="translate(928 445.295)">
      <g id="Group_8-6" data-name="Group 8" transform="translate(0 0)">
        <path id="Path_12-6" data-name="Path 12" d="M50.479,44.7H28.349A1.089,1.089,0,0,0,27.3,45.808v2.015a1.089,1.089,0,0,0,1.049,1.108h.191l3.815,21.357A1.063,1.063,0,0,0,33.4,71.3H46a1.063,1.063,0,0,0,1.049-1.007l3.243-21.256h.191a1.089,1.089,0,0,0,1.049-1.108V45.909A1.119,1.119,0,0,0,50.479,44.7ZM46.091,70.187a.1.1,0,0,1-.1.1H33.4a.1.1,0,0,1-.1-.1L29.494,49.032h19.84Zm4.483-22.364a.1.1,0,0,1-.1.1H28.349c-.1,0-.1-.1-.1-.1V45.808a.1.1,0,0,1,.1-.1h22.13c.1,0,.1.1.1.1v2.015Z" transform="translate(-27.3 -21.491)"/>
        <path id="Path_13-6" data-name="Path 13" d="M38.2,42.05a.478.478,0,1,0,.954,0,7.889,7.889,0,0,1,.954-3.828,7.889,7.889,0,0,0,.954-3.828,8.333,8.333,0,0,0-.954-3.929,7.459,7.459,0,0,1-.954-3.727,8.114,8.114,0,0,1,.954-3.727l.286-.6A.693.693,0,0,0,40.2,21.7a.611.611,0,0,0-.668.2l-.286.6a9.547,9.547,0,0,0-1.049,4.13,8.92,8.92,0,0,0,1.049,4.231,6.582,6.582,0,0,1,.858,3.425,6.462,6.462,0,0,1-.858,3.324A10.638,10.638,0,0,0,38.2,42.05Z" transform="translate(-27.803 -21.661)"/>
        <path id="Path_14-6" data-name="Path 14" d="M42.3,41.99a.478.478,0,1,0,.954,0,8.333,8.333,0,0,1,.954-3.929,7.776,7.776,0,0,0,.954-3.727A8.86,8.86,0,0,0,44.017,30h-.1a.532.532,0,0,0-.668-.2.6.6,0,0,0-.191.705l.1.1a8.16,8.16,0,0,1,1.049,3.828,6.352,6.352,0,0,1-.858,3.224A9.749,9.749,0,0,0,42.3,41.99Z" transform="translate(-27.992 -21.601)"/>
        <path id="Path_15-6" data-name="Path 15" d="M36.3,34.46a.478.478,0,1,0,.954,0A8.081,8.081,0,0,0,36.2,30.733,7.86,7.86,0,0,1,35.154,26.8a.478.478,0,1,0-.954,0,8.86,8.86,0,0,0,1.145,4.332A7.086,7.086,0,0,1,36.3,34.46Z" transform="translate(-27.618 -21.626)"/>
      </g>
    </g>
    <text id="_10_X_COFFEE_PRODUCTS" data-name="10 X COFFEE PRODUCTS" class="cls-9" transform="translate(625 373)"><tspan x="0" y="16">10 X COFFEE </tspan><tspan x="0" y="36">PRODUCTS</tspan></text>
    <g id="Symbol_9_4" data-name="Symbol 9 – 4" transform="translate(519.5 -1.5)">
      <line id="Line_30" data-name="Line 30" class="cls-10" x2="104" y2="30" transform="translate(374.5 383.5)"/>
      <line id="Line_31" data-name="Line 31" class="cls-10" y1="30" x2="102" transform="translate(374.5 383.5)"/>
    </g>
  </g>
</svg>
