<svg xmlns="http://www.w3.org/2000/svg" xmlns:xlink="http://www.w3.org/1999/xlink" viewBox="0 0 489 268">
  <defs>
    <style>
      .cls-1 {
        fill: #87c2e8;
        stroke: #87c2e8;
      }

      .cls-2 {
        font-size: 14px;
        font-family: Roboto-Regular, Roboto;
      }

      .cls-3, .cls-8 {
        fill: #fff;
      }

      .cls-3, .cls-7 {
        stroke: #fff;
      }

      .cls-4 {
        font-size: 16px;
        font-family: Roboto-Bold, Roboto;
        font-weight: 700;
      }

      .cls-11, .cls-5, .cls-7 {
        fill: none;
      }

      .cls-5 {
        stroke: #707070;
      }

      .cls-6 {
        fill: #707070;
        font-size: 10px;
      }

      .cls-6, .cls-9 {
        font-family: Roboto-Light, Roboto;
        font-weight: 300;
      }

      .cls-9 {
        font-size: 12px;
      }

      .cls-10 {
        stroke: none;
      }

      .cls-12 {
        filter: url(#Rectangle_1469);
      }
    </style>
    <filter id="Rectangle_1469" x="0" y="0" width="489" height="268" filterUnits="userSpaceOnUse">
      <feOffset dx="4" dy="4" input="SourceAlpha"/>
      <feGaussianBlur stdDeviation="2" result="blur"/>
      <feFlood flood-opacity="0.161"/>
      <feComposite operator="in" in2="blur"/>
      <feComposite in="SourceGraphic"/>
    </filter>
  </defs>
  <g id="Group_25" data-name="Group 25" transform="translate(-536 -19)">
    <g class="cls-12" transform="matrix(1, 0, 0, 1, 536, 19)">
      <g id="Rectangle_1469-2" data-name="Rectangle 1469" class="cls-1" transform="translate(2 2)">
        <rect class="cls-10" width="477" height="256" rx="18"/>
        <rect class="cls-11" x="0.5" y="0.5" width="476" height="255" rx="17.5"/>
      </g>
    </g>
    <text id="SANDWICH" class="cls-2" transform="translate(589 46)"><tspan x="0" y="13">SANDWICH</tspan></text>
    <g id="Group_17" data-name="Group 17" transform="translate(414 -106)">
      <g id="Rectangle_1460" data-name="Rectangle 1460" class="cls-3" transform="translate(167 271)">
        <rect class="cls-10" width="63" height="60"/>
        <rect class="cls-11" x="0.5" y="0.5" width="62" height="59"/>
      </g>
      <g id="Rectangle_1461" data-name="Rectangle 1461" class="cls-3" transform="translate(249 271)">
        <rect class="cls-10" width="63" height="60"/>
        <rect class="cls-11" x="0.5" y="0.5" width="62" height="59"/>
      </g>
      <g id="Rectangle_1462" data-name="Rectangle 1462" class="cls-3" transform="translate(331 271)">
        <rect class="cls-10" width="63" height="60"/>
        <rect class="cls-11" x="0.5" y="0.5" width="62" height="59"/>
      </g>
      <g id="Rectangle_1463" data-name="Rectangle 1463" class="cls-3" transform="translate(413 271)">
        <rect class="cls-10" width="63" height="60"/>
        <rect class="cls-11" x="0.5" y="0.5" width="62" height="59"/>
      </g>
      <g id="Rectangle_1464" data-name="Rectangle 1464" class="cls-3" transform="translate(495 271)">
        <rect class="cls-10" width="63" height="60"/>
        <rect class="cls-11" x="0.5" y="0.5" width="62" height="59"/>
      </g>
    </g>
    <text id="PRICE" class="cls-2" transform="translate(559 105)"><tspan x="0" y="13">PRICE</tspan></text>
    <text id="NORMAL_PRICE" data-name="NORMAL PRICE" class="cls-2" transform="translate(559 130)"><tspan x="0" y="13">NORMAL PRICE</tspan></text>
    <text id="_240_kr" data-name="240 kr" class="cls-4" transform="translate(945 103)"><tspan x="0" y="15">240 kr</tspan></text>
    <text id="_320_kr" data-name="320 kr" class="cls-4" transform="translate(946 128)"><tspan x="0" y="15">320 kr</tspan></text>
    <line id="Line_18" data-name="Line 18" class="cls-5" x2="50" y2="22" transform="translate(943.5 125.5)"/>
    <line id="Line_19" data-name="Line 19" class="cls-5" y1="23" x2="50" transform="translate(943.5 125.5)"/>
    <text id="_JOEANDTHEJUICE_JOEANDTHEJUICE_JOEJUICE.COM_" data-name="#JOEANDTHEJUICE  |  @JOEANDTHEJUICE  |  JOEJUICE.COM " class="cls-6" transform="translate(639 238)"><tspan x="0" y="9" xml:space="preserve">#JOEANDTHEJUICE  |  @JOEANDTHEJUICE  |  JOEJUICE.COM </tspan></text>
    <g id="Ellipse_6" data-name="Ellipse 6" class="cls-7" transform="translate(981 243)">
      <circle class="cls-10" cx="10.5" cy="10.5" r="10.5"/>
      <circle class="cls-11" cx="10.5" cy="10.5" r="10"/>
    </g>
    <line id="Line_21" data-name="Line 21" class="cls-7" x2="14" transform="translate(984.5 253.5)"/>
    <line id="Line_20" data-name="Line 20" class="cls-7" y2="14" transform="translate(991.5 246.5)"/>
    <g id="a8a7e8aaaec4f29003dae50dd72da3d8" transform="translate(542.668 232.668)">
      <path id="Path_33" data-name="Path 33" class="cls-8" d="M17.616,17.616H10V10h7.616Zm-6.193-1.423h4.768v-4.77H11.423v4.77Z"/>
      <path id="Path_34" data-name="Path 34" class="cls-8" d="M132.4,132.4h2.539v2.539H132.4Z" transform="translate(-119.861 -119.861)"/>
      <path id="Path_35" data-name="Path 35" class="cls-8" d="M17.616,629.439H10V621.8h7.616Zm-6.193-1.423h4.768v-4.793H11.423v4.793Z" transform="translate(0 -599.107)"/>
      <path id="Path_36" data-name="Path 36" class="cls-8" d="M132.4,745.3h2.539v2.515H132.4Z" transform="translate(-119.861 -720.044)"/>
      <path id="Path_37" data-name="Path 37" class="cls-8" d="M629.439,17.616H621.8V10h7.639Zm-6.216-1.423h4.793v-4.77h-4.793Z" transform="translate(-599.107)"/>
      <path id="Path_38" data-name="Path 38" class="cls-8" d="M745.3,132.4h2.515v2.539H745.3Z" transform="translate(-720.044 -119.861)"/>
      <path id="Path_39" data-name="Path 39" class="cls-8" d="M10,377.1h2.539v2.562H10Z" transform="translate(0 -359.484)"/>
      <path id="Path_40" data-name="Path 40" class="cls-8" d="M254.7,500.6h2.539v2.515H254.7V500.6Z" transform="translate(-239.623 -480.421)"/>
      <path id="Path_41" data-name="Path 41" class="cls-8" d="M500.6,10h2.515v2.539H500.6Z" transform="translate(-480.421)"/>
      <path id="Path_42" data-name="Path 42" class="cls-8" d="M377.1,254.7h2.562v2.539H377.1Z" transform="translate(-359.484 -239.623)"/>
      <path id="Path_43" data-name="Path 43" class="cls-8" d="M500.6,866.5h2.515v2.562H500.6Z" transform="translate(-480.421 -838.73)"/>
      <path id="Path_44" data-name="Path 44" class="cls-8" d="M745.3,866.5h5.077v2.562H745.3Z" transform="translate(-720.044 -838.73)"/>
      <path id="Path_45" data-name="Path 45" class="cls-8" d="M500.6,621.8h5.077v2.562H500.6Z" transform="translate(-480.421 -599.107)"/>
      <path id="Path_46" data-name="Path 46" class="cls-8" d="M745.3,621.8h2.515v5.077H745.3Z" transform="translate(-720.044 -599.107)"/>
      <path id="Path_47" data-name="Path 47" class="cls-8" d="M855.1,621.8h2.8v2.562h-2.8Z" transform="translate(-827.566 -599.107)"/>
      <path id="Path_48" data-name="Path 48" class="cls-8" d="M500.6,377.1h2.515v2.562H500.6Z" transform="translate(-480.421 -359.484)"/>
      <path id="Path_49" data-name="Path 49" class="cls-8" d="M621.8,500.6h2.562v2.515H621.8V500.6Z" transform="translate(-599.107 -480.421)"/>
      <path id="Path_50" data-name="Path 50" class="cls-8" d="M745.3,377.1h2.515v2.562H745.3Z" transform="translate(-720.044 -359.484)"/>
      <path id="Path_51" data-name="Path 51" class="cls-8" d="M866.5,500.6h2.562v2.515H866.5V500.6Z" transform="translate(-838.73 -480.421)"/>
    </g>
    <g id="joe-product-icon_sandwich" transform="translate(554.473 31.988) rotate(20)">
      <g id="Group_10" data-name="Group 10" transform="translate(0)">
        <path id="Path_19" data-name="Path 19" d="M28.9,32.553a.526.526,0,0,0,.478.287h.191l7.171-2.581a.454.454,0,0,0-.287-.86L29.281,31.98C28.994,32.075,28.8,32.362,28.9,32.553Z" transform="translate(-19.062 -20.626)"/>
        <path id="Path_20" data-name="Path 20" d="M38.781,34.219h.191l2.295-.86a.454.454,0,1,0-.287-.86l-2.295.86a.426.426,0,0,0-.287.574C38.4,34.124,38.59,34.219,38.781,34.219Z" transform="translate(-19.479 -20.762)"/>
        <path id="Path_21" data-name="Path 21" d="M59.426,58.636,51.586,37.22a.426.426,0,0,0-.574-.287h0a2.821,2.821,0,0,0-.191-1.912A2.9,2.9,0,0,0,49.578,33.4a2.676,2.676,0,0,1-.956-1.243,2.165,2.165,0,0,1-.1-1.53,3.691,3.691,0,0,0-.1-2.008,3.078,3.078,0,0,0-3.92-1.721h0l-1.243.478a2.46,2.46,0,0,1-1.434-.1,1.767,1.767,0,0,1-1.052-1.625.778.778,0,0,0-1.243-.574,1.759,1.759,0,0,1-1.912.191,1.674,1.674,0,0,1-1.052-1.625.719.719,0,0,0-.478-.669.929.929,0,0,0-.86.1,1.949,1.949,0,0,1-1.912.191,1.738,1.738,0,0,1-.956-1.052l-.574-1.625q0-.143-.287-.287a.291.291,0,0,0-.382,0L21.086,23.834a4.115,4.115,0,0,0-2.1,1.912,3.341,3.341,0,0,0-.1,2.868l2.295,6.215h0l1.434,3.92h0l1.243,3.538-.765.287a.426.426,0,0,0-.287.574L32.081,68.58a.526.526,0,0,0,.478.287h.191l22.755-8.318,3.633-1.339C59.33,59.114,59.521,58.827,59.426,58.636ZM47.57,28.9a2.165,2.165,0,0,1,.1,1.53,3.691,3.691,0,0,0,.1,2.008A2.843,2.843,0,0,0,49,34.065a2.676,2.676,0,0,1,.956,1.243,2.165,2.165,0,0,1,.1,1.53.575.575,0,0,1-.1.382l-2.2.765L44.033,27.945l.765-.287h0A2.241,2.241,0,0,1,47.57,28.9ZM19.939,26.129a2.813,2.813,0,0,1,1.53-1.434l9.561-3.442.382,1.147a2.813,2.813,0,0,0,1.434,1.53,2.68,2.68,0,0,0,2.677-.191,2.84,2.84,0,0,0,1.625,2.1,2.68,2.68,0,0,0,2.677-.191,2.643,2.643,0,0,0,1.625,2.1,2.577,2.577,0,0,0,1.625.287l3.729,10.135L38.774,41.14l-4.207-1.912,7.171-2.581a.454.454,0,1,0-.287-.86l-8.8,3.155h0l-.287.191h0L24.815,41.9l-1.147-3.06,11.378-4.111a.426.426,0,0,0,.287-.574c-.1-.191-.382-.382-.574-.287L23.381,37.985l-1.147-3.06,3.824-1.339a.454.454,0,0,0-.287-.86l-3.824,1.339L20.8,31l10.23-3.729a.454.454,0,0,0-.287-.86l-10.23,3.729-.669-1.912A2.336,2.336,0,0,1,19.939,26.129ZM38.3,51.37,34.185,40.184l15.3,7.075Zm-5.45,16.349L23.955,43.243,33.038,39.9l4.494,12.238a.206.206,0,0,0,.191.191h0a.334.334,0,0,1,.191.1H38.1l12.238-4.494,4.3,11.76ZM55.6,59.5,51.108,47.259v-.191l-.191-.191L40.017,41.9l10.8-3.92,7.458,20.556Z" transform="translate(-18.611 -20.225)"/>
      </g>
    </g>
    <g id="joe-product-icon_sandwich-2" data-name="joe-product-icon_sandwich" transform="translate(603.148 170.876) rotate(21)">
      <g id="Group_10-2" data-name="Group 10" transform="translate(0)">
        <path id="Path_19-2" data-name="Path 19" d="M28.9,32.23a.472.472,0,0,0,.43.258H29.5l6.443-2.32a.408.408,0,0,0-.258-.773l-6.443,2.32C28.982,31.8,28.81,32.058,28.9,32.23Z" transform="translate(-20.058 -21.513)"/>
        <path id="Path_20-2" data-name="Path 20" d="M38.738,34.041h.172l2.062-.773a.408.408,0,1,0-.258-.773l-2.062.773a.383.383,0,0,0-.258.515C38.395,33.955,38.567,34.041,38.738,34.041Z" transform="translate(-21.395 -21.949)"/>
        <path id="Path_21-2" data-name="Path 21" d="M55.285,54.739,48.24,35.5a.383.383,0,0,0-.515-.258h0a2.535,2.535,0,0,0-.172-1.718,2.607,2.607,0,0,0-1.117-1.46,2.4,2.4,0,0,1-.859-1.117,1.946,1.946,0,0,1-.086-1.375,3.316,3.316,0,0,0-.086-1.8,2.765,2.765,0,0,0-3.522-1.546h0l-1.117.43a2.21,2.21,0,0,1-1.289-.086,1.588,1.588,0,0,1-.945-1.46.7.7,0,0,0-1.117-.515,1.58,1.58,0,0,1-1.718.172,1.5,1.5,0,0,1-.945-1.46.646.646,0,0,0-.43-.6.835.835,0,0,0-.773.086,1.751,1.751,0,0,1-1.718.172,1.561,1.561,0,0,1-.859-.945l-.515-1.46q0-.129-.258-.258a.261.261,0,0,0-.344,0l-9.02,3.179a3.7,3.7,0,0,0-1.89,1.718,3,3,0,0,0-.086,2.577l2.062,5.584h0L22.21,36.87h0l1.117,3.179-.687.258a.383.383,0,0,0-.258.515l8.333,22.852a.472.472,0,0,0,.43.258h.172l20.446-7.474,3.265-1.2C55.2,55.169,55.371,54.911,55.285,54.739ZM44.632,28.021a1.946,1.946,0,0,1,.086,1.375,3.316,3.316,0,0,0,.086,1.8,2.554,2.554,0,0,0,1.117,1.46,2.4,2.4,0,0,1,.859,1.117,1.946,1.946,0,0,1,.086,1.375.517.517,0,0,1-.086.344l-1.976.687-3.35-9.02.687-.258h0A2.014,2.014,0,0,1,44.632,28.021ZM19.8,25.53a2.527,2.527,0,0,1,1.375-1.289l8.591-3.093.344,1.031A2.527,2.527,0,0,0,31.4,23.554a2.408,2.408,0,0,0,2.405-.172,2.552,2.552,0,0,0,1.46,1.89,2.408,2.408,0,0,0,2.405-.172,2.375,2.375,0,0,0,1.46,1.89,2.316,2.316,0,0,0,1.46.258l3.35,9.106-7.216,2.663L32.948,37.3l6.443-2.32a.408.408,0,1,0-.258-.773l-7.9,2.835h0l-.258.172h0L24.186,39.7l-1.031-2.749,10.223-3.694a.383.383,0,0,0,.258-.515c-.086-.172-.344-.344-.515-.258L22.9,36.183l-1.031-2.749,3.436-1.2a.408.408,0,1,0-.258-.773l-3.436,1.2-1.031-2.749,9.192-3.35a.408.408,0,0,0-.258-.773l-9.192,3.35-.6-1.718A2.1,2.1,0,0,1,19.8,25.53ZM36.3,48.21,32.6,38.159,46.35,44.516ZM31.4,62.9l-7.99-21.993L31.574,37.9l4.038,11a.185.185,0,0,0,.172.172h0a.3.3,0,0,1,.172.086h.172l11-4.038,3.866,10.567Zm20.446-7.388-4.038-11v-.172l-.172-.172L37.845,39.7l9.708-3.522,6.7,18.47Z" transform="translate(-18.611 -20.225)"/>
      </g>
    </g>
    <g id="joe-product-icon_sandwich-3" data-name="joe-product-icon_sandwich" transform="translate(685.679 171.042) rotate(20)">
      <g id="Group_10-3" data-name="Group 10" transform="translate(0)">
        <path id="Path_19-3" data-name="Path 19" d="M28.9,32.23a.472.472,0,0,0,.43.258H29.5l6.443-2.32a.408.408,0,0,0-.258-.773l-6.443,2.32C28.982,31.8,28.81,32.058,28.9,32.23Z" transform="translate(-20.058 -21.513)"/>
        <path id="Path_20-3" data-name="Path 20" d="M38.738,34.041h.172l2.062-.773a.408.408,0,1,0-.258-.773l-2.062.773a.383.383,0,0,0-.258.515C38.395,33.955,38.567,34.041,38.738,34.041Z" transform="translate(-21.395 -21.949)"/>
        <path id="Path_21-3" data-name="Path 21" d="M55.285,54.739,48.24,35.5a.383.383,0,0,0-.515-.258h0a2.535,2.535,0,0,0-.172-1.718,2.607,2.607,0,0,0-1.117-1.46,2.4,2.4,0,0,1-.859-1.117,1.946,1.946,0,0,1-.086-1.375,3.316,3.316,0,0,0-.086-1.8,2.765,2.765,0,0,0-3.522-1.546h0l-1.117.43a2.21,2.21,0,0,1-1.289-.086,1.588,1.588,0,0,1-.945-1.46.7.7,0,0,0-1.117-.515,1.58,1.58,0,0,1-1.718.172,1.5,1.5,0,0,1-.945-1.46.646.646,0,0,0-.43-.6.835.835,0,0,0-.773.086,1.751,1.751,0,0,1-1.718.172,1.561,1.561,0,0,1-.859-.945l-.515-1.46q0-.129-.258-.258a.261.261,0,0,0-.344,0l-9.02,3.179a3.7,3.7,0,0,0-1.89,1.718,3,3,0,0,0-.086,2.577l2.062,5.584h0L22.21,36.87h0l1.117,3.179-.687.258a.383.383,0,0,0-.258.515l8.333,22.852a.472.472,0,0,0,.43.258h.172l20.446-7.474,3.265-1.2C55.2,55.169,55.371,54.911,55.285,54.739ZM44.632,28.021a1.946,1.946,0,0,1,.086,1.375,3.316,3.316,0,0,0,.086,1.8,2.554,2.554,0,0,0,1.117,1.46,2.4,2.4,0,0,1,.859,1.117,1.946,1.946,0,0,1,.086,1.375.517.517,0,0,1-.086.344l-1.976.687-3.35-9.02.687-.258h0A2.014,2.014,0,0,1,44.632,28.021ZM19.8,25.53a2.527,2.527,0,0,1,1.375-1.289l8.591-3.093.344,1.031A2.527,2.527,0,0,0,31.4,23.554a2.408,2.408,0,0,0,2.405-.172,2.552,2.552,0,0,0,1.46,1.89,2.408,2.408,0,0,0,2.405-.172,2.375,2.375,0,0,0,1.46,1.89,2.316,2.316,0,0,0,1.46.258l3.35,9.106-7.216,2.663L32.948,37.3l6.443-2.32a.408.408,0,1,0-.258-.773l-7.9,2.835h0l-.258.172h0L24.186,39.7l-1.031-2.749,10.223-3.694a.383.383,0,0,0,.258-.515c-.086-.172-.344-.344-.515-.258L22.9,36.183l-1.031-2.749,3.436-1.2a.408.408,0,1,0-.258-.773l-3.436,1.2-1.031-2.749,9.192-3.35a.408.408,0,0,0-.258-.773l-9.192,3.35-.6-1.718A2.1,2.1,0,0,1,19.8,25.53ZM36.3,48.21,32.6,38.159,46.35,44.516ZM31.4,62.9l-7.99-21.993L31.574,37.9l4.038,11a.185.185,0,0,0,.172.172h0a.3.3,0,0,1,.172.086h.172l11-4.038,3.866,10.567Zm20.446-7.388-4.038-11v-.172l-.172-.172L37.845,39.7l9.708-3.522,6.7,18.47Z" transform="translate(-18.611 -20.225)"/>
      </g>
    </g>
    <g id="joe-product-icon_sandwich-4" data-name="joe-product-icon_sandwich" transform="translate(768.679 171.042) rotate(20)">
      <g id="Group_10-4" data-name="Group 10" transform="translate(0)">
        <path id="Path_19-4" data-name="Path 19" d="M28.9,32.23a.472.472,0,0,0,.43.258H29.5l6.443-2.32a.408.408,0,0,0-.258-.773l-6.443,2.32C28.982,31.8,28.81,32.058,28.9,32.23Z" transform="translate(-20.058 -21.513)"/>
        <path id="Path_20-4" data-name="Path 20" d="M38.738,34.041h.172l2.062-.773a.408.408,0,1,0-.258-.773l-2.062.773a.383.383,0,0,0-.258.515C38.395,33.955,38.567,34.041,38.738,34.041Z" transform="translate(-21.395 -21.949)"/>
        <path id="Path_21-4" data-name="Path 21" d="M55.285,54.739,48.24,35.5a.383.383,0,0,0-.515-.258h0a2.535,2.535,0,0,0-.172-1.718,2.607,2.607,0,0,0-1.117-1.46,2.4,2.4,0,0,1-.859-1.117,1.946,1.946,0,0,1-.086-1.375,3.316,3.316,0,0,0-.086-1.8,2.765,2.765,0,0,0-3.522-1.546h0l-1.117.43a2.21,2.21,0,0,1-1.289-.086,1.588,1.588,0,0,1-.945-1.46.7.7,0,0,0-1.117-.515,1.58,1.58,0,0,1-1.718.172,1.5,1.5,0,0,1-.945-1.46.646.646,0,0,0-.43-.6.835.835,0,0,0-.773.086,1.751,1.751,0,0,1-1.718.172,1.561,1.561,0,0,1-.859-.945l-.515-1.46q0-.129-.258-.258a.261.261,0,0,0-.344,0l-9.02,3.179a3.7,3.7,0,0,0-1.89,1.718,3,3,0,0,0-.086,2.577l2.062,5.584h0L22.21,36.87h0l1.117,3.179-.687.258a.383.383,0,0,0-.258.515l8.333,22.852a.472.472,0,0,0,.43.258h.172l20.446-7.474,3.265-1.2C55.2,55.169,55.371,54.911,55.285,54.739ZM44.632,28.021a1.946,1.946,0,0,1,.086,1.375,3.316,3.316,0,0,0,.086,1.8,2.554,2.554,0,0,0,1.117,1.46,2.4,2.4,0,0,1,.859,1.117,1.946,1.946,0,0,1,.086,1.375.517.517,0,0,1-.086.344l-1.976.687-3.35-9.02.687-.258h0A2.014,2.014,0,0,1,44.632,28.021ZM19.8,25.53a2.527,2.527,0,0,1,1.375-1.289l8.591-3.093.344,1.031A2.527,2.527,0,0,0,31.4,23.554a2.408,2.408,0,0,0,2.405-.172,2.552,2.552,0,0,0,1.46,1.89,2.408,2.408,0,0,0,2.405-.172,2.375,2.375,0,0,0,1.46,1.89,2.316,2.316,0,0,0,1.46.258l3.35,9.106-7.216,2.663L32.948,37.3l6.443-2.32a.408.408,0,1,0-.258-.773l-7.9,2.835h0l-.258.172h0L24.186,39.7l-1.031-2.749,10.223-3.694a.383.383,0,0,0,.258-.515c-.086-.172-.344-.344-.515-.258L22.9,36.183l-1.031-2.749,3.436-1.2a.408.408,0,1,0-.258-.773l-3.436,1.2-1.031-2.749,9.192-3.35a.408.408,0,0,0-.258-.773l-9.192,3.35-.6-1.718A2.1,2.1,0,0,1,19.8,25.53ZM36.3,48.21,32.6,38.159,46.35,44.516ZM31.4,62.9l-7.99-21.993L31.574,37.9l4.038,11a.185.185,0,0,0,.172.172h0a.3.3,0,0,1,.172.086h.172l11-4.038,3.866,10.567Zm20.446-7.388-4.038-11v-.172l-.172-.172L37.845,39.7l9.708-3.522,6.7,18.47Z" transform="translate(-18.611 -20.225)"/>
      </g>
    </g>
    <g id="joe-product-icon_sandwich-5" data-name="joe-product-icon_sandwich" transform="translate(849.679 171.042) rotate(20)">
      <g id="Group_10-5" data-name="Group 10" transform="translate(0)">
        <path id="Path_19-5" data-name="Path 19" d="M28.9,32.23a.472.472,0,0,0,.43.258H29.5l6.443-2.32a.408.408,0,0,0-.258-.773l-6.443,2.32C28.982,31.8,28.81,32.058,28.9,32.23Z" transform="translate(-20.058 -21.513)"/>
        <path id="Path_20-5" data-name="Path 20" d="M38.738,34.041h.172l2.062-.773a.408.408,0,1,0-.258-.773l-2.062.773a.383.383,0,0,0-.258.515C38.395,33.955,38.567,34.041,38.738,34.041Z" transform="translate(-21.395 -21.949)"/>
        <path id="Path_21-5" data-name="Path 21" d="M55.285,54.739,48.24,35.5a.383.383,0,0,0-.515-.258h0a2.535,2.535,0,0,0-.172-1.718,2.607,2.607,0,0,0-1.117-1.46,2.4,2.4,0,0,1-.859-1.117,1.946,1.946,0,0,1-.086-1.375,3.316,3.316,0,0,0-.086-1.8,2.765,2.765,0,0,0-3.522-1.546h0l-1.117.43a2.21,2.21,0,0,1-1.289-.086,1.588,1.588,0,0,1-.945-1.46.7.7,0,0,0-1.117-.515,1.58,1.58,0,0,1-1.718.172,1.5,1.5,0,0,1-.945-1.46.646.646,0,0,0-.43-.6.835.835,0,0,0-.773.086,1.751,1.751,0,0,1-1.718.172,1.561,1.561,0,0,1-.859-.945l-.515-1.46q0-.129-.258-.258a.261.261,0,0,0-.344,0l-9.02,3.179a3.7,3.7,0,0,0-1.89,1.718,3,3,0,0,0-.086,2.577l2.062,5.584h0L22.21,36.87h0l1.117,3.179-.687.258a.383.383,0,0,0-.258.515l8.333,22.852a.472.472,0,0,0,.43.258h.172l20.446-7.474,3.265-1.2C55.2,55.169,55.371,54.911,55.285,54.739ZM44.632,28.021a1.946,1.946,0,0,1,.086,1.375,3.316,3.316,0,0,0,.086,1.8,2.554,2.554,0,0,0,1.117,1.46,2.4,2.4,0,0,1,.859,1.117,1.946,1.946,0,0,1,.086,1.375.517.517,0,0,1-.086.344l-1.976.687-3.35-9.02.687-.258h0A2.014,2.014,0,0,1,44.632,28.021ZM19.8,25.53a2.527,2.527,0,0,1,1.375-1.289l8.591-3.093.344,1.031A2.527,2.527,0,0,0,31.4,23.554a2.408,2.408,0,0,0,2.405-.172,2.552,2.552,0,0,0,1.46,1.89,2.408,2.408,0,0,0,2.405-.172,2.375,2.375,0,0,0,1.46,1.89,2.316,2.316,0,0,0,1.46.258l3.35,9.106-7.216,2.663L32.948,37.3l6.443-2.32a.408.408,0,1,0-.258-.773l-7.9,2.835h0l-.258.172h0L24.186,39.7l-1.031-2.749,10.223-3.694a.383.383,0,0,0,.258-.515c-.086-.172-.344-.344-.515-.258L22.9,36.183l-1.031-2.749,3.436-1.2a.408.408,0,1,0-.258-.773l-3.436,1.2-1.031-2.749,9.192-3.35a.408.408,0,0,0-.258-.773l-9.192,3.35-.6-1.718A2.1,2.1,0,0,1,19.8,25.53ZM36.3,48.21,32.6,38.159,46.35,44.516ZM31.4,62.9l-7.99-21.993L31.574,37.9l4.038,11a.185.185,0,0,0,.172.172h0a.3.3,0,0,1,.172.086h.172l11-4.038,3.866,10.567Zm20.446-7.388-4.038-11v-.172l-.172-.172L37.845,39.7l9.708-3.522,6.7,18.47Z" transform="translate(-18.611 -20.225)"/>
      </g>
    </g>
    <g id="joe-product-icon_sandwich-6" data-name="joe-product-icon_sandwich" transform="matrix(0.94, 0.342, -0.342, 0.94, 930.679, 171.042)">
      <g id="Group_10-6" data-name="Group 10" transform="translate(0)">
        <path id="Path_19-6" data-name="Path 19" d="M28.9,32.23a.472.472,0,0,0,.43.258H29.5l6.443-2.32a.408.408,0,0,0-.258-.773l-6.443,2.32C28.982,31.8,28.81,32.058,28.9,32.23Z" transform="translate(-20.058 -21.513)"/>
        <path id="Path_20-6" data-name="Path 20" d="M38.738,34.041h.172l2.062-.773a.408.408,0,1,0-.258-.773l-2.062.773a.383.383,0,0,0-.258.515C38.395,33.955,38.567,34.041,38.738,34.041Z" transform="translate(-21.395 -21.949)"/>
        <path id="Path_21-6" data-name="Path 21" d="M55.285,54.739,48.24,35.5a.383.383,0,0,0-.515-.258h0a2.535,2.535,0,0,0-.172-1.718,2.607,2.607,0,0,0-1.117-1.46,2.4,2.4,0,0,1-.859-1.117,1.946,1.946,0,0,1-.086-1.375,3.316,3.316,0,0,0-.086-1.8,2.765,2.765,0,0,0-3.522-1.546h0l-1.117.43a2.21,2.21,0,0,1-1.289-.086,1.588,1.588,0,0,1-.945-1.46.7.7,0,0,0-1.117-.515,1.58,1.58,0,0,1-1.718.172,1.5,1.5,0,0,1-.945-1.46.646.646,0,0,0-.43-.6.835.835,0,0,0-.773.086,1.751,1.751,0,0,1-1.718.172,1.561,1.561,0,0,1-.859-.945l-.515-1.46q0-.129-.258-.258a.261.261,0,0,0-.344,0l-9.02,3.179a3.7,3.7,0,0,0-1.89,1.718,3,3,0,0,0-.086,2.577l2.062,5.584h0L22.21,36.87h0l1.117,3.179-.687.258a.383.383,0,0,0-.258.515l8.333,22.852a.472.472,0,0,0,.43.258h.172l20.446-7.474,3.265-1.2C55.2,55.169,55.371,54.911,55.285,54.739ZM44.632,28.021a1.946,1.946,0,0,1,.086,1.375,3.316,3.316,0,0,0,.086,1.8,2.554,2.554,0,0,0,1.117,1.46,2.4,2.4,0,0,1,.859,1.117,1.946,1.946,0,0,1,.086,1.375.517.517,0,0,1-.086.344l-1.976.687-3.35-9.02.687-.258h0A2.014,2.014,0,0,1,44.632,28.021ZM19.8,25.53a2.527,2.527,0,0,1,1.375-1.289l8.591-3.093.344,1.031A2.527,2.527,0,0,0,31.4,23.554a2.408,2.408,0,0,0,2.405-.172,2.552,2.552,0,0,0,1.46,1.89,2.408,2.408,0,0,0,2.405-.172,2.375,2.375,0,0,0,1.46,1.89,2.316,2.316,0,0,0,1.46.258l3.35,9.106-7.216,2.663L32.948,37.3l6.443-2.32a.408.408,0,1,0-.258-.773l-7.9,2.835h0l-.258.172h0L24.186,39.7l-1.031-2.749,10.223-3.694a.383.383,0,0,0,.258-.515c-.086-.172-.344-.344-.515-.258L22.9,36.183l-1.031-2.749,3.436-1.2a.408.408,0,1,0-.258-.773l-3.436,1.2-1.031-2.749,9.192-3.35a.408.408,0,0,0-.258-.773l-9.192,3.35-.6-1.718A2.1,2.1,0,0,1,19.8,25.53ZM36.3,48.21,32.6,38.159,46.35,44.516ZM31.4,62.9l-7.99-21.993L31.574,37.9l4.038,11a.185.185,0,0,0,.172.172h0a.3.3,0,0,1,.172.086h.172l11-4.038,3.866,10.567Zm20.446-7.388-4.038-11v-.172l-.172-.172L37.845,39.7l9.708-3.522,6.7,18.47Z" transform="translate(-18.611 -20.225)"/>
      </g>
    </g>
    <text id="_5_X_SANDWICHES_EXTRA_TOPPING" data-name="5 X SANDWICHES + EXTRA TOPPING" class="cls-9" transform="translate(589 63)"><tspan x="0" y="11">5 X SANDWICHES </tspan><tspan x="0" y="25">+ EXTRA TOPPING</tspan></text>
  </g>
</svg>
