<svg xmlns="http://www.w3.org/2000/svg" xmlns:xlink="http://www.w3.org/1999/xlink" viewBox="0 0 489 268">
  <defs>
    <style>
      .cls-1 {
        fill: #f6bbd0;
        stroke: #f6bbd0;
      }

      .cls-2 {
        font-size: 25px;
      }

      .cls-2, .cls-4, .cls-5 {
        font-family: Roboto-Bold, Roboto;
        font-weight: 700;
      }

      .cls-10, .cls-3, .cls-9 {
        fill: #fff;
      }

      .cls-3, .cls-6, .cls-8 {
        stroke: #fff;
      }

      .cls-4, .cls-5 {
        font-size: 35px;
      }

      .cls-5, .cls-7 {
        fill: #5c5c5c;
      }

      .cls-12, .cls-6, .cls-8 {
        fill: none;
      }

      .cls-6 {
        stroke-width: 3px;
      }

      .cls-7 {
        font-size: 10px;
        font-family: Roboto-Light, Roboto;
        font-weight: 300;
      }

      .cls-10 {
        font-size: 17px;
        font-family: Roboto-Regular, Roboto;
      }

      .cls-11 {
        stroke: none;
      }

      .cls-13 {
        filter: url(#Rectangle_1465);
      }
    </style>
    <filter id="Rectangle_1465" x="0" y="0" width="489" height="268" filterUnits="userSpaceOnUse">
      <feOffset dx="4" dy="4" input="SourceAlpha"/>
      <feGaussianBlur stdDeviation="2" result="blur"/>
      <feFlood flood-opacity="0.161"/>
      <feComposite operator="in" in2="blur"/>
      <feComposite in="SourceGraphic"/>
    </filter>
  </defs>
  <g id="Group_30" data-name="Group 30" transform="translate(-20 -24)">
    <g id="Group_29" data-name="Group 29">
      <g class="cls-13" transform="matrix(1, 0, 0, 1, 20, 24)">
        <g id="Rectangle_1465-2" data-name="Rectangle 1465" class="cls-1" transform="translate(2 2)">
          <rect class="cls-11" width="477" height="256" rx="18"/>
          <rect class="cls-12" x="0.5" y="0.5" width="476" height="255" rx="17.5"/>
        </g>
      </g>
    </g>
    <text id="JUICE_SHAKE" data-name="JUICE / SHAKE" class="cls-2" transform="translate(132 71)"><tspan x="0" y="23">JUICE / SHAKE</tspan></text>
    <g id="Group_13" data-name="Group 13" transform="translate(-102 -101)">
      <g id="Rectangle_1460" data-name="Rectangle 1460" class="cls-3" transform="translate(167 271)">
        <rect class="cls-11" width="63" height="60"/>
        <rect class="cls-12" x="0.5" y="0.5" width="62" height="59"/>
      </g>
      <g id="Rectangle_1461" data-name="Rectangle 1461" class="cls-3" transform="translate(249 271)">
        <rect class="cls-11" width="63" height="60"/>
        <rect class="cls-12" x="0.5" y="0.5" width="62" height="59"/>
      </g>
      <g id="Rectangle_1462" data-name="Rectangle 1462" class="cls-3" transform="translate(331 271)">
        <rect class="cls-11" width="63" height="60"/>
        <rect class="cls-12" x="0.5" y="0.5" width="62" height="59"/>
      </g>
      <g id="Rectangle_1463" data-name="Rectangle 1463" class="cls-3" transform="translate(413 271)">
        <rect class="cls-11" width="63" height="60"/>
        <rect class="cls-12" x="0.5" y="0.5" width="62" height="59"/>
      </g>
      <g id="Rectangle_1464" data-name="Rectangle 1464" class="cls-3" transform="translate(495 271)">
        <rect class="cls-11" width="63" height="60"/>
        <rect class="cls-12" x="0.5" y="0.5" width="62" height="59"/>
      </g>
    </g>
    <text id="_180_kr" data-name="180 kr" class="cls-4" transform="translate(377 63)"><tspan x="0" y="32">180 kr</tspan></text>
    <text id="_250_kr" data-name="250 kr" class="cls-5" transform="translate(377 103)"><tspan x="0" y="32">250 kr</tspan></text>
    <line id="Line_2" data-name="Line 2" class="cls-6" x2="104" y2="30" transform="translate(373.5 106.5)"/>
    <line id="Line_3" data-name="Line 3" class="cls-6" y1="30" x2="102" transform="translate(373.5 106.5)"/>
    <text id="_JOEANDTHEJUICE_JOEANDTHEJUICE_JOEJUICE.COM_" data-name="#JOEANDTHEJUICE  |  @JOEANDTHEJUICE  |  JOEJUICE.COM " class="cls-7" transform="translate(123 243)"><tspan x="0" y="9" xml:space="preserve">#JOEANDTHEJUICE  |  @JOEANDTHEJUICE  |  JOEJUICE.COM </tspan></text>
    <g id="Ellipse_2" data-name="Ellipse 2" class="cls-8" transform="translate(456 239)">
      <circle class="cls-11" cx="15" cy="15" r="15"/>
      <circle class="cls-12" cx="15" cy="15" r="14.5"/>
    </g>
    <line id="Line_4" data-name="Line 4" class="cls-8" x2="14" transform="translate(464.5 253.5)"/>
    <line id="Line_5" data-name="Line 5" class="cls-8" y2="14" transform="translate(471.5 246.5)"/>
    <g id="a8a7e8aaaec4f29003dae50dd72da3d8" transform="translate(26.668 229.668)">
      <path id="Path_33" data-name="Path 33" class="cls-9" d="M20.613,20.613H10V10H20.613Zm-8.63-1.983h6.644V11.983H11.983V18.63Z"/>
      <path id="Path_34" data-name="Path 34" class="cls-9" d="M132.4,132.4h3.539v3.539H132.4Z" transform="translate(-118.861 -118.861)"/>
      <path id="Path_35" data-name="Path 35" class="cls-9" d="M20.613,632.445H10V621.8H20.613Zm-8.63-1.983h6.644v-6.678H11.983v6.678Z" transform="translate(0 -594.113)"/>
      <path id="Path_36" data-name="Path 36" class="cls-9" d="M132.4,745.3h3.539v3.5H132.4Z" transform="translate(-118.861 -714.042)"/>
      <path id="Path_37" data-name="Path 37" class="cls-9" d="M632.445,20.613H621.8V10h10.645Zm-8.662-1.983h6.678V11.983h-6.678Z" transform="translate(-594.113)"/>
      <path id="Path_38" data-name="Path 38" class="cls-9" d="M745.3,132.4h3.5v3.539h-3.5Z" transform="translate(-714.042 -118.861)"/>
      <path id="Path_39" data-name="Path 39" class="cls-9" d="M10,377.1h3.539v3.57H10Z" transform="translate(0 -356.487)"/>
      <path id="Path_40" data-name="Path 40" class="cls-9" d="M254.7,500.6h3.539v3.5H254.7v-3.5Z" transform="translate(-237.626 -476.416)"/>
      <path id="Path_41" data-name="Path 41" class="cls-9" d="M500.6,10h3.5v3.539h-3.5Z" transform="translate(-476.416)"/>
      <path id="Path_42" data-name="Path 42" class="cls-9" d="M377.1,254.7h3.57v3.539H377.1Z" transform="translate(-356.487 -237.626)"/>
      <path id="Path_43" data-name="Path 43" class="cls-9" d="M500.6,866.5h3.5v3.57h-3.5Z" transform="translate(-476.416 -831.738)"/>
      <path id="Path_44" data-name="Path 44" class="cls-9" d="M745.3,866.5h7.074v3.57H745.3Z" transform="translate(-714.042 -831.738)"/>
      <path id="Path_45" data-name="Path 45" class="cls-9" d="M500.6,621.8h7.074v3.57H500.6Z" transform="translate(-476.416 -594.113)"/>
      <path id="Path_46" data-name="Path 46" class="cls-9" d="M745.3,621.8h3.5v7.074h-3.5Z" transform="translate(-714.042 -594.113)"/>
      <path id="Path_47" data-name="Path 47" class="cls-9" d="M855.1,621.8H859v3.57h-3.9Z" transform="translate(-820.668 -594.113)"/>
      <path id="Path_48" data-name="Path 48" class="cls-9" d="M500.6,377.1h3.5v3.57h-3.5Z" transform="translate(-476.416 -356.487)"/>
      <path id="Path_49" data-name="Path 49" class="cls-9" d="M621.8,500.6h3.57v3.5H621.8v-3.5Z" transform="translate(-594.113 -476.416)"/>
      <path id="Path_50" data-name="Path 50" class="cls-9" d="M745.3,377.1h3.5v3.57h-3.5Z" transform="translate(-714.042 -356.487)"/>
      <path id="Path_51" data-name="Path 51" class="cls-9" d="M866.5,500.6h3.57v3.5H866.5v-3.5Z" transform="translate(-831.738 -476.416)"/>
    </g>
    <g id="joe-product-icon_shake" transform="translate(33.668 36.371)">
      <g id="Group_11" data-name="Group 11" transform="translate(0 0)">
        <path id="Path_22" data-name="Path 22" d="M55.985,37.139a.952.952,0,0,0-1.347,1.347,26.939,26.939,0,0,1,5,27.32.807.807,0,0,0,.577,1.154H60.6a1.058,1.058,0,0,0,.962-.577,29.874,29.874,0,0,0,1.732-10.2A28.105,28.105,0,0,0,55.985,37.139Z" transform="translate(16.628 16.805)"/>
        <path id="Path_23" data-name="Path 23" d="M55.848,32.2a.962.962,0,0,0-1.154,1.539A33.537,33.537,0,0,1,68.161,60.868,35.164,35.164,0,0,1,62.774,79.53a.951.951,0,0,0,.192,1.347.707.707,0,0,0,.577.192,1,1,0,0,0,.77-.385A35.473,35.473,0,0,0,70.085,61.06,34.856,34.856,0,0,0,55.848,32.2Z" transform="translate(16.574 12.315)"/>
        <path id="Path_24" data-name="Path 24" d="M35.247,74.643a.672.672,0,0,1,.385.192c.385,0,.577-.192.77-.577a1.275,1.275,0,0,0-.385-1.347A25.871,25.871,0,0,1,24.088,58.289a31.919,31.919,0,0,1-1.347-9.427.962.962,0,0,0-1.924,0,30.369,30.369,0,0,0,1.347,10.2A29.194,29.194,0,0,0,35.247,74.643Z" transform="translate(-14.389 27.015)"/>
        <path id="Path_25" data-name="Path 25" d="M41.973,85.667A31.657,31.657,0,0,1,21,64.5a34.07,34.07,0,0,1-.385-19.624c.192-.577-.192-.962-.77-1.154s-.962.192-1.154.77A35.762,35.762,0,0,0,19.27,65.08C22.733,75.854,31.006,84.32,41.4,87.4h.192a.982.982,0,0,0,.962-.77C42.742,86.436,42.358,85.859,41.973,85.667Z" transform="translate(-17.458 23.11)"/>
        <path id="Path_26" data-name="Path 26" d="M70.867,61.559c0-.192-.192-.385-.192-.577h.385a2.153,2.153,0,0,0,1.347-2.694L71.06,54.633a2.2,2.2,0,0,0-2.5-1.347h0c-4.618-9.043-14.43-14.43-23.665-12.891L41.431,41.55l-2.116-12.7,7.119-18.662A.913.913,0,1,0,44.7,9.612L37.583,28.274a2.44,2.44,0,0,0-.192,1.154L39.7,42.319l-3.656,1.347c-7.888,4.618-12.121,15.392-9.812,25.2a2.318,2.318,0,0,0-.962.962,2.67,2.67,0,0,0,0,1.732l1.347,3.656a2.081,2.081,0,0,0,2.116,1.347,1.157,1.157,0,0,0,.77-.192l.385-.192a.707.707,0,0,0,.192.577l25.4,50.6a2.116,2.116,0,0,0,1.924,1.154,1.454,1.454,0,0,0,.77-.192l23.857-8.658a2.2,2.2,0,0,0,1.347-2.5ZM36.621,45.205l8.658-3.078C53.359,40.78,62.4,45.782,66.635,53.863L32.965,66.177a10.164,10.164,0,0,1-.192-2.5A15.858,15.858,0,0,1,38.737,50.4a.962.962,0,0,0-1.154-1.539c-4.425,3.078-6.926,8.85-6.926,14.815a16.84,16.84,0,0,0,.385,3.078l-3.463,1.154C25.846,59.058,29.694,49.438,36.621,45.205ZM28.348,74.45c-.192,0-.192,0-.385-.192l-1.347-3.848.192-.192,41.942-15.2h0a.188.188,0,0,1,.192.192l1.347,3.656c0,.192,0,.192-.192.385L37.005,71.371,30.656,73.68h0Zm52.524,43.482-23.857,8.658a.188.188,0,0,1-.192-.192L39.314,91.573a3.5,3.5,0,0,1,2.116-.77,3.366,3.366,0,0,1,2.694,1.347,5.141,5.141,0,0,0,7.7,0A3.366,3.366,0,0,1,54.514,90.8a.962.962,0,1,0,0-1.924,5.19,5.19,0,0,0-3.848,1.732,3.367,3.367,0,0,1-5.387,0,5.19,5.19,0,0,0-3.848-1.732,3.983,3.983,0,0,0-2.886.962L31.426,75.8v-.385h0l37.517-13.66a.188.188,0,0,1,.192.192l3.656,17.316a6.749,6.749,0,0,1-1.539-.962,5.141,5.141,0,0,0-7.7,0,3.367,3.367,0,0,1-5.387,0,5.19,5.19,0,0,0-3.848-1.732.962.962,0,0,0,0,1.924,3.366,3.366,0,0,1,2.694,1.347,5.141,5.141,0,0,0,7.7,0,3.367,3.367,0,0,1,5.387,0,5.375,5.375,0,0,0,3.271,1.732l7.7,36.171A.188.188,0,0,0,80.872,117.931Z" transform="translate(-10.375 -8.962)"/>
      </g>
    </g>
    <g id="joe-product-icon_shake-2" data-name="joe-product-icon_shake" transform="translate(78.113 174.504)">
      <g id="Group_11-2" data-name="Group 11" transform="translate(0 0)">
        <path id="Path_22-2" data-name="Path 22" d="M55.052,36.974a.409.409,0,0,0-.578.578,11.569,11.569,0,0,1,2.148,11.733.346.346,0,0,0,.248.5h.165a.454.454,0,0,0,.413-.248,12.829,12.829,0,0,0,.744-4.379A12.07,12.07,0,0,0,55.052,36.974Z" transform="translate(-23.868 -13.808)"/>
        <path id="Path_23-2" data-name="Path 23" d="M54.959,32.081a.413.413,0,0,0-.5.661,14.4,14.4,0,0,1,5.784,11.65,15.1,15.1,0,0,1-2.314,8.015.408.408,0,0,0,.083.578.3.3,0,0,0,.248.083.429.429,0,0,0,.33-.165,15.234,15.234,0,0,0,2.479-8.428A14.969,14.969,0,0,0,54.959,32.081Z" transform="translate(-23.858 -12.964)"/>
        <path id="Path_24-2" data-name="Path 24" d="M26.994,59.385a.288.288,0,0,1,.165.083c.165,0,.248-.083.331-.248a.548.548,0,0,0-.165-.578,11.11,11.11,0,0,1-5.123-6.28,13.708,13.708,0,0,1-.578-4.049.413.413,0,1,0-.826,0,13.042,13.042,0,0,0,.578,4.379A12.538,12.538,0,0,0,26.994,59.385Z" transform="translate(-18.036 -15.728)"/>
        <path id="Path_25-2" data-name="Path 25" d="M27.986,61.708a13.6,13.6,0,0,1-9.006-9.089,14.631,14.631,0,0,1-.165-8.428c.083-.248-.083-.413-.331-.5s-.413.083-.5.331a15.358,15.358,0,0,0,.248,8.841,14.507,14.507,0,0,0,9.5,9.585h.083a.422.422,0,0,0,.413-.33C28.317,62.038,28.151,61.79,27.986,61.708Z" transform="translate(-17.458 -14.994)"/>
        <path id="Path_26-2" data-name="Path 26" d="M44.769,31.55c0-.083-.083-.165-.083-.248h.165a.925.925,0,0,0,.578-1.157l-.578-1.57A.947.947,0,0,0,43.778,28h0a9.959,9.959,0,0,0-10.163-5.536l-1.487.5L31.219,17.5l3.057-8.015a.392.392,0,1,0-.744-.248l-3.057,8.015a1.048,1.048,0,0,0-.083.5l.992,5.536-1.57.578c-3.388,1.983-5.205,6.61-4.214,10.824a1,1,0,0,0-.413.413,1.146,1.146,0,0,0,0,.744l.578,1.57a.894.894,0,0,0,.909.578.5.5,0,0,0,.33-.083l.165-.083a.3.3,0,0,0,.083.248l10.907,21.73a.909.909,0,0,0,.826.5.625.625,0,0,0,.331-.083L49.561,56.5a.947.947,0,0,0,.578-1.074ZM30.062,24.527l3.718-1.322c3.47-.578,7.354,1.57,9.171,5.04L28.492,33.533a4.365,4.365,0,0,1-.083-1.074,6.81,6.81,0,0,1,2.561-5.7.413.413,0,1,0-.5-.661A7.733,7.733,0,0,0,27.5,32.459a7.232,7.232,0,0,0,.165,1.322l-1.487.5C25.435,30.476,27.087,26.345,30.062,24.527ZM26.509,37.086c-.083,0-.083,0-.165-.083l-.578-1.653.083-.083L43.86,28.741h0a.081.081,0,0,1,.083.083l.578,1.57c0,.083,0,.083-.083.165L30.227,35.764l-2.727.991h0ZM49.066,55.759,38.82,59.478a.081.081,0,0,1-.083-.083L31.219,44.44a1.5,1.5,0,0,1,.909-.33,1.446,1.446,0,0,1,1.157.578,2.208,2.208,0,0,0,3.305,0,1.446,1.446,0,0,1,1.157-.578.413.413,0,0,0,0-.826,2.229,2.229,0,0,0-1.653.744,1.446,1.446,0,0,1-2.314,0,2.229,2.229,0,0,0-1.653-.744,1.71,1.71,0,0,0-1.239.413l-3.057-6.032V37.5h0l16.112-5.866a.081.081,0,0,1,.083.083l1.57,7.436a2.9,2.9,0,0,1-.661-.413,2.208,2.208,0,0,0-3.305,0,1.446,1.446,0,0,1-2.314,0,2.229,2.229,0,0,0-1.653-.744.413.413,0,0,0,0,.826,1.446,1.446,0,0,1,1.157.578,2.208,2.208,0,0,0,3.305,0,1.446,1.446,0,0,1,2.314,0,2.309,2.309,0,0,0,1.4.744l3.305,15.534A.081.081,0,0,0,49.066,55.759Z" transform="translate(-18.791 -8.962)"/>
      </g>
    </g>
    <g id="joe-product-icon_shake-3" data-name="joe-product-icon_shake" transform="translate(160.113 174.504)">
      <g id="Group_11-3" data-name="Group 11" transform="translate(0 0)">
        <path id="Path_22-3" data-name="Path 22" d="M55.052,36.974a.409.409,0,0,0-.578.578,11.569,11.569,0,0,1,2.148,11.733.346.346,0,0,0,.248.5h.165a.454.454,0,0,0,.413-.248,12.829,12.829,0,0,0,.744-4.379A12.07,12.07,0,0,0,55.052,36.974Z" transform="translate(-23.868 -13.808)"/>
        <path id="Path_23-3" data-name="Path 23" d="M54.959,32.081a.413.413,0,0,0-.5.661,14.4,14.4,0,0,1,5.784,11.65,15.1,15.1,0,0,1-2.314,8.015.408.408,0,0,0,.083.578.3.3,0,0,0,.248.083.429.429,0,0,0,.33-.165,15.234,15.234,0,0,0,2.479-8.428A14.969,14.969,0,0,0,54.959,32.081Z" transform="translate(-23.858 -12.964)"/>
        <path id="Path_24-3" data-name="Path 24" d="M26.994,59.385a.288.288,0,0,1,.165.083c.165,0,.248-.083.331-.248a.548.548,0,0,0-.165-.578,11.11,11.11,0,0,1-5.123-6.28,13.708,13.708,0,0,1-.578-4.049.413.413,0,1,0-.826,0,13.042,13.042,0,0,0,.578,4.379A12.538,12.538,0,0,0,26.994,59.385Z" transform="translate(-18.036 -15.728)"/>
        <path id="Path_25-3" data-name="Path 25" d="M27.986,61.708a13.6,13.6,0,0,1-9.006-9.089,14.631,14.631,0,0,1-.165-8.428c.083-.248-.083-.413-.331-.5s-.413.083-.5.331a15.358,15.358,0,0,0,.248,8.841,14.507,14.507,0,0,0,9.5,9.585h.083a.422.422,0,0,0,.413-.33C28.317,62.038,28.151,61.79,27.986,61.708Z" transform="translate(-17.458 -14.994)"/>
        <path id="Path_26-3" data-name="Path 26" d="M44.769,31.55c0-.083-.083-.165-.083-.248h.165a.925.925,0,0,0,.578-1.157l-.578-1.57A.947.947,0,0,0,43.778,28h0a9.959,9.959,0,0,0-10.163-5.536l-1.487.5L31.219,17.5l3.057-8.015a.392.392,0,1,0-.744-.248l-3.057,8.015a1.048,1.048,0,0,0-.083.5l.992,5.536-1.57.578c-3.388,1.983-5.205,6.61-4.214,10.824a1,1,0,0,0-.413.413,1.146,1.146,0,0,0,0,.744l.578,1.57a.894.894,0,0,0,.909.578.5.5,0,0,0,.33-.083l.165-.083a.3.3,0,0,0,.083.248l10.907,21.73a.909.909,0,0,0,.826.5.625.625,0,0,0,.331-.083L49.561,56.5a.947.947,0,0,0,.578-1.074ZM30.062,24.527l3.718-1.322c3.47-.578,7.354,1.57,9.171,5.04L28.492,33.533a4.365,4.365,0,0,1-.083-1.074,6.81,6.81,0,0,1,2.561-5.7.413.413,0,1,0-.5-.661A7.733,7.733,0,0,0,27.5,32.459a7.232,7.232,0,0,0,.165,1.322l-1.487.5C25.435,30.476,27.087,26.345,30.062,24.527ZM26.509,37.086c-.083,0-.083,0-.165-.083l-.578-1.653.083-.083L43.86,28.741h0a.081.081,0,0,1,.083.083l.578,1.57c0,.083,0,.083-.083.165L30.227,35.764l-2.727.991h0ZM49.066,55.759,38.82,59.478a.081.081,0,0,1-.083-.083L31.219,44.44a1.5,1.5,0,0,1,.909-.33,1.446,1.446,0,0,1,1.157.578,2.208,2.208,0,0,0,3.305,0,1.446,1.446,0,0,1,1.157-.578.413.413,0,0,0,0-.826,2.229,2.229,0,0,0-1.653.744,1.446,1.446,0,0,1-2.314,0,2.229,2.229,0,0,0-1.653-.744,1.71,1.71,0,0,0-1.239.413l-3.057-6.032V37.5h0l16.112-5.866a.081.081,0,0,1,.083.083l1.57,7.436a2.9,2.9,0,0,1-.661-.413,2.208,2.208,0,0,0-3.305,0,1.446,1.446,0,0,1-2.314,0,2.229,2.229,0,0,0-1.653-.744.413.413,0,0,0,0,.826,1.446,1.446,0,0,1,1.157.578,2.208,2.208,0,0,0,3.305,0,1.446,1.446,0,0,1,2.314,0,2.309,2.309,0,0,0,1.4.744l3.305,15.534A.081.081,0,0,0,49.066,55.759Z" transform="translate(-18.791 -8.962)"/>
      </g>
    </g>
    <g id="joe-product-icon_shake-4" data-name="joe-product-icon_shake" transform="translate(242.113 174.504)">
      <g id="Group_11-4" data-name="Group 11" transform="translate(0 0)">
        <path id="Path_22-4" data-name="Path 22" d="M55.052,36.974a.409.409,0,0,0-.578.578,11.569,11.569,0,0,1,2.148,11.733.346.346,0,0,0,.248.5h.165a.454.454,0,0,0,.413-.248,12.829,12.829,0,0,0,.744-4.379A12.07,12.07,0,0,0,55.052,36.974Z" transform="translate(-23.868 -13.808)"/>
        <path id="Path_23-4" data-name="Path 23" d="M54.959,32.081a.413.413,0,0,0-.5.661,14.4,14.4,0,0,1,5.784,11.65,15.1,15.1,0,0,1-2.314,8.015.408.408,0,0,0,.083.578.3.3,0,0,0,.248.083.429.429,0,0,0,.33-.165,15.234,15.234,0,0,0,2.479-8.428A14.969,14.969,0,0,0,54.959,32.081Z" transform="translate(-23.858 -12.964)"/>
        <path id="Path_24-4" data-name="Path 24" d="M26.994,59.385a.288.288,0,0,1,.165.083c.165,0,.248-.083.331-.248a.548.548,0,0,0-.165-.578,11.11,11.11,0,0,1-5.123-6.28,13.708,13.708,0,0,1-.578-4.049.413.413,0,1,0-.826,0,13.042,13.042,0,0,0,.578,4.379A12.538,12.538,0,0,0,26.994,59.385Z" transform="translate(-18.036 -15.728)"/>
        <path id="Path_25-4" data-name="Path 25" d="M27.986,61.708a13.6,13.6,0,0,1-9.006-9.089,14.631,14.631,0,0,1-.165-8.428c.083-.248-.083-.413-.331-.5s-.413.083-.5.331a15.358,15.358,0,0,0,.248,8.841,14.507,14.507,0,0,0,9.5,9.585h.083a.422.422,0,0,0,.413-.33C28.317,62.038,28.151,61.79,27.986,61.708Z" transform="translate(-17.458 -14.994)"/>
        <path id="Path_26-4" data-name="Path 26" d="M44.769,31.55c0-.083-.083-.165-.083-.248h.165a.925.925,0,0,0,.578-1.157l-.578-1.57A.947.947,0,0,0,43.778,28h0a9.959,9.959,0,0,0-10.163-5.536l-1.487.5L31.219,17.5l3.057-8.015a.392.392,0,1,0-.744-.248l-3.057,8.015a1.048,1.048,0,0,0-.083.5l.992,5.536-1.57.578c-3.388,1.983-5.205,6.61-4.214,10.824a1,1,0,0,0-.413.413,1.146,1.146,0,0,0,0,.744l.578,1.57a.894.894,0,0,0,.909.578.5.5,0,0,0,.33-.083l.165-.083a.3.3,0,0,0,.083.248l10.907,21.73a.909.909,0,0,0,.826.5.625.625,0,0,0,.331-.083L49.561,56.5a.947.947,0,0,0,.578-1.074ZM30.062,24.527l3.718-1.322c3.47-.578,7.354,1.57,9.171,5.04L28.492,33.533a4.365,4.365,0,0,1-.083-1.074,6.81,6.81,0,0,1,2.561-5.7.413.413,0,1,0-.5-.661A7.733,7.733,0,0,0,27.5,32.459a7.232,7.232,0,0,0,.165,1.322l-1.487.5C25.435,30.476,27.087,26.345,30.062,24.527ZM26.509,37.086c-.083,0-.083,0-.165-.083l-.578-1.653.083-.083L43.86,28.741h0a.081.081,0,0,1,.083.083l.578,1.57c0,.083,0,.083-.083.165L30.227,35.764l-2.727.991h0ZM49.066,55.759,38.82,59.478a.081.081,0,0,1-.083-.083L31.219,44.44a1.5,1.5,0,0,1,.909-.33,1.446,1.446,0,0,1,1.157.578,2.208,2.208,0,0,0,3.305,0,1.446,1.446,0,0,1,1.157-.578.413.413,0,0,0,0-.826,2.229,2.229,0,0,0-1.653.744,1.446,1.446,0,0,1-2.314,0,2.229,2.229,0,0,0-1.653-.744,1.71,1.71,0,0,0-1.239.413l-3.057-6.032V37.5h0l16.112-5.866a.081.081,0,0,1,.083.083l1.57,7.436a2.9,2.9,0,0,1-.661-.413,2.208,2.208,0,0,0-3.305,0,1.446,1.446,0,0,1-2.314,0,2.229,2.229,0,0,0-1.653-.744.413.413,0,0,0,0,.826,1.446,1.446,0,0,1,1.157.578,2.208,2.208,0,0,0,3.305,0,1.446,1.446,0,0,1,2.314,0,2.309,2.309,0,0,0,1.4.744l3.305,15.534A.081.081,0,0,0,49.066,55.759Z" transform="translate(-18.791 -8.962)"/>
      </g>
    </g>
    <g id="joe-product-icon_shake-5" data-name="joe-product-icon_shake" transform="translate(324.113 174.504)">
      <g id="Group_11-5" data-name="Group 11" transform="translate(0 0)">
        <path id="Path_22-5" data-name="Path 22" d="M55.052,36.974a.409.409,0,0,0-.578.578,11.569,11.569,0,0,1,2.148,11.733.346.346,0,0,0,.248.5h.165a.454.454,0,0,0,.413-.248,12.829,12.829,0,0,0,.744-4.379A12.07,12.07,0,0,0,55.052,36.974Z" transform="translate(-23.868 -13.808)"/>
        <path id="Path_23-5" data-name="Path 23" d="M54.959,32.081a.413.413,0,0,0-.5.661,14.4,14.4,0,0,1,5.784,11.65,15.1,15.1,0,0,1-2.314,8.015.408.408,0,0,0,.083.578.3.3,0,0,0,.248.083.429.429,0,0,0,.33-.165,15.234,15.234,0,0,0,2.479-8.428A14.969,14.969,0,0,0,54.959,32.081Z" transform="translate(-23.858 -12.964)"/>
        <path id="Path_24-5" data-name="Path 24" d="M26.994,59.385a.288.288,0,0,1,.165.083c.165,0,.248-.083.331-.248a.548.548,0,0,0-.165-.578,11.11,11.11,0,0,1-5.123-6.28,13.708,13.708,0,0,1-.578-4.049.413.413,0,1,0-.826,0,13.042,13.042,0,0,0,.578,4.379A12.538,12.538,0,0,0,26.994,59.385Z" transform="translate(-18.036 -15.728)"/>
        <path id="Path_25-5" data-name="Path 25" d="M27.986,61.708a13.6,13.6,0,0,1-9.006-9.089,14.631,14.631,0,0,1-.165-8.428c.083-.248-.083-.413-.331-.5s-.413.083-.5.331a15.358,15.358,0,0,0,.248,8.841,14.507,14.507,0,0,0,9.5,9.585h.083a.422.422,0,0,0,.413-.33C28.317,62.038,28.151,61.79,27.986,61.708Z" transform="translate(-17.458 -14.994)"/>
        <path id="Path_26-5" data-name="Path 26" d="M44.769,31.55c0-.083-.083-.165-.083-.248h.165a.925.925,0,0,0,.578-1.157l-.578-1.57A.947.947,0,0,0,43.778,28h0a9.959,9.959,0,0,0-10.163-5.536l-1.487.5L31.219,17.5l3.057-8.015a.392.392,0,1,0-.744-.248l-3.057,8.015a1.048,1.048,0,0,0-.083.5l.992,5.536-1.57.578c-3.388,1.983-5.205,6.61-4.214,10.824a1,1,0,0,0-.413.413,1.146,1.146,0,0,0,0,.744l.578,1.57a.894.894,0,0,0,.909.578.5.5,0,0,0,.33-.083l.165-.083a.3.3,0,0,0,.083.248l10.907,21.73a.909.909,0,0,0,.826.5.625.625,0,0,0,.331-.083L49.561,56.5a.947.947,0,0,0,.578-1.074ZM30.062,24.527l3.718-1.322c3.47-.578,7.354,1.57,9.171,5.04L28.492,33.533a4.365,4.365,0,0,1-.083-1.074,6.81,6.81,0,0,1,2.561-5.7.413.413,0,1,0-.5-.661A7.733,7.733,0,0,0,27.5,32.459a7.232,7.232,0,0,0,.165,1.322l-1.487.5C25.435,30.476,27.087,26.345,30.062,24.527ZM26.509,37.086c-.083,0-.083,0-.165-.083l-.578-1.653.083-.083L43.86,28.741h0a.081.081,0,0,1,.083.083l.578,1.57c0,.083,0,.083-.083.165L30.227,35.764l-2.727.991h0ZM49.066,55.759,38.82,59.478a.081.081,0,0,1-.083-.083L31.219,44.44a1.5,1.5,0,0,1,.909-.33,1.446,1.446,0,0,1,1.157.578,2.208,2.208,0,0,0,3.305,0,1.446,1.446,0,0,1,1.157-.578.413.413,0,0,0,0-.826,2.229,2.229,0,0,0-1.653.744,1.446,1.446,0,0,1-2.314,0,2.229,2.229,0,0,0-1.653-.744,1.71,1.71,0,0,0-1.239.413l-3.057-6.032V37.5h0l16.112-5.866a.081.081,0,0,1,.083.083l1.57,7.436a2.9,2.9,0,0,1-.661-.413,2.208,2.208,0,0,0-3.305,0,1.446,1.446,0,0,1-2.314,0,2.229,2.229,0,0,0-1.653-.744.413.413,0,0,0,0,.826,1.446,1.446,0,0,1,1.157.578,2.208,2.208,0,0,0,3.305,0,1.446,1.446,0,0,1,2.314,0,2.309,2.309,0,0,0,1.4.744l3.305,15.534A.081.081,0,0,0,49.066,55.759Z" transform="translate(-18.791 -8.962)"/>
      </g>
    </g>
    <g id="joe-product-icon_shake-6" data-name="joe-product-icon_shake" transform="translate(406.113 174.504)">
      <g id="Group_11-6" data-name="Group 11" transform="translate(0 0)">
        <path id="Path_22-6" data-name="Path 22" d="M55.052,36.974a.409.409,0,0,0-.578.578,11.569,11.569,0,0,1,2.148,11.733.346.346,0,0,0,.248.5h.165a.454.454,0,0,0,.413-.248,12.829,12.829,0,0,0,.744-4.379A12.07,12.07,0,0,0,55.052,36.974Z" transform="translate(-23.868 -13.808)"/>
        <path id="Path_23-6" data-name="Path 23" d="M54.959,32.081a.413.413,0,0,0-.5.661,14.4,14.4,0,0,1,5.784,11.65,15.1,15.1,0,0,1-2.314,8.015.408.408,0,0,0,.083.578.3.3,0,0,0,.248.083.429.429,0,0,0,.33-.165,15.234,15.234,0,0,0,2.479-8.428A14.969,14.969,0,0,0,54.959,32.081Z" transform="translate(-23.858 -12.964)"/>
        <path id="Path_24-6" data-name="Path 24" d="M26.994,59.385a.288.288,0,0,1,.165.083c.165,0,.248-.083.331-.248a.548.548,0,0,0-.165-.578,11.11,11.11,0,0,1-5.123-6.28,13.708,13.708,0,0,1-.578-4.049.413.413,0,1,0-.826,0,13.042,13.042,0,0,0,.578,4.379A12.538,12.538,0,0,0,26.994,59.385Z" transform="translate(-18.036 -15.728)"/>
        <path id="Path_25-6" data-name="Path 25" d="M27.986,61.708a13.6,13.6,0,0,1-9.006-9.089,14.631,14.631,0,0,1-.165-8.428c.083-.248-.083-.413-.331-.5s-.413.083-.5.331a15.358,15.358,0,0,0,.248,8.841,14.507,14.507,0,0,0,9.5,9.585h.083a.422.422,0,0,0,.413-.33C28.317,62.038,28.151,61.79,27.986,61.708Z" transform="translate(-17.458 -14.994)"/>
        <path id="Path_26-6" data-name="Path 26" d="M44.769,31.55c0-.083-.083-.165-.083-.248h.165a.925.925,0,0,0,.578-1.157l-.578-1.57A.947.947,0,0,0,43.778,28h0a9.959,9.959,0,0,0-10.163-5.536l-1.487.5L31.219,17.5l3.057-8.015a.392.392,0,1,0-.744-.248l-3.057,8.015a1.048,1.048,0,0,0-.083.5l.992,5.536-1.57.578c-3.388,1.983-5.205,6.61-4.214,10.824a1,1,0,0,0-.413.413,1.146,1.146,0,0,0,0,.744l.578,1.57a.894.894,0,0,0,.909.578.5.5,0,0,0,.33-.083l.165-.083a.3.3,0,0,0,.083.248l10.907,21.73a.909.909,0,0,0,.826.5.625.625,0,0,0,.331-.083L49.561,56.5a.947.947,0,0,0,.578-1.074ZM30.062,24.527l3.718-1.322c3.47-.578,7.354,1.57,9.171,5.04L28.492,33.533a4.365,4.365,0,0,1-.083-1.074,6.81,6.81,0,0,1,2.561-5.7.413.413,0,1,0-.5-.661A7.733,7.733,0,0,0,27.5,32.459a7.232,7.232,0,0,0,.165,1.322l-1.487.5C25.435,30.476,27.087,26.345,30.062,24.527ZM26.509,37.086c-.083,0-.083,0-.165-.083l-.578-1.653.083-.083L43.86,28.741h0a.081.081,0,0,1,.083.083l.578,1.57c0,.083,0,.083-.083.165L30.227,35.764l-2.727.991h0ZM49.066,55.759,38.82,59.478a.081.081,0,0,1-.083-.083L31.219,44.44a1.5,1.5,0,0,1,.909-.33,1.446,1.446,0,0,1,1.157.578,2.208,2.208,0,0,0,3.305,0,1.446,1.446,0,0,1,1.157-.578.413.413,0,0,0,0-.826,2.229,2.229,0,0,0-1.653.744,1.446,1.446,0,0,1-2.314,0,2.229,2.229,0,0,0-1.653-.744,1.71,1.71,0,0,0-1.239.413l-3.057-6.032V37.5h0l16.112-5.866a.081.081,0,0,1,.083.083l1.57,7.436a2.9,2.9,0,0,1-.661-.413,2.208,2.208,0,0,0-3.305,0,1.446,1.446,0,0,1-2.314,0,2.229,2.229,0,0,0-1.653-.744.413.413,0,0,0,0,.826,1.446,1.446,0,0,1,1.157.578,2.208,2.208,0,0,0,3.305,0,1.446,1.446,0,0,1,2.314,0,2.309,2.309,0,0,0,1.4.744l3.305,15.534A.081.081,0,0,0,49.066,55.759Z" transform="translate(-18.791 -8.962)"/>
      </g>
    </g>
    <text id="_5_X_JUICES_SHAKES_12oz_EXTRA_INGREDIENT" data-name="5 X JUICES/SHAKES (12oz) + EXTRA INGREDIENT" class="cls-10" transform="translate(132 113)"><tspan x="0" y="16">5 X JUICES/SHAKES (12oz) </tspan><tspan x="0" y="36">+ EXTRA INGREDIENT</tspan></text>
  </g>
</svg>
