<svg xmlns="http://www.w3.org/2000/svg" xmlns:xlink="http://www.w3.org/1999/xlink" viewBox="0 0 489 268">
  <defs>
    <style>
      .cls-1 {
        fill: #9fd1b3;
        stroke: #9fd1b3;
      }

      .cls-2 {
        font-size: 14px;
        font-family: Roboto-Regular, Roboto;
      }

      .cls-3, .cls-8 {
        fill: #fff;
      }

      .cls-3, .cls-7 {
        stroke: #fff;
      }

      .cls-4 {
        font-size: 16px;
        font-family: Roboto-Bold, Roboto;
        font-weight: 700;
      }

      .cls-11, .cls-5, .cls-7 {
        fill: none;
      }

      .cls-5 {
        stroke: #707070;
      }

      .cls-6 {
        fill: #707070;
        font-size: 10px;
      }

      .cls-6, .cls-9 {
        font-family: Roboto-Light, Roboto;
        font-weight: 300;
      }

      .cls-9 {
        font-size: 12px;
      }

      .cls-10 {
        stroke: none;
      }

      .cls-12 {
        filter: url(#Rectangle_1471);
      }
    </style>
    <filter id="Rectangle_1471" x="0" y="0" width="489" height="268" filterUnits="userSpaceOnUse">
      <feOffset dx="4" dy="4" input="SourceAlpha"/>
      <feGaussianBlur stdDeviation="2" result="blur"/>
      <feFlood flood-opacity="0.161"/>
      <feComposite operator="in" in2="blur"/>
      <feComposite in="SourceGraphic"/>
    </filter>
  </defs>
  <g id="Group_27" data-name="Group 27" transform="translate(-534 -571)">
    <g class="cls-12" transform="matrix(1, 0, 0, 1, 534, 571)">
      <g id="Rectangle_1471-2" data-name="Rectangle 1471" class="cls-1" transform="translate(2 2)">
        <rect class="cls-10" width="477" height="256" rx="18"/>
        <rect class="cls-11" x="0.5" y="0.5" width="476" height="255" rx="17.5"/>
      </g>
    </g>
    <text id="SHOTS" class="cls-2" transform="translate(599 602)"><tspan x="0" y="13">SHOTS</tspan></text>
    <g id="Group_19" data-name="Group 19" transform="translate(412 446)">
      <g id="Rectangle_1460" data-name="Rectangle 1460" class="cls-3" transform="translate(167 271)">
        <rect class="cls-10" width="63" height="60"/>
        <rect class="cls-11" x="0.5" y="0.5" width="62" height="59"/>
      </g>
      <g id="Rectangle_1461" data-name="Rectangle 1461" class="cls-3" transform="translate(249 271)">
        <rect class="cls-10" width="63" height="60"/>
        <rect class="cls-11" x="0.5" y="0.5" width="62" height="59"/>
      </g>
      <g id="Rectangle_1462" data-name="Rectangle 1462" class="cls-3" transform="translate(331 271)">
        <rect class="cls-10" width="63" height="60"/>
        <rect class="cls-11" x="0.5" y="0.5" width="62" height="59"/>
      </g>
      <g id="Rectangle_1463" data-name="Rectangle 1463" class="cls-3" transform="translate(413 271)">
        <rect class="cls-10" width="63" height="60"/>
        <rect class="cls-11" x="0.5" y="0.5" width="62" height="59"/>
      </g>
      <g id="Rectangle_1464" data-name="Rectangle 1464" class="cls-3" transform="translate(495 271)">
        <rect class="cls-10" width="63" height="60"/>
        <rect class="cls-11" x="0.5" y="0.5" width="62" height="59"/>
      </g>
    </g>
    <text id="PRICE" class="cls-2" transform="translate(557 657)"><tspan x="0" y="13">PRICE</tspan></text>
    <text id="NORMAL_PRICE" data-name="NORMAL PRICE" class="cls-2" transform="translate(557 682)"><tspan x="0" y="13">NORMAL PRICE</tspan></text>
    <text id="_85_kr" data-name="85 kr" class="cls-4" transform="translate(943 655)"><tspan x="0" y="15">85 kr</tspan></text>
    <text id="_120_kr" data-name="120 kr" class="cls-4" transform="translate(944 680)"><tspan x="0" y="15">120 kr</tspan></text>
    <line id="Line_26" data-name="Line 26" class="cls-5" x2="50" y2="22" transform="translate(940.5 678.5)"/>
    <line id="Line_27" data-name="Line 27" class="cls-5" y1="23" x2="50" transform="translate(940.5 678.5)"/>
    <text id="_JOEANDTHEJUICE_JOEANDTHEJUICE_JOEJUICE.COM_" data-name="#JOEANDTHEJUICE  |  @JOEANDTHEJUICE  |  JOEJUICE.COM " class="cls-6" transform="translate(637 790)"><tspan x="0" y="9" xml:space="preserve">#JOEANDTHEJUICE  |  @JOEANDTHEJUICE  |  JOEJUICE.COM </tspan></text>
    <g id="Ellipse_8" data-name="Ellipse 8" class="cls-7" transform="translate(979 795)">
      <circle class="cls-10" cx="10.5" cy="10.5" r="10.5"/>
      <circle class="cls-11" cx="10.5" cy="10.5" r="10"/>
    </g>
    <line id="Line_28" data-name="Line 28" class="cls-7" x2="14" transform="translate(982.5 805.5)"/>
    <line id="Line_29" data-name="Line 29" class="cls-7" y2="14" transform="translate(989.5 798.5)"/>
    <g id="a8a7e8aaaec4f29003dae50dd72da3d8" transform="translate(540.668 784.668)">
      <path id="Path_33" data-name="Path 33" class="cls-8" d="M17.616,17.616H10V10h7.616Zm-6.193-1.423h4.768v-4.77H11.423v4.77Z"/>
      <path id="Path_34" data-name="Path 34" class="cls-8" d="M132.4,132.4h2.539v2.539H132.4Z" transform="translate(-119.861 -119.861)"/>
      <path id="Path_35" data-name="Path 35" class="cls-8" d="M17.616,629.439H10V621.8h7.616Zm-6.193-1.423h4.768v-4.793H11.423v4.793Z" transform="translate(0 -599.107)"/>
      <path id="Path_36" data-name="Path 36" class="cls-8" d="M132.4,745.3h2.539v2.515H132.4Z" transform="translate(-119.861 -720.044)"/>
      <path id="Path_37" data-name="Path 37" class="cls-8" d="M629.439,17.616H621.8V10h7.639Zm-6.216-1.423h4.793v-4.77h-4.793Z" transform="translate(-599.107)"/>
      <path id="Path_38" data-name="Path 38" class="cls-8" d="M745.3,132.4h2.515v2.539H745.3Z" transform="translate(-720.044 -119.861)"/>
      <path id="Path_39" data-name="Path 39" class="cls-8" d="M10,377.1h2.539v2.562H10Z" transform="translate(0 -359.484)"/>
      <path id="Path_40" data-name="Path 40" class="cls-8" d="M254.7,500.6h2.539v2.515H254.7V500.6Z" transform="translate(-239.623 -480.421)"/>
      <path id="Path_41" data-name="Path 41" class="cls-8" d="M500.6,10h2.515v2.539H500.6Z" transform="translate(-480.421)"/>
      <path id="Path_42" data-name="Path 42" class="cls-8" d="M377.1,254.7h2.562v2.539H377.1Z" transform="translate(-359.484 -239.623)"/>
      <path id="Path_43" data-name="Path 43" class="cls-8" d="M500.6,866.5h2.515v2.562H500.6Z" transform="translate(-480.421 -838.73)"/>
      <path id="Path_44" data-name="Path 44" class="cls-8" d="M745.3,866.5h5.077v2.562H745.3Z" transform="translate(-720.044 -838.73)"/>
      <path id="Path_45" data-name="Path 45" class="cls-8" d="M500.6,621.8h5.077v2.562H500.6Z" transform="translate(-480.421 -599.107)"/>
      <path id="Path_46" data-name="Path 46" class="cls-8" d="M745.3,621.8h2.515v5.077H745.3Z" transform="translate(-720.044 -599.107)"/>
      <path id="Path_47" data-name="Path 47" class="cls-8" d="M855.1,621.8h2.8v2.562h-2.8Z" transform="translate(-827.566 -599.107)"/>
      <path id="Path_48" data-name="Path 48" class="cls-8" d="M500.6,377.1h2.515v2.562H500.6Z" transform="translate(-480.421 -359.484)"/>
      <path id="Path_49" data-name="Path 49" class="cls-8" d="M621.8,500.6h2.562v2.515H621.8V500.6Z" transform="translate(-599.107 -480.421)"/>
      <path id="Path_50" data-name="Path 50" class="cls-8" d="M745.3,377.1h2.515v2.562H745.3Z" transform="translate(-720.044 -359.484)"/>
      <path id="Path_51" data-name="Path 51" class="cls-8" d="M866.5,500.6h2.562v2.515H866.5V500.6Z" transform="translate(-838.73 -480.421)"/>
    </g>
    <g id="joe-product-icon_shots" transform="translate(549 587.7)">
      <g id="Group_12" data-name="Group 12" transform="translate(0 0)">
        <path id="Path_27" data-name="Path 27" d="M53.877,47.7h-25a.547.547,0,0,0-.579.579v3.588a.547.547,0,0,0,.579.579h.81l2.893,21.179a1.348,1.348,0,0,0,1.273,1.157H49.479a1.262,1.262,0,0,0,1.273-1.157l2.2-21.063h.81a.547.547,0,0,0,.579-.579V48.394A.52.52,0,0,0,53.877,47.7ZM49.71,73.392a.113.113,0,0,1-.116.116H33.855l-.116-.116L30.962,52.445H51.909Zm3.588-22.1H29.457v-2.43H53.3v2.43Z" transform="translate(-22.398 -15.411)"/>
        <path id="Path_28" data-name="Path 28" d="M34.647,34.151h4.282l-1.273,9.606c0,.231.116.579.347.579h.231A.6.6,0,0,0,38.7,44.1L48.3,29.174a.517.517,0,0,0,0-.579.62.62,0,0,0-.463-.347H43.559l2.778-7.638c.116-.231,0-.347-.116-.579s-.231-.231-.463-.231h-8.8c-.231,0-.579.231-.579.463L34.3,33.341a.7.7,0,0,0,.116.463C34.3,34.035,34.416,34.151,34.647,34.151Zm2.546-13.078h7.523l-2.778,7.638c-.116.231,0,.347.116.579s.231.231.463.231h4.051l-7.523,11.8,1.042-7.638a.7.7,0,0,0-.116-.463.6.6,0,0,0-.463-.231H35.342Z" transform="translate(-21.454 -19.8)"/>
        <path id="Path_29" data-name="Path 29" d="M29.454,23.68c.116.116.231.116.463.116s.347,0,.463-.116a.559.559,0,0,0,0-.81l-2.546-2.546a.573.573,0,1,0-.81.81Z" transform="translate(-22.626 -19.745)"/>
        <path id="Path_30" data-name="Path 30" d="M49.354,41.68c.116.116.231.116.463.116s.347,0,.463-.116a.559.559,0,0,0,0-.81l-2.546-2.546a.573.573,0,0,0-.81.81Z" transform="translate(-19.495 -16.913)"/>
        <path id="Path_31" data-name="Path 31" d="M28.061,30.9H23.779a.579.579,0,1,0,0,1.157h4.282a.579.579,0,1,0,0-1.157Z" transform="translate(-23.2 -18.054)"/>
        <path id="Path_32" data-name="Path 32" d="M56.892,27.3H52.379a.579.579,0,1,0,0,1.157h4.514a.579.579,0,1,0,0-1.157Z" transform="translate(-18.701 -18.62)"/>
      </g>
    </g>
    <g id="joe-product-icon_shots-2" data-name="joe-product-icon_shots" transform="translate(596 726.482)">
      <g id="Group_12-2" data-name="Group 12" transform="translate(0 0)">
        <path id="Path_27-2" data-name="Path 27" d="M47.939,47.7h-19.2a.42.42,0,0,0-.444.444V50.9a.42.42,0,0,0,.444.444h.622l2.222,16.262a1.035,1.035,0,0,0,.978.889h12a.969.969,0,0,0,.978-.889l1.688-16.174h.622a.42.42,0,0,0,.444-.444V48.233A.4.4,0,0,0,47.939,47.7Zm-3.2,19.728a.087.087,0,0,1-.089.089H32.566l-.089-.089L30.344,51.344H46.429ZM47.5,50.455H29.189V48.589H47.5v1.866Z" transform="translate(-23.768 -22.906)"/>
        <path id="Path_28-2" data-name="Path 28" d="M34.567,30.819h3.288L36.877,38.2c0,.178.089.444.267.444h.178a.462.462,0,0,0,.355-.178L45.053,27a.4.4,0,0,0,0-.444.476.476,0,0,0-.355-.267H41.409l2.133-5.865c.089-.178,0-.267-.089-.444s-.178-.178-.355-.178H36.344c-.178,0-.444.178-.444.355L34.3,30.2a.534.534,0,0,0,.089.355C34.3,30.731,34.389,30.819,34.567,30.819Zm1.955-10.042H42.3l-2.133,5.865c-.089.178,0,.267.089.444s.178.178.355.178h3.11l-5.776,9.064.8-5.865a.534.534,0,0,0-.089-.355.462.462,0,0,0-.355-.178H35.1Z" transform="translate(-24.436 -19.8)"/>
        <path id="Path_29-2" data-name="Path 29" d="M28.849,22.86c.089.089.178.089.355.089s.267,0,.355-.089a.43.43,0,0,0,0-.622l-1.955-1.955a.44.44,0,0,0-.622.622Z" transform="translate(-23.606 -19.839)"/>
        <path id="Path_30-2" data-name="Path 30" d="M48.749,40.86c.089.089.178.089.355.089s.267,0,.355-.089a.43.43,0,0,0,0-.622l-1.955-1.955a.44.44,0,0,0-.622.622Z" transform="translate(-25.822 -21.843)"/>
        <path id="Path_31-2" data-name="Path 31" d="M26.932,30.9H23.644a.444.444,0,0,0,0,.889h3.288a.444.444,0,1,0,0-.889Z" transform="translate(-23.2 -21.036)"/>
        <path id="Path_32-2" data-name="Path 32" d="M55.71,27.3H52.244a.444.444,0,1,0,0,.889H55.71a.444.444,0,1,0,0-.889Z" transform="translate(-26.384 -20.635)"/>
      </g>
    </g>
    <g id="joe-product-icon_shots-3" data-name="joe-product-icon_shots" transform="translate(678 726.482)">
      <g id="Group_12-3" data-name="Group 12" transform="translate(0 0)">
        <path id="Path_27-3" data-name="Path 27" d="M47.939,47.7h-19.2a.42.42,0,0,0-.444.444V50.9a.42.42,0,0,0,.444.444h.622l2.222,16.262a1.035,1.035,0,0,0,.978.889h12a.969.969,0,0,0,.978-.889l1.688-16.174h.622a.42.42,0,0,0,.444-.444V48.233A.4.4,0,0,0,47.939,47.7Zm-3.2,19.728a.087.087,0,0,1-.089.089H32.566l-.089-.089L30.344,51.344H46.429ZM47.5,50.455H29.189V48.589H47.5v1.866Z" transform="translate(-23.768 -22.906)"/>
        <path id="Path_28-3" data-name="Path 28" d="M34.567,30.819h3.288L36.877,38.2c0,.178.089.444.267.444h.178a.462.462,0,0,0,.355-.178L45.053,27a.4.4,0,0,0,0-.444.476.476,0,0,0-.355-.267H41.409l2.133-5.865c.089-.178,0-.267-.089-.444s-.178-.178-.355-.178H36.344c-.178,0-.444.178-.444.355L34.3,30.2a.534.534,0,0,0,.089.355C34.3,30.731,34.389,30.819,34.567,30.819Zm1.955-10.042H42.3l-2.133,5.865c-.089.178,0,.267.089.444s.178.178.355.178h3.11l-5.776,9.064.8-5.865a.534.534,0,0,0-.089-.355.462.462,0,0,0-.355-.178H35.1Z" transform="translate(-24.436 -19.8)"/>
        <path id="Path_29-3" data-name="Path 29" d="M28.849,22.86c.089.089.178.089.355.089s.267,0,.355-.089a.43.43,0,0,0,0-.622l-1.955-1.955a.44.44,0,0,0-.622.622Z" transform="translate(-23.606 -19.839)"/>
        <path id="Path_30-3" data-name="Path 30" d="M48.749,40.86c.089.089.178.089.355.089s.267,0,.355-.089a.43.43,0,0,0,0-.622l-1.955-1.955a.44.44,0,0,0-.622.622Z" transform="translate(-25.822 -21.843)"/>
        <path id="Path_31-3" data-name="Path 31" d="M26.932,30.9H23.644a.444.444,0,0,0,0,.889h3.288a.444.444,0,1,0,0-.889Z" transform="translate(-23.2 -21.036)"/>
        <path id="Path_32-3" data-name="Path 32" d="M55.71,27.3H52.244a.444.444,0,1,0,0,.889H55.71a.444.444,0,1,0,0-.889Z" transform="translate(-26.384 -20.635)"/>
      </g>
    </g>
    <g id="joe-product-icon_shots-4" data-name="joe-product-icon_shots" transform="translate(760 726.482)">
      <g id="Group_12-4" data-name="Group 12" transform="translate(0 0)">
        <path id="Path_27-4" data-name="Path 27" d="M47.939,47.7h-19.2a.42.42,0,0,0-.444.444V50.9a.42.42,0,0,0,.444.444h.622l2.222,16.262a1.035,1.035,0,0,0,.978.889h12a.969.969,0,0,0,.978-.889l1.688-16.174h.622a.42.42,0,0,0,.444-.444V48.233A.4.4,0,0,0,47.939,47.7Zm-3.2,19.728a.087.087,0,0,1-.089.089H32.566l-.089-.089L30.344,51.344H46.429ZM47.5,50.455H29.189V48.589H47.5v1.866Z" transform="translate(-23.768 -22.906)"/>
        <path id="Path_28-4" data-name="Path 28" d="M34.567,30.819h3.288L36.877,38.2c0,.178.089.444.267.444h.178a.462.462,0,0,0,.355-.178L45.053,27a.4.4,0,0,0,0-.444.476.476,0,0,0-.355-.267H41.409l2.133-5.865c.089-.178,0-.267-.089-.444s-.178-.178-.355-.178H36.344c-.178,0-.444.178-.444.355L34.3,30.2a.534.534,0,0,0,.089.355C34.3,30.731,34.389,30.819,34.567,30.819Zm1.955-10.042H42.3l-2.133,5.865c-.089.178,0,.267.089.444s.178.178.355.178h3.11l-5.776,9.064.8-5.865a.534.534,0,0,0-.089-.355.462.462,0,0,0-.355-.178H35.1Z" transform="translate(-24.436 -19.8)"/>
        <path id="Path_29-4" data-name="Path 29" d="M28.849,22.86c.089.089.178.089.355.089s.267,0,.355-.089a.43.43,0,0,0,0-.622l-1.955-1.955a.44.44,0,0,0-.622.622Z" transform="translate(-23.606 -19.839)"/>
        <path id="Path_30-4" data-name="Path 30" d="M48.749,40.86c.089.089.178.089.355.089s.267,0,.355-.089a.43.43,0,0,0,0-.622l-1.955-1.955a.44.44,0,0,0-.622.622Z" transform="translate(-25.822 -21.843)"/>
        <path id="Path_31-4" data-name="Path 31" d="M26.932,30.9H23.644a.444.444,0,0,0,0,.889h3.288a.444.444,0,1,0,0-.889Z" transform="translate(-23.2 -21.036)"/>
        <path id="Path_32-4" data-name="Path 32" d="M55.71,27.3H52.244a.444.444,0,1,0,0,.889H55.71a.444.444,0,1,0,0-.889Z" transform="translate(-26.384 -20.635)"/>
      </g>
    </g>
    <g id="joe-product-icon_shots-5" data-name="joe-product-icon_shots" transform="translate(842 726.482)">
      <g id="Group_12-5" data-name="Group 12" transform="translate(0 0)">
        <path id="Path_27-5" data-name="Path 27" d="M47.939,47.7h-19.2a.42.42,0,0,0-.444.444V50.9a.42.42,0,0,0,.444.444h.622l2.222,16.262a1.035,1.035,0,0,0,.978.889h12a.969.969,0,0,0,.978-.889l1.688-16.174h.622a.42.42,0,0,0,.444-.444V48.233A.4.4,0,0,0,47.939,47.7Zm-3.2,19.728a.087.087,0,0,1-.089.089H32.566l-.089-.089L30.344,51.344H46.429ZM47.5,50.455H29.189V48.589H47.5v1.866Z" transform="translate(-23.768 -22.906)"/>
        <path id="Path_28-5" data-name="Path 28" d="M34.567,30.819h3.288L36.877,38.2c0,.178.089.444.267.444h.178a.462.462,0,0,0,.355-.178L45.053,27a.4.4,0,0,0,0-.444.476.476,0,0,0-.355-.267H41.409l2.133-5.865c.089-.178,0-.267-.089-.444s-.178-.178-.355-.178H36.344c-.178,0-.444.178-.444.355L34.3,30.2a.534.534,0,0,0,.089.355C34.3,30.731,34.389,30.819,34.567,30.819Zm1.955-10.042H42.3l-2.133,5.865c-.089.178,0,.267.089.444s.178.178.355.178h3.11l-5.776,9.064.8-5.865a.534.534,0,0,0-.089-.355.462.462,0,0,0-.355-.178H35.1Z" transform="translate(-24.436 -19.8)"/>
        <path id="Path_29-5" data-name="Path 29" d="M28.849,22.86c.089.089.178.089.355.089s.267,0,.355-.089a.43.43,0,0,0,0-.622l-1.955-1.955a.44.44,0,0,0-.622.622Z" transform="translate(-23.606 -19.839)"/>
        <path id="Path_30-5" data-name="Path 30" d="M48.749,40.86c.089.089.178.089.355.089s.267,0,.355-.089a.43.43,0,0,0,0-.622l-1.955-1.955a.44.44,0,0,0-.622.622Z" transform="translate(-25.822 -21.843)"/>
        <path id="Path_31-5" data-name="Path 31" d="M26.932,30.9H23.644a.444.444,0,0,0,0,.889h3.288a.444.444,0,1,0,0-.889Z" transform="translate(-23.2 -21.036)"/>
        <path id="Path_32-5" data-name="Path 32" d="M55.71,27.3H52.244a.444.444,0,1,0,0,.889H55.71a.444.444,0,1,0,0-.889Z" transform="translate(-26.384 -20.635)"/>
      </g>
    </g>
    <g id="joe-product-icon_shots-6" data-name="joe-product-icon_shots" transform="translate(924 726.482)">
      <g id="Group_12-6" data-name="Group 12" transform="translate(0 0)">
        <path id="Path_27-6" data-name="Path 27" d="M47.939,47.7h-19.2a.42.42,0,0,0-.444.444V50.9a.42.42,0,0,0,.444.444h.622l2.222,16.262a1.035,1.035,0,0,0,.978.889h12a.969.969,0,0,0,.978-.889l1.688-16.174h.622a.42.42,0,0,0,.444-.444V48.233A.4.4,0,0,0,47.939,47.7Zm-3.2,19.728a.087.087,0,0,1-.089.089H32.566l-.089-.089L30.344,51.344H46.429ZM47.5,50.455H29.189V48.589H47.5v1.866Z" transform="translate(-23.768 -22.906)"/>
        <path id="Path_28-6" data-name="Path 28" d="M34.567,30.819h3.288L36.877,38.2c0,.178.089.444.267.444h.178a.462.462,0,0,0,.355-.178L45.053,27a.4.4,0,0,0,0-.444.476.476,0,0,0-.355-.267H41.409l2.133-5.865c.089-.178,0-.267-.089-.444s-.178-.178-.355-.178H36.344c-.178,0-.444.178-.444.355L34.3,30.2a.534.534,0,0,0,.089.355C34.3,30.731,34.389,30.819,34.567,30.819Zm1.955-10.042H42.3l-2.133,5.865c-.089.178,0,.267.089.444s.178.178.355.178h3.11l-5.776,9.064.8-5.865a.534.534,0,0,0-.089-.355.462.462,0,0,0-.355-.178H35.1Z" transform="translate(-24.436 -19.8)"/>
        <path id="Path_29-6" data-name="Path 29" d="M28.849,22.86c.089.089.178.089.355.089s.267,0,.355-.089a.43.43,0,0,0,0-.622l-1.955-1.955a.44.44,0,0,0-.622.622Z" transform="translate(-23.606 -19.839)"/>
        <path id="Path_30-6" data-name="Path 30" d="M48.749,40.86c.089.089.178.089.355.089s.267,0,.355-.089a.43.43,0,0,0,0-.622l-1.955-1.955a.44.44,0,0,0-.622.622Z" transform="translate(-25.822 -21.843)"/>
        <path id="Path_31-6" data-name="Path 31" d="M26.932,30.9H23.644a.444.444,0,0,0,0,.889h3.288a.444.444,0,1,0,0-.889Z" transform="translate(-23.2 -21.036)"/>
        <path id="Path_32-6" data-name="Path 32" d="M55.71,27.3H52.244a.444.444,0,1,0,0,.889H55.71a.444.444,0,1,0,0-.889Z" transform="translate(-26.384 -20.635)"/>
      </g>
    </g>
    <text id="_10_X_SHOTS_EXTRA_INGREDIENT" data-name="10 X SHOTS 
+ EXTRA INGREDIENT" class="cls-9" transform="translate(599 619)"><tspan x="0" y="11">10 X SHOTS </tspan><tspan x="0" y="25">+ EXTRA INGREDIENT</tspan></text>
  </g>
</svg>
