<?xml version="1.0" encoding="utf-8"?>
<!-- Generator: Adobe Illustrator 19.2.1, SVG Export Plug-In . SVG Version: 6.00 Build 0)  -->
<svg version="1.1" id="Layer_1" xmlns="http://www.w3.org/2000/svg" xmlns:xlink="http://www.w3.org/1999/xlink" x="0px" y="0px"
	 viewBox="0 0 80 80" style="enable-background:new 0 0 80 80;" xml:space="preserve">
<style type="text/css">
	.st0{fill:#FFFFFF;}
</style>
<g id="Layer_1_1_">
	<g>
		<path class="st0" d="M50.4,47.7H28.8c-0.3,0-0.5,0.2-0.5,0.5v3.1c0,0.3,0.2,0.5,0.5,0.5h0.7L32,70.1c0.1,0.6,0.6,1,1.1,1h13.5
			c0.6,0,1-0.4,1.1-1l1.9-18.2h0.7c0.3,0,0.5-0.2,0.5-0.5v-3.1C50.9,47.9,50.6,47.7,50.4,47.7z M46.8,69.9c0,0.1-0.1,0.1-0.1,0.1
			H33.1c0,0-0.1-0.1-0.1-0.1l-2.4-18.1h18.1L46.8,69.9z M49.9,50.8H29.3v-2.1h20.6L49.9,50.8L49.9,50.8z"/>
		<path class="st0" d="M34.6,32.2h3.7l-1.1,8.3c0,0.2,0.1,0.5,0.3,0.5c0.1,0,0.1,0,0.2,0c0.2,0,0.3-0.1,0.4-0.2l8.3-12.9
			c0.1-0.2,0.1-0.4,0-0.5c-0.1-0.2-0.3-0.3-0.4-0.3h-3.7l2.4-6.6c0.1-0.2,0-0.3-0.1-0.5s-0.2-0.2-0.4-0.2h-7.6
			c-0.2,0-0.5,0.2-0.5,0.4l-1.8,11.3c0,0.1,0,0.3,0.1,0.4C34.3,32.1,34.4,32.2,34.6,32.2z M36.8,20.9h6.5l-2.4,6.6
			c-0.1,0.2,0,0.3,0.1,0.5s0.2,0.2,0.4,0.2h3.5l-6.5,10.2l0.9-6.6c0-0.1,0-0.3-0.1-0.4c-0.1-0.1-0.2-0.2-0.4-0.2h-3.6L36.8,20.9z"/>
		<path class="st0" d="M29.1,23.2c0.1,0.1,0.2,0.1,0.4,0.1s0.3,0,0.4-0.1c0.2-0.2,0.2-0.5,0-0.7l-2.2-2.2c-0.2-0.2-0.5-0.2-0.7,0
			s-0.2,0.5,0,0.7L29.1,23.2z"/>
		<path class="st0" d="M49,41.2c0.1,0.1,0.2,0.1,0.4,0.1s0.3,0,0.4-0.1c0.2-0.2,0.2-0.5,0-0.7l-2.2-2.2c-0.2-0.2-0.5-0.2-0.7,0
			s-0.2,0.5,0,0.7L49,41.2z"/>
		<path class="st0" d="M27.4,30.9h-3.7c-0.3,0-0.5,0.2-0.5,0.5s0.2,0.5,0.5,0.5h3.7c0.3,0,0.5-0.2,0.5-0.5S27.7,30.9,27.4,30.9z"/>
		<path class="st0" d="M56.2,27.3h-3.9c-0.3,0-0.5,0.2-0.5,0.5s0.2,0.5,0.5,0.5h3.9c0.3,0,0.5-0.2,0.5-0.5S56.5,27.3,56.2,27.3z"/>
	</g>
</g>
<g id="Layer_2">
</g>
<g id="Layer_3">
</g>
</svg>
