<?xml version="1.0" encoding="utf-8"?>
<!-- Generator: Adobe Illustrator 19.2.1, SVG Export Plug-In . SVG Version: 6.00 Build 0)  -->
<svg version="1.1" id="Layer_1" xmlns="http://www.w3.org/2000/svg" xmlns:xlink="http://www.w3.org/1999/xlink" x="0px" y="0px"
	 viewBox="0 0 80 80" style="enable-background:new 0 0 80 80;" xml:space="preserve">
<style type="text/css">
	.st0{fill:#FFFFFF;}
</style>
<g id="Layer_1_1_">
	<g>
		<path class="st0" d="M55.2,37c-0.2-0.2-0.5-0.2-0.7,0c-0.2,0.2-0.2,0.5,0,0.7c2.3,2.5,3.5,5.8,3.5,9.3c0,1.7-0.3,3.3-0.9,4.9
			c-0.1,0.3,0,0.5,0.3,0.6c0.1,0,0.1,0,0.2,0c0.2,0,0.4-0.1,0.5-0.3c0.6-1.7,0.9-3.4,0.9-5.3C59,43.3,57.7,39.7,55.2,37z"/>
		<path class="st0" d="M55.1,32.1c-0.2-0.2-0.5-0.1-0.7,0.1c-0.2,0.2-0.1,0.5,0.1,0.7c4.4,3.2,7,8.5,7,14.1c0,3.5-1,6.8-2.8,9.7
			c-0.2,0.2-0.1,0.5,0.1,0.7c0.1,0.1,0.2,0.1,0.3,0.1c0.2,0,0.3-0.1,0.4-0.2c2-3,3-6.6,3-10.2C62.6,41.1,59.8,35.5,55.1,32.1z"/>
		<path class="st0" d="M28.3,61.8c0.1,0,0.2,0.1,0.2,0.1c0.2,0,0.3-0.1,0.4-0.3c0.1-0.2,0-0.5-0.2-0.7c-2.9-1.6-5.1-4.3-6.2-7.6
			c-0.5-1.6-0.7-3.3-0.7-4.9c0-0.3-0.2-0.5-0.5-0.5c-0.3,0-0.5,0.2-0.5,0.5c-0.1,1.8,0.2,3.6,0.7,5.3C22.8,57.2,25.2,60.1,28.3,61.8
			z"/>
		<path class="st0" d="M30.2,65.5c-5.1-1.5-9.2-5.6-10.9-11c-1.1-3.3-1.1-6.8-0.2-10.2c0.1-0.3-0.1-0.5-0.4-0.6
			c-0.3-0.1-0.5,0.1-0.6,0.4c-0.9,3.5-0.9,7.2,0.3,10.7c1.8,5.6,6.1,10,11.5,11.6c0,0,0.1,0,0.1,0c0.2,0,0.4-0.1,0.5-0.4
			C30.6,65.9,30.4,65.6,30.2,65.5z"/>
		<path class="st0" d="M48.9,36.3c0-0.1-0.1-0.2-0.1-0.3L49,36c0.6-0.2,0.9-0.9,0.7-1.4L49,32.7c-0.2-0.5-0.7-0.8-1.3-0.7l0,0
			c-2.4-4.7-7.5-7.5-12.3-6.7l-1.8,0.6l-1.1-6.6l3.7-9.7c0.1-0.3,0-0.5-0.3-0.6c-0.3-0.1-0.5,0-0.6,0.3l-3.7,9.7
			c-0.1,0.2-0.1,0.4-0.1,0.6l1.2,6.7l-1.9,0.7c-4.1,2.4-6.3,8-5.1,13.1c-0.2,0.1-0.4,0.3-0.5,0.5c-0.1,0.3-0.1,0.6,0,0.9l0.7,1.9
			c0.2,0.5,0.6,0.7,1.1,0.7c0.1,0,0.3,0,0.4-0.1l0.2-0.1c0,0.1,0,0.2,0.1,0.3l13.2,26.3c0.2,0.4,0.6,0.6,1,0.6c0.1,0,0.2,0,0.4-0.1
			l12.4-4.5c0.5-0.2,0.8-0.7,0.7-1.3L48.9,36.3z M31.1,27.8l4.5-1.6c4.2-0.7,8.9,1.9,11.1,6.1l-17.5,6.4c-0.1-0.4-0.1-0.8-0.1-1.3
			c-0.1-2.8,1.1-5.4,3.1-6.9c0.2-0.2,0.3-0.5,0.1-0.7c-0.2-0.2-0.5-0.3-0.7-0.1c-2.3,1.6-3.6,4.6-3.6,7.7c0,0.5,0.1,1.1,0.2,1.6
			l-1.8,0.6C25.5,35,27.5,30,31.1,27.8z M26.8,43c-0.1,0-0.1,0-0.2-0.1l-0.7-2c0,0,0,0,0.1-0.1l21.8-7.9c0,0,0,0,0,0
			c0,0,0.1,0,0.1,0.1l0.7,1.9c0,0.1,0,0.1-0.1,0.2l-17.2,6.3L28,42.6l0,0L26.8,43z M54.1,65.6l-12.4,4.5c0,0-0.1,0-0.1-0.1
			l-9.1-18.1c0.3-0.2,0.6-0.4,1.1-0.4c0.7,0,1,0.3,1.4,0.7c0.4,0.4,1,0.9,2,0.9s1.6-0.5,2-0.9c0.4-0.4,0.7-0.7,1.4-0.7
			c0.3,0,0.5-0.2,0.5-0.5s-0.2-0.5-0.5-0.5c-1,0-1.6,0.5-2,0.9c-0.4,0.4-0.7,0.7-1.4,0.7s-1-0.3-1.4-0.7c-0.4-0.4-1-0.9-2-0.9
			c-0.7,0-1.2,0.2-1.5,0.5l-3.7-7.3c0-0.1,0-0.1,0-0.2l0,0l19.5-7.1c0,0,0.1,0,0.1,0.1l1.9,9c-0.3-0.1-0.5-0.3-0.8-0.5
			c-0.4-0.4-1-0.9-2-0.9s-1.6,0.5-2,0.9c-0.4,0.4-0.7,0.7-1.4,0.7s-1-0.3-1.4-0.7c-0.4-0.4-1-0.9-2-0.9c-0.3,0-0.5,0.2-0.5,0.5
			s0.2,0.5,0.5,0.5c0.7,0,1,0.3,1.4,0.7c0.4,0.4,1,0.9,2,0.9s1.6-0.5,2-0.9c0.4-0.4,0.7-0.7,1.4-0.7s1,0.3,1.4,0.7
			c0.4,0.4,0.9,0.8,1.7,0.9l4,18.8C54.2,65.5,54.1,65.5,54.1,65.6z"/>
	</g>
</g>
<g id="Layer_2">
</g>
<g id="Layer_3">
</g>
</svg>
