<?xml version="1.0" encoding="utf-8"?>
<!-- Generator: Adobe Illustrator 19.2.1, SVG Export Plug-In . SVG Version: 6.00 Build 0)  -->
<svg version="1.1" id="Layer_1" xmlns="http://www.w3.org/2000/svg" xmlns:xlink="http://www.w3.org/1999/xlink" x="0px" y="0px"
	 viewBox="0 0 80 80" style="enable-background:new 0 0 80 80;" xml:space="preserve">
<style type="text/css">
	.st0{fill:#FFFFFF;}
</style>
<g id="Layer_1_1_">
	<g>
		<path class="st0" d="M28.9,32.7c0.1,0.2,0.3,0.3,0.5,0.3c0.1,0,0.1,0,0.2,0l7.5-2.7c0.3-0.1,0.4-0.4,0.3-0.6
			c-0.1-0.3-0.4-0.4-0.6-0.3l-7.5,2.7C29,32.2,28.8,32.5,28.9,32.7z"/>
		<path class="st0" d="M38.8,34.3c0.1,0,0.1,0,0.2,0l2.4-0.9c0.3-0.1,0.4-0.4,0.3-0.6c-0.1-0.3-0.4-0.4-0.6-0.3l-2.4,0.9
			c-0.3,0.1-0.4,0.4-0.3,0.6C38.4,34.2,38.6,34.3,38.8,34.3z"/>
		<path class="st0" d="M61.3,60.4l-8.2-22.4c-0.1-0.3-0.4-0.4-0.6-0.3l0,0c0.1-0.5,0.2-1.1-0.2-2c-0.4-1-0.8-1.4-1.3-1.7
			c-0.4-0.3-0.7-0.6-1-1.3s-0.2-1.1-0.1-1.6c0.1-0.5,0.2-1.2-0.1-2.1c-0.6-1.6-2.5-2.4-4.1-1.8c0,0,0,0,0,0l-1.3,0.5
			c-0.5,0.1-1,0.1-1.5-0.1c-0.7-0.3-1.1-1-1.1-1.7c0-0.3-0.2-0.6-0.5-0.7c-0.3-0.1-0.6-0.1-0.8,0.1c-0.6,0.5-1.4,0.5-2,0.2
			c-0.7-0.3-1.1-0.9-1.1-1.7c0-0.3-0.2-0.6-0.5-0.7c-0.3-0.1-0.6-0.1-0.9,0.1c-0.6,0.4-1.3,0.5-2,0.2c-0.5-0.2-0.8-0.6-1-1.1
			l-0.6-1.7c0-0.1-0.1-0.2-0.3-0.3c-0.1-0.1-0.3-0.1-0.4,0L21.2,24c-1,0.4-1.7,1.1-2.2,2s-0.5,2-0.1,3l2.4,6.5v0c0,0,0,0,0,0
			l1.5,4.1l0,0l0,0l1.3,3.7l-0.8,0.3c-0.3,0.1-0.4,0.4-0.3,0.6l9.7,26.6c0.1,0.2,0.3,0.3,0.5,0.3c0.1,0,0.1,0,0.2,0l23.8-8.7L61,61
			C61.2,60.9,61.4,60.6,61.3,60.4z M48.9,29.3c0.3,0.7,0.2,1.1,0.1,1.6c-0.1,0.5-0.2,1.2,0.1,2.1s0.8,1.4,1.3,1.7
			c0.4,0.3,0.7,0.6,1,1.3s0.2,1.1,0.1,1.6c0,0.1,0,0.3-0.1,0.4l-2.3,0.8l-3.9-10.5L46,28l0,0C47.2,27.6,48.4,28.2,48.9,29.3z
			 M20,26.4c0.3-0.7,0.9-1.2,1.6-1.5l10-3.6l0.4,1.2c0.3,0.7,0.8,1.3,1.5,1.6c0.9,0.4,2,0.4,2.8-0.2c0.2,1,0.8,1.8,1.7,2.2
			c0.9,0.4,2,0.4,2.8-0.2c0.1,1,0.8,1.8,1.7,2.2c0.6,0.3,1.2,0.4,1.7,0.3l3.9,10.6l-8.4,3.1l-4.4-2l7.5-2.7c0.3-0.1,0.4-0.4,0.3-0.6
			c-0.1-0.3-0.4-0.4-0.6-0.3l-9.2,3.3l0,0L33,40c0,0,0,0,0,0l-7.9,2.9l-1.2-3.2l11.9-4.3c0.3-0.1,0.4-0.4,0.3-0.6s-0.4-0.4-0.6-0.3
			l-11.9,4.3l-1.2-3.2l4-1.4c0.3-0.1,0.4-0.4,0.3-0.6c-0.1-0.3-0.4-0.4-0.6-0.3l-4,1.4l-1.2-3.2l10.7-3.9c0.3-0.1,0.4-0.4,0.3-0.6
			c-0.1-0.3-0.4-0.4-0.6-0.3l-10.7,3.9l-0.7-2C19.6,27.9,19.6,27.1,20,26.4z M39.2,52.8l-4.3-11.7l16,7.4L39.2,52.8z M33.5,69.9
			l-9.3-25.6l9.5-3.5l4.7,12.8c0,0.1,0.1,0.2,0.2,0.2c0,0,0,0,0,0c0.1,0,0.2,0.1,0.2,0.1c0,0,0,0,0,0c0.1,0,0.1,0,0.2,0l12.8-4.7
			l4.5,12.3L33.5,69.9z M57.3,61.3l-4.7-12.8c0,0,0,0,0-0.1c0,0,0,0,0-0.1c-0.1-0.1-0.1-0.1-0.2-0.2L41,42.9l11.3-4.1l7.8,21.5
			L57.3,61.3z"/>
	</g>
</g>
<g id="Layer_2">
</g>
<g id="Layer_3">
</g>
</svg>
