<?xml version="1.0" encoding="utf-8"?>
<!-- Generator: Adobe Illustrator 19.2.1, SVG Export Plug-In . SVG Version: 6.00 Build 0)  -->
<svg version="1.1" id="Layer_1" xmlns="http://www.w3.org/2000/svg" xmlns:xlink="http://www.w3.org/1999/xlink" x="0px" y="0px"
	 viewBox="0 0 80 80" style="enable-background:new 0 0 80 80;" xml:space="preserve">
<style type="text/css">
	.st0{fill:#FFFFFF;}
</style>
<g id="Layer_1_1_">
	<g>
		<path class="st0" d="M51.8,36.3L51.8,36.3c-0.6-5.2-4.5-9.7-9.3-10.5l-2,0L39.2,19c0-0.2-0.1-0.4-0.3-0.5l-6.8-7.8
			c-0.2-0.2-0.5-0.2-0.7,0c-0.2,0.2-0.2,0.5,0,0.7l6.9,7.9l1.2,6.5l-1.9,0c-4.7,0.8-8.7,5.4-9.3,10.6c-0.5,0.1-1,0.5-1,1.1v2
			c0,0.6,0.5,1.1,1.1,1.1h0.2c0,0.1,0,0.2,0,0.3l0.8,5.7c0,0,0,0,0,0c0,0,0,0.1,0,0.1l3.2,23.4c0.1,0.6,0.5,1,1.1,1h13.2
			c0.6,0,1-0.4,1.1-1l2.4-20.2l0,0v0l1.1-9.1c0-0.1,0-0.2,0-0.3h0.2c0.6,0,1.1-0.5,1.1-1.1v-2C52.7,36.9,52.3,36.4,51.8,36.3z
			 M37.6,26.8l2.4,0l2.4,0c4.2,0.8,7.8,4.9,8.4,9.5H32.1c0.1-0.4,0.2-0.8,0.3-1.2c0.9-2.7,2.9-4.7,5.3-5.4c0.3-0.1,0.4-0.4,0.3-0.6
			c-0.1-0.3-0.4-0.4-0.6-0.3c-2.7,0.8-5,3.1-6,6c-0.2,0.5-0.3,1-0.4,1.6h-1.9C29.9,31.6,33.5,27.5,37.6,26.8z M50.4,40.6
			c0,0,0,0.1,0,0.1l-1,8.7h-9.6c-0.3,0-0.5,0.2-0.5,0.5s0.2,0.5,0.5,0.5h9.5L47,70c0,0.1-0.1,0.1-0.1,0.1H33.7c0,0-0.1,0-0.1-0.1
			l-3.1-22.9h9.4c0.3,0,0.5-0.2,0.5-0.5s-0.2-0.5-0.5-0.5h-9.6l-0.7-5.4c0-0.1,0-0.1,0.1-0.2L50.4,40.6z M51.7,39.4
			c0,0.1-0.1,0.1-0.1,0.1h-1.3H29.7h-1.3c-0.1,0-0.1-0.1-0.1-0.1v-2c0-0.1,0.1-0.1,0.1-0.1h23.2c0.1,0,0.1,0.1,0.1,0.1L51.7,39.4
			L51.7,39.4z"/>
		<path class="st0" d="M34.4,53.6c0,0.3,0.2,0.5,0.5,0.5h10c0.3,0,0.5-0.2,0.5-0.5s-0.2-0.5-0.5-0.5h-10
			C34.6,53.1,34.4,53.3,34.4,53.6z"/>
	</g>
</g>
<g id="Layer_2">
</g>
<g id="Layer_3">
</g>
</svg>
