<?xml version="1.0" encoding="utf-8"?>
<!-- Generator: Adobe Illustrator 19.2.1, SVG Export Plug-In . SVG Version: 6.00 Build 0)  -->
<svg version="1.1" id="Layer_1" xmlns="http://www.w3.org/2000/svg" xmlns:xlink="http://www.w3.org/1999/xlink" x="0px" y="0px"
	 viewBox="0 0 80 80" style="enable-background:new 0 0 80 80;" xml:space="preserve">
<style type="text/css">
	.st0{fill:#FFFFFF;}
</style>
<g id="Layer_1_1_">
	<path class="st0" d="M52.4,36.3L52.4,36.3c-0.6-5.2-4.5-9.7-9.3-10.5l-2,0L39.8,19c0-0.2-0.1-0.4-0.3-0.5l-6.8-7.8
		c-0.2-0.2-0.5-0.2-0.7,0c-0.2,0.2-0.2,0.5,0,0.7l6.9,7.9l1.2,6.5l-1.9,0c-4.7,0.8-8.7,5.4-9.3,10.6c-0.5,0.1-1,0.5-1,1.1v2
		c0,0.6,0.5,1.1,1.1,1.1h0.2c0,0.1,0,0.2,0,0.3l1.4,10c0,0.1,0,0.1,0,0.2l0.6,4.7L21.9,51c-0.5-0.3-1.1-0.3-1.7-0.1
		c-0.6,0.2-1,0.6-1.3,1.1c-0.6,1.1-0.1,2.5,1,3L32,61.2l1.2,8.9c0.1,0.6,0.5,1,1.1,1h13.2v0c0.1,0,0.2,0,0.3,0c2.1,0,4-0.6,4.7-2
		c0.6-1.3,0.3-3-1-4.8c-0.5-0.8-1.2-1.5-1.9-2.2L52,40.8c0-0.1,0-0.2,0-0.3h0.2c0.6,0,1.1-0.5,1.1-1.1v-2
		C53.3,36.8,52.9,36.4,52.4,36.3z M38.2,26.8l2.4,0l2.4,0c4.2,0.8,7.8,4.9,8.4,9.5H32.7c0.1-0.4,0.2-0.8,0.3-1.2
		c0.9-2.7,2.9-4.7,5.3-5.4c0.3-0.1,0.4-0.4,0.3-0.6c-0.1-0.3-0.4-0.4-0.6-0.3c-2.7,0.8-5,3.1-6,6c-0.2,0.5-0.3,1-0.4,1.6h-1.9
		C30.5,31.6,34.1,27.5,38.2,26.8z M32,49.1c0.4-0.4,0.8-0.5,1.1-0.5c0.1,0,0.2,0,0.3,0.1c0,0.4,0,1-0.5,1.6
		c-0.5,0.5-1.1,0.6-1.5,0.5l0-0.1C31.5,50.3,31.5,49.6,32,49.1z M34.2,46.1c0.5-0.5,1.1-0.6,1.5-0.5c0,0.4,0,1.1-0.5,1.6
		c-0.4,0.4-0.8,0.5-1.2,0.5c-0.1,0-0.2,0-0.3-0.1C33.7,47.2,33.7,46.6,34.2,46.1z M37.7,48.3c0.1,0.1,0.2,0.3,0.4,0.5
		c0.2,0.4,0.2,0.8,0.2,1c-0.4,0-1.1,0-1.6-0.5c-0.5-0.5-0.6-1.1-0.5-1.5C36.5,47.8,37.2,47.8,37.7,48.3z M38.9,48.2
		c-0.1-0.1-0.1-0.2-0.2-0.3c0.2-0.3,0.7-0.7,1.5-0.8c0.7,0,1.2,0.4,1.4,0.7c-0.2,0.3-0.7,0.8-1.5,0.8C39.5,48.7,39.2,48.5,38.9,48.2
		z M34.3,70.1c0,0-0.1,0-0.1-0.1l-1.1-8.2l5.3,2.7c0.2,2.1,1.7,4.2,3.9,5.3c0.2,0.1,0.4,0.2,0.6,0.2H34.3z M50.6,64.8
		c1,1.5,1.4,2.9,0.9,3.8c-1,1.9-5.9,1.8-8.8,0.3c-2-1-3.4-2.9-3.4-4.8l0-0.3l-19.1-9.8c-0.6-0.3-0.9-1.1-0.5-1.7
		c0.2-0.3,0.4-0.5,0.7-0.6s0.7-0.1,1,0.1l19,9.7l0.3-0.2c1.5-1.2,3.9-1.2,6-0.1C48.1,62,49.6,63.4,50.6,64.8z M47.2,60.4
		c-2.3-1.2-5-1.2-6.8,0l-8-4.1l-0.6-4.6c0,0,0.1,0,0.1,0c0.6,0,1.3-0.2,1.9-0.8c0.7-0.8,0.8-1.7,0.8-2.3c0.2,0,0.4-0.1,0.6-0.2
		c0.1,0.5,0.2,1.1,0.8,1.6c0.7,0.6,1.4,0.8,2,0.8c0.5,0,0.8-0.1,0.9-0.1c0.2,0,0.3-0.2,0.3-0.3c0,0,0.1-0.4,0.1-0.9
		c0.2,0.1,0.5,0.1,0.8,0.1c0,0,0.1,0,0.1,0c1.2,0,2-0.8,2.3-1.2c0.1,0,0.3,0,0.4,0c0.4,0,1-0.1,1.5-0.4c0.3,0.4,1,1.1,2.1,1.1
		c0,0,0.1,0,0.1,0c0.2,0,0.4,0,0.5-0.1c-0.3,0.9,0,1.7,0,1.8c0,0.2,0.2,0.3,0.3,0.3c0,0,0.4,0.1,0.8,0.1c0.5,0,1.1-0.1,1.7-0.6
		l-1.3,10.7C48.2,61,47.7,60.6,47.2,60.4z M48.4,48.6c0.5-0.5,1.1-0.6,1.5-0.5c0,0.4,0,1.1-0.5,1.6c-0.5,0.5-1.1,0.6-1.5,0.5
		C47.9,49.9,47.9,49.2,48.4,48.6z M46.5,48.1c-0.7,0-1.2-0.4-1.4-0.7c0.2-0.3,0.7-0.8,1.5-0.8c0.7-0.1,1.2,0.4,1.4,0.7
		C47.8,47.6,47.3,48.1,46.5,48.1z M44.1,46.9c-0.5,0.5-1.1,0.6-1.5,0.5c0-0.4,0-1.1,0.5-1.6c0.5-0.5,1.1-0.6,1.5-0.5
		C44.6,45.7,44.6,46.4,44.1,46.9z M51,40.6c0,0,0,0.1,0,0.1l-0.8,6.5c-0.2-0.1-0.7-0.1-1.2,0c0,0,0-0.1,0-0.1c0-0.1-0.7-1.5-2.5-1.5
		c-0.4,0-0.7,0.1-1,0.2c0-0.6-0.1-1.1-0.1-1.1c0-0.2-0.2-0.3-0.3-0.3c-0.1,0-1.6-0.5-2.8,0.7c-0.4,0.5-0.6,1-0.7,1.4
		c-0.4-0.2-0.9-0.4-1.5-0.4c-1.1,0-1.8,0.6-2.2,1.1c-0.5-0.3-1.1-0.4-1.5-0.4c0.3-0.9,0.1-1.8,0.1-1.9c0-0.2-0.2-0.3-0.3-0.3
		c-0.1,0-1.6-0.5-2.8,0.7c-0.7,0.8-0.8,1.7-0.8,2.3c-0.4,0.1-0.9,0.3-1.4,0.8c0,0,0,0.1-0.1,0.1l-1.1-7.8c0-0.1,0-0.1,0.1-0.2
		L51,40.6z M52.3,39.4c0,0.1-0.1,0.1-0.1,0.1H51H30.3H29c-0.1,0-0.1-0.1-0.1-0.1v-2c0-0.1,0.1-0.1,0.1-0.1h23.2
		c0.1,0,0.1,0.1,0.1,0.1L52.3,39.4L52.3,39.4z"/>
</g>
<g id="Layer_2">
</g>
<g id="Layer_3">
</g>
</svg>
