<?xml version="1.0" encoding="utf-8"?>
<!-- Generator: Adobe Illustrator 19.2.1, SVG Export Plug-In . SVG Version: 6.00 Build 0)  -->
<svg version="1.1" id="Layer_1" xmlns="http://www.w3.org/2000/svg" xmlns:xlink="http://www.w3.org/1999/xlink" x="0px" y="0px"
	 viewBox="0 0 80 80" style="enable-background:new 0 0 80 80;" xml:space="preserve">
<style type="text/css">
	.st0{fill:#FFFFFF;}
</style>
<g id="Layer_1_1_">
	<g>
		<path class="st0" d="M51.6,44.7H28.4c-0.6,0-1.1,0.5-1.1,1.1v2c0,0.6,0.5,1.1,1.1,1.1h0.2l4,21.2c0.1,0.6,0.5,1,1.1,1h13.2
			c0.6,0,1-0.4,1.1-1L51.4,49h0.2c0.6,0,1.1-0.5,1.1-1.1v-2C52.7,45.2,52.2,44.7,51.6,44.7z M47,70c0,0.1-0.1,0.1-0.1,0.1H33.7
			c0,0-0.1,0-0.1-0.1l-4-21h20.8L47,70z M51.7,47.8c0,0.1-0.1,0.1-0.1,0.1H28.4c-0.1,0-0.1-0.1-0.1-0.1v-2c0-0.1,0.1-0.1,0.1-0.1
			h23.2c0.1,0,0.1,0.1,0.1,0.1L51.7,47.8L51.7,47.8z"/>
		<path class="st0" d="M38.2,41.9c0,0.3,0.2,0.5,0.5,0.5s0.5-0.2,0.5-0.5c0-1.8,0.5-2.8,1-3.8c0.5-1,1-2,1-3.8c0-1.8-0.5-2.9-1-3.9
			c-0.5-1-1-1.9-1-3.7c0-1.6,0.5-2.7,1-3.7c0.1-0.2,0.2-0.4,0.3-0.6c0.1-0.2,0-0.5-0.2-0.7c-0.2-0.1-0.5,0-0.7,0.2
			c-0.1,0.2-0.2,0.4-0.3,0.6c-0.5,1.1-1.1,2.3-1.1,4.1c0,2.1,0.6,3.1,1.1,4.2c0.5,0.9,0.9,1.8,0.9,3.4c0,1.5-0.4,2.4-0.9,3.3
			C38.8,38.7,38.2,39.9,38.2,41.9z"/>
		<path class="st0" d="M42.3,41.9c0,0.3,0.2,0.5,0.5,0.5s0.5-0.2,0.5-0.5c0-1.9,0.5-2.8,1-3.9c0.5-1,1-2,1-3.7
			c0-1.9-0.6-3.2-1.2-4.3L44,30c-0.1-0.2-0.4-0.3-0.7-0.2c-0.2,0.1-0.3,0.4-0.2,0.7l0.1,0.1c0.5,1,1.1,2.1,1.1,3.8
			c0,1.4-0.4,2.3-0.9,3.2C42.9,38.7,42.3,39.9,42.3,41.9z"/>
		<path class="st0" d="M36.4,34.4c0,0.3,0.2,0.5,0.5,0.5s0.5-0.2,0.5-0.5c0-1.6-0.6-2.7-1.1-3.7c-0.6-1.1-1.1-2.2-1.1-3.9
			c0-0.3-0.2-0.5-0.5-0.5s-0.5,0.2-0.5,0.5c0,1.9,0.6,3.2,1.2,4.3C35.9,32.1,36.4,33,36.4,34.4z"/>
	</g>
</g>
<g id="Layer_2">
</g>
<g id="Layer_3">
</g>
</svg>
